<?xml version="1.0" encoding="utf-8"?>
<!-- Generator: Adobe Illustrator 18.1.1, SVG Export Plug-In . SVG Version: 6.00 Build 0)  -->
<svg version="1.1" id="Camada_1" xmlns="http://www.w3.org/2000/svg" xmlns:xlink="http://www.w3.org/1999/xlink" x="0px" y="0px"
	 viewBox="0 0 400 400" enable-background="new 0 0 400 400" xml:space="preserve">
<g>
	<path fill="none" stroke="#17E374" stroke-width="2" stroke-miterlimit="10" d="M237.1,251c0-10.8-11.2-24.4-11.2-24.4
		c9.3-17.7-4-21.9-10.2-22.9c-7.5-1.3-21.1-1.5-30.4,0c-19.6,3.2-10.5,23.8-10.5,23.8c-9.6,8.4-11.5,17.3-11.5,23.5
		C163.3,285,237.1,280.3,237.1,251z"/>
	<path fill="none" stroke="#17E374" stroke-width="2" stroke-miterlimit="10" d="M182.1,173.6l2.2,3.3l5.8-6.6l3.5,4.6l3.8-4.7
		l2.8,4.6l3.7-4.7l3.7,5l4-5l5.1,6.5l2.3-3.3c0,0,0,4.5,0,9.9c0,1.9-3.6,5.9-3.9,8.1c-0.3,2.2,0.8,7-3.6,7c-4.3,0-21.7,0-21.7,0
		s-4.7-0.6-4.4-4.7c0.3-4-3.5-5.8-3.5-9.2S182.1,173.6,182.1,173.6z"/>
	<path fill="none" stroke="#17E374" stroke-width="2" stroke-miterlimit="10" d="M184.4,179.9h13.7c0,0,2.5,0.5,2.5-2"/>
	<path fill="none" stroke="#17E374" stroke-width="2" stroke-miterlimit="10" d="M215.3,179.9h-12c0,0-3.3,0.5-3.3-2"/>
	<path fill="none" stroke="#17E374" stroke-width="2" stroke-miterlimit="10" d="M189.7,193.8c0,0,5.4,2.3,13.7,1.6
		c2.5-0.2,5.3-0.7,8.2-1.6"/>
	<polygon fill="none" stroke="#17E374" stroke-width="2" stroke-miterlimit="10" points="205.5,191 208.2,194.6 203.3,195.3 	"/>
	<path fill="none" stroke="#17E374" stroke-width="2" stroke-miterlimit="10" d="M198.8,189.6c0,0-0.3-2.3-2-2.6
		c-1.7-0.3-1.2,1.3-1.2,1.3l1.6,0"/>
	<path fill="none" stroke="#17E374" stroke-width="2" stroke-miterlimit="10" d="M203,189.6c0,0,0.3-2.3,2-2.6
		c1.7-0.3,1.2,1.3,1.2,1.3l-1.6,0"/>
	<circle fill="none" stroke="#17E374" stroke-width="2" stroke-miterlimit="10" cx="191.7" cy="182" r="2"/>
	<circle fill="none" stroke="#17E374" stroke-width="2" stroke-miterlimit="10" cx="209.7" cy="182" r="2"/>
	<path fill="none" stroke="#17E374" stroke-width="2" stroke-miterlimit="10" d="M173.7,199.5c0,0-17.4-5-17.8,17l-6.6,13.2
		c0,0-6.3,10.2,0,32.3s7.7,23.5,13.9,27.6c1.4,0.9,4.5,4,5,5.7c0,0,1.7-0.5,0.8-2.4c-0.9-1.9-1.8-3.1-2.3-3.6c0,0-1.5-3.9-2.8-4.4"
		/>
	<path fill="none" stroke="#17E374" stroke-width="2" stroke-miterlimit="10" d="M179.7,313c0,0-19.7,2-35.5,16.1
		c-0.8,0.7-2.4,2.3-3.3,3c-1.4,1.1-2.8,1.2-3.8,1.9c-0.6,0.4,0,1.8,0.9,1.4c1.3-0.5,2.4-1.2,3.4-0.4c0.9,0.8-1.2,1-2.4,1.5
		c-1.3,0.5-0.7,2.2,1,1.5c1.4-0.5,2.7-1.5,3.5-0.9c1.2,1-1.3,1.2-2.8,2.6c-0.7,0.7,0.2,2.3,1.6,1.5c1.7-0.9,3.8-2.7,4.8-1.9
		c1.6,1.2-2,2-3.5,3.6c-1,1,0,2.6,1.9,1.9c2.6-0.9,5.1-4.1,6.3-3.1c1.1,0.8-0.8,1.8-2.4,3.1c-5.1,4.2,0.5,10,5.9,5.9
		c3.8-2.9,4.8-6.6,8.2-5.6c3.1,1,7.8-1.4,7.2-6.7c2.8-6.1,8.8-12.9,13.1-13.3c5.3,1.2,9.2-3.2,5.2-8.2"/>
	<path fill="none" stroke="#17E374" stroke-width="2" stroke-miterlimit="10" d="M240.9,319.4"/>
	<path fill="none" stroke="#17E374" stroke-width="2" stroke-miterlimit="10" d="M148.4,347.6l3.3,1.7c0,0,1.5-1.7,2.1-2.2
		c1-1-1.2-2.7-3-1.5C148.9,346.6,148.4,347.6,148.4,347.6z"/>
	<path fill="none" stroke="#17E374" stroke-width="2" stroke-miterlimit="10" d="M144.3,343.5l0.8,0.5c0,0,0.4-0.4,0.6-0.5
		c0.3-0.2-0.2-0.7-0.7-0.5C144.5,343.3,144.3,343.5,144.3,343.5z"/>
	<path fill="none" stroke="#17E374" stroke-width="2" stroke-miterlimit="10" d="M141.2,339.7l0.7,0.6c0,0,0.5-0.3,0.6-0.4
		c0.3-0.2-0.1-0.7-0.6-0.6C141.4,339.5,141.2,339.7,141.2,339.7z"/>
	<path fill="none" stroke="#17E374" stroke-width="2" stroke-miterlimit="10" d="M139.4,337.1l0.5,0.7c0,0,0.5-0.2,0.7-0.3
		c0.3-0.1,0-0.7-0.5-0.7C139.6,336.9,139.4,337.1,139.4,337.1z"/>
	<path fill="none" stroke="#17E374" stroke-width="2" stroke-miterlimit="10" d="M137.5,334l0.5,0.7c0,0,0.5-0.2,0.7-0.3
		c0.3-0.1,0-0.7-0.5-0.7C137.7,333.8,137.5,334,137.5,334z"/>
	<path fill="none" stroke="#17E374" stroke-width="2" stroke-miterlimit="10" d="M165.5,221.8c-5.9,6.5-8.6,15.4-9.6,21.2
		c-0.9,5.2-0.2,18.7,1.2,23.7c3.2,11.4,11.5,23,14,32.2c-1.6,1.3-0.4,4.8,2.1,3.7c2.7,1.8,7,9.1,7,9.1l-1.6,4.4l2.6-2.5l1.2,3.3
		l2.4-3.3l4.1,3.3c0,0-9.6-26.8-1.9-32.7c3.4-2.6,8.4-3.5,13-3.5l1.6,0c4.6,0,9.6,0.9,13,3.5c7.8,5.9-1.9,32.7-1.9,32.7l4.1-3.3
		l2.4,3.3l1.2-3.3l2.6,2.5l-1.6-4.4c0,0,4.3-7.3,7-9.1c2.5,1,3.7-2.4,2.1-3.7c2.5-9.2,10.8-20.8,14-32.2c1.4-5.1,1.9-18.5,1.2-23.7
		c-1.2-10.4-9.6-21.5-9.6-21.5c1.9-6.8-7.8-19.5-7.8-19.5l-4.4-29.5c0,0,4.3,0.6,2.1,0.3c-2.2-0.3-4.4-5-4.4-5
		c-0.9-11.8-13.8-18-13.8-18v-4.7l-5.1,1.2l-2-4.3l-3.1,4.7l-6.2-1.5l1.9,5.3c-17.7,4.7-14.6,21.2-15.8,25.6c-1.2,4.3-5.3,7-5.3,7
		h3.7l-3.1,18.9C164.9,211.8,165.5,221.8,165.5,221.8"/>
	<path fill="none" stroke="#17E374" stroke-width="2" stroke-miterlimit="10" d="M228.3,199.5c0,0,17.4-5,17.8,17l6.6,13.2
		c0,0,6.3,10.2,0,32.3c-6.3,22-7.7,23.5-13.9,27.6c-1.4,0.9-4.5,4-5,5.7c0,0-1.7-0.5-0.8-2.4c0.9-1.9,1.8-3.1,2.3-3.6
		c0,0,1.5-3.9,2.8-4.4"/>
	<path fill="none" stroke="#17E374" stroke-width="2" stroke-miterlimit="10" d="M222.3,313c0,0,19.7,2,35.5,16.1
		c0.8,0.7,2.4,2.3,3.3,3c1.4,1.1,2.8,1.2,3.8,1.9c0.6,0.4,0,1.8-0.9,1.4c-1.3-0.5-2.4-1.2-3.4-0.4c-0.9,0.8,1.2,1,2.4,1.5
		c1.3,0.5,0.7,2.2-1,1.5c-1.4-0.5-2.7-1.5-3.5-0.9c-1.2,1,1.3,1.2,2.8,2.6c0.7,0.7-0.2,2.3-1.6,1.5c-1.7-0.9-3.8-2.7-4.8-1.9
		c-1.6,1.2,2,2,3.5,3.6c1,1,0,2.6-1.9,1.9c-2.6-0.9-5.1-4.1-6.3-3.1c-1.1,0.8,0.8,1.8,2.4,3.1c5.1,4.2-0.5,10-5.9,5.9
		c-3.8-2.9-4.8-6.6-8.2-5.6c-3.1,1-7.8-1.4-7.2-6.7c-2.8-6.1-8.8-12.9-13.1-13.3c-5.3,1.2-9.2-3.2-5.2-8.2"/>
	<path fill="none" stroke="#17E374" stroke-width="2" stroke-miterlimit="10" d="M253.6,347.6l-3.3,1.7c0,0-1.5-1.7-2.1-2.2
		c-1-1,1.2-2.7,3-1.5C253.1,346.6,253.6,347.6,253.6,347.6z"/>
	<path fill="none" stroke="#17E374" stroke-width="2" stroke-miterlimit="10" d="M257.7,343.5l-0.8,0.5c0,0-0.4-0.4-0.6-0.5
		c-0.3-0.2,0.2-0.7,0.7-0.5C257.5,343.3,257.7,343.5,257.7,343.5z"/>
	<path fill="none" stroke="#17E374" stroke-width="2" stroke-miterlimit="10" d="M260.8,339.6l-0.7,0.6c0,0-0.5-0.3-0.6-0.4
		c-0.3-0.2,0.1-0.7,0.6-0.6C260.6,339.4,260.8,339.6,260.8,339.6z"/>
	<path fill="none" stroke="#17E374" stroke-width="2" stroke-miterlimit="10" d="M262.6,337l-0.5,0.7c0,0-0.5-0.2-0.7-0.3
		c-0.3-0.1,0-0.7,0.5-0.7C262.4,336.9,262.6,337,262.6,337z"/>
	<path fill="none" stroke="#17E374" stroke-width="2" stroke-miterlimit="10" d="M264.5,333.9l-0.5,0.7c0,0-0.5-0.2-0.7-0.3
		c-0.3-0.1,0-0.7,0.5-0.7C264.3,333.8,264.5,333.9,264.5,333.9z"/>
	<path fill="none" stroke="#17E374" stroke-width="2" stroke-miterlimit="10" d="M158.6,278.3c0,0,1,0.4,1.5,0.9
		c1.8,1.5,1.1,3.7,2.8,5.1c0.4,0.3,1,0.7,2.3,0.8"/>
	<path fill="none" stroke="#17E374" stroke-width="2" stroke-miterlimit="10" d="M243.6,278.2c0,0-1,0.4-1.5,0.9
		c-1.8,1.5-1.1,3.7-2.8,5.1c-0.4,0.3-1,0.7-2.3,0.8"/>
</g>
<polygon fill="none" stroke="#17E374" stroke-linecap="round" stroke-linejoin="round" stroke-miterlimit="10" stroke-dasharray="1,3" points="
	244.9,3.5 201.6,78.5 158.3,3.5 "/>
<g>
	
		<line fill="none" stroke="#17E374" stroke-linecap="round" stroke-linejoin="round" stroke-miterlimit="10" stroke-dasharray="1,3" x1="7" y1="247.5" x2="33" y2="247.5"/>
	
		<line fill="none" stroke="#17E374" stroke-linecap="round" stroke-linejoin="round" stroke-miterlimit="10" stroke-dasharray="1,3" x1="368" y1="247.5" x2="394" y2="247.5"/>
</g>
<g>
	
		<line fill="none" stroke="#17E374" stroke-linecap="round" stroke-linejoin="round" stroke-miterlimit="10" stroke-dasharray="1,3" x1="9.9" y1="281.1" x2="35.5" y2="276.6"/>
	
		<line fill="none" stroke="#17E374" stroke-linecap="round" stroke-linejoin="round" stroke-miterlimit="10" stroke-dasharray="1,3" x1="365.5" y1="218.4" x2="391.1" y2="213.9"/>
</g>
<g>
	
		<line fill="none" stroke="#17E374" stroke-linecap="round" stroke-linejoin="round" stroke-miterlimit="10" stroke-dasharray="1,3" x1="18.7" y1="313.7" x2="43.1" y2="304.8"/>
	
		<line fill="none" stroke="#17E374" stroke-linecap="round" stroke-linejoin="round" stroke-miterlimit="10" stroke-dasharray="1,3" x1="357.9" y1="190.2" x2="382.3" y2="181.3"/>
</g>
<g>
	
		<line fill="none" stroke="#17E374" stroke-linecap="round" stroke-linejoin="round" stroke-miterlimit="10" stroke-dasharray="1,3" x1="32.9" y1="344.2" x2="55.4" y2="331.2"/>
	
		<line fill="none" stroke="#17E374" stroke-linecap="round" stroke-linejoin="round" stroke-miterlimit="10" stroke-dasharray="1,3" x1="345.6" y1="163.8" x2="368.1" y2="150.8"/>
</g>
<g>
	
		<line fill="none" stroke="#17E374" stroke-linecap="round" stroke-linejoin="round" stroke-miterlimit="10" stroke-dasharray="1,3" x1="52.3" y1="371.9" x2="72.2" y2="355.2"/>
	
		<line fill="none" stroke="#17E374" stroke-linecap="round" stroke-linejoin="round" stroke-miterlimit="10" stroke-dasharray="1,3" x1="328.8" y1="139.8" x2="348.7" y2="123.1"/>
</g>
<g>
	
		<line fill="none" stroke="#17E374" stroke-linecap="round" stroke-linejoin="round" stroke-miterlimit="10" stroke-dasharray="1,3" x1="76.1" y1="395.7" x2="92.8" y2="375.8"/>
	
		<line fill="none" stroke="#17E374" stroke-linecap="round" stroke-linejoin="round" stroke-miterlimit="10" stroke-dasharray="1,3" x1="308.2" y1="119.2" x2="324.9" y2="99.3"/>
</g>
<g>
	
		<line fill="none" stroke="#17E374" stroke-linecap="round" stroke-linejoin="round" stroke-miterlimit="10" stroke-dasharray="1,3" x1="324.9" y1="395.7" x2="308.2" y2="375.8"/>
	
		<line fill="none" stroke="#17E374" stroke-linecap="round" stroke-linejoin="round" stroke-miterlimit="10" stroke-dasharray="1,3" x1="92.8" y1="119.2" x2="76.1" y2="99.3"/>
</g>
<g>
	
		<line fill="none" stroke="#17E374" stroke-linecap="round" stroke-linejoin="round" stroke-miterlimit="10" stroke-dasharray="1,3" x1="348.7" y1="371.9" x2="328.8" y2="355.2"/>
	
		<line fill="none" stroke="#17E374" stroke-linecap="round" stroke-linejoin="round" stroke-miterlimit="10" stroke-dasharray="1,3" x1="72.2" y1="139.8" x2="52.3" y2="123.1"/>
</g>
<g>
	
		<line fill="none" stroke="#17E374" stroke-linecap="round" stroke-linejoin="round" stroke-miterlimit="10" stroke-dasharray="1,3" x1="368.1" y1="344.2" x2="345.6" y2="331.2"/>
	
		<line fill="none" stroke="#17E374" stroke-linecap="round" stroke-linejoin="round" stroke-miterlimit="10" stroke-dasharray="1,3" x1="55.4" y1="163.8" x2="32.9" y2="150.8"/>
</g>
<g>
	
		<line fill="none" stroke="#17E374" stroke-linecap="round" stroke-linejoin="round" stroke-miterlimit="10" stroke-dasharray="1,3" x1="382.3" y1="313.7" x2="357.9" y2="304.8"/>
	
		<line fill="none" stroke="#17E374" stroke-linecap="round" stroke-linejoin="round" stroke-miterlimit="10" stroke-dasharray="1,3" x1="43.1" y1="190.2" x2="18.7" y2="181.3"/>
</g>
<g>
	
		<line fill="none" stroke="#17E374" stroke-linecap="round" stroke-linejoin="round" stroke-miterlimit="10" stroke-dasharray="1,3" x1="391.1" y1="281.1" x2="365.5" y2="276.6"/>
	
		<line fill="none" stroke="#17E374" stroke-linecap="round" stroke-linejoin="round" stroke-miterlimit="10" stroke-dasharray="1,3" x1="35.5" y1="218.4" x2="9.9" y2="213.9"/>
</g>
</svg>
