<?xml version="1.0" encoding="utf-8"?>
<!-- Generator: Adobe Illustrator 18.1.1, SVG Export Plug-In . SVG Version: 6.00 Build 0)  -->
<svg version="1.1" id="Camada_1" xmlns="http://www.w3.org/2000/svg" xmlns:xlink="http://www.w3.org/1999/xlink" x="0px" y="0px"
	 viewBox="0 0 250 100" enable-background="new 0 0 250 100" xml:space="preserve">
<g>
	<polygon fill-rule="evenodd" clip-rule="evenodd" fill="#FFFFFF" points="39.2,54.1 26,26.4 39.5,26.4 46,39.8 	"/>
	<g>
		<g>
			<g>
				<polygon fill-rule="evenodd" clip-rule="evenodd" fill="#FFFFFF" points="151.1,70.9 137.5,70.9 150,48.8 137.5,26.4 
					151.1,26.4 158.3,39.3 165.4,26.4 179.1,26.4 166.6,48.7 179,70.9 165.4,71 158.3,58.3 				"/>
				<path fill-rule="evenodd" clip-rule="evenodd" fill="#FFFFFF" d="M118.4,37.3V43H132v10.6h-13.5c0,0,0,1.4,0,3.2
					c0,1.9,1.6,3.2,3.1,3.2c2.3,0,12.5,0,12.5,0V71c0,0-11.9,0-18.1,0c-5.2,0-9.8-4.2-9.8-9.8c0-6.4,0-34.7,0-34.7h28v10.9H118.4z"
					/>
				<polygon fill-rule="evenodd" clip-rule="evenodd" fill="#FFFFFF" points="56.7,26.4 70.3,26.4 48.1,72.7 41.3,58.5 				"/>
				<polygon fill-rule="evenodd" clip-rule="evenodd" fill="#FFFFFF" points="79.4,37.3 69.3,37.3 74.5,26.4 101.9,26.4 101.9,37.3 
					91.8,37.3 91.8,71 79.4,71 				"/>
			</g>
		</g>
		<g>
			<g>
				<path fill="#FFFFFF" d="M193.2,49.7h-8V27c0-0.5-0.4-0.9-0.9-0.9c-0.5,0-0.9,0.4-0.9,0.9v24.6h9.9c0.5,0,0.9-0.4,0.9-0.9
					S193.7,49.7,193.2,49.7z"/>
				<path fill="#FFFFFF" d="M207.6,29c-0.7-1.4-2.2-3-5.1-3c-4.4,0-5.8,3.8-5.9,5.8l0,8.9c0,0,0,0,0,0l0,0l0,9.9
					c0,0.5,0.4,0.9,0.9,0.9c0.5,0,0.9-0.4,0.9-0.9v-9h8.1v9c0,0.5,0.4,0.9,0.9,0.9c0.5,0,0.9-0.4,0.9-0.9V31.9l0,0
					C208.4,31.8,208.3,30.4,207.6,29z M198.5,39.8v-7.9c0-0.3,0.3-4.1,4-4.1c3.7,0,4,3.6,4,4.1v7.9H198.5z"/>
				<path fill="#FFFFFF" d="M222.3,38.2c1.2-1,2.3-2.7,2.3-5.6c0-4.7-3.5-6.3-5.4-6.6l-6.2,0v25.5h6.8c1.8,0,5.2-1.6,5.2-7.6
					C225,40.9,223.7,39.2,222.3,38.2z M219.1,27.9c0.5,0.1,3.7,0.7,3.7,4.7c0,3.9-2.4,4.7-2.8,4.8h-5.1v-9.5H219.1z M219.8,49.7
					h-4.9V39.2h5.1c0.2,0,0.9,0.2,1.6,0.8c1.1,0.8,1.6,2.2,1.6,4C223.2,48.5,221,49.7,219.8,49.7z"/>
			</g>
		</g>
	</g>
</g>
</svg>
