<?xml version="1.0" encoding="utf-8"?>
<!-- Generator: Adobe Illustrator 20.1.0, SVG Export Plug-In . SVG Version: 6.00 Build 0)  -->
<svg version="1.1" id="Layer_1" xmlns:sketch="http://www.bohemiancoding.com/sketch/ns"
	 xmlns="http://www.w3.org/2000/svg" xmlns:xlink="http://www.w3.org/1999/xlink" x="0px" y="0px" viewBox="0 0 2125 449"
	 style="enable-background:new 0 0 2125 449;" xml:space="preserve">
<style type="text/css">
	.st0{fill:#FFFFFF;}
</style>
<title>VTEX</title>
<desc>Created with Sketch.</desc>
<g id="Page-1" sketch:type="MSPage">
	<g id="VTEX" sketch:type="MSLayerGroup">
		<path id="Shape_1_" sketch:type="MSShapeGroup" class="st0" d="M1901.7,130.3l121.3,0.3l-236.3,156.7l136.7,120.3l-126.1,0.9
			l-80.9-75l-173.8,115.1H1414L1660.2,282L1529,167.7l125.3,0.3l75,66.3L1901.7,130.3L1901.7,130.3z"/>
		<path id="Shape_2_" sketch:type="MSShapeGroup" class="st0" d="M-17.6,168l135.2-0.1l132.2,123.4L385.2,168l84.1-0.1l54.2,64.7
			H441L248.1,420L-17.6,168L-17.6,168z"/>
		<path id="Shape_3_" sketch:type="MSShapeGroup" class="st0" d="M1435,168.2l0.1,55.2l-340.5-0.1v36.5h320.3l0.1,46.2
			c0,0-303.2-0.2-318.7-0.2c0,11.7,0.4,44.8,56.9,44.8h282.1l-0.1,58.4c0,0-262.5-0.1-328-0.1c-61,0-111.4-28.7-111.4-74.5
			c0-50.7-0.1-166.2-0.1-166.2H1435L1435,168.2z"/>
		<path id="Shape_4_" sketch:type="MSShapeGroup" class="st0" d="M508,167.8l453.5,0.2l0.2,64.7H794.3l-0.4,176l-109.6-0.1l-0.1-176
			H570.1L508,167.8L508,167.8z"/>
	</g>
</g>
</svg>
