<?xml version="1.0" encoding="utf-8"?>
<!-- Generator: Adobe Illustrator 18.1.0, SVG Export Plug-In . SVG Version: 6.00 Build 0)  -->
<svg version="1.1" id="Layer_1" xmlns="http://www.w3.org/2000/svg" xmlns:xlink="http://www.w3.org/1999/xlink" x="0px" y="0px"
	 viewBox="0 0 356 708.7" enable-background="new 0 0 356 708.7" xml:space="preserve">
<g>
	<path fill="#DD3E2B" d="M4,549.5c-0.1,0-0.2,0-0.4,0.1c-0.2,0-0.3,0.1-0.5,0.1c-1.2,0.3-2.3,0.8-3.3,1.5v1.7c1-0.9,2.2-1.6,3.5-1.9
		c0.2-0.1,0.5-0.1,0.8-0.2c0.2-0.1,0.5-0.1,0.7-0.1c0.2,0,0.4-0.1,0.7-0.1c0.2,0,0.4,0,0.6,0c5,0.1,9,4.3,8.8,9.4
		c-0.1,3.6-2.3,6.6-5.3,8c-0.5,0.2-0.9,0.4-1.4,0.5l-6.7,0.1c0.1-0.2,0.3-0.4,0.4-0.6c0.4-0.6,0.7-1.3,0.9-2c0.8-2.5,0.5-5-0.6-7.1
		c-0.2-0.4-0.5-0.8-0.7-1.2c-0.4-0.5-0.8-1-1.2-1.4c0,0-0.1-0.1-0.1-0.1c0.3-0.5,2-2.8,5.5-3.2c0.3,0,0.4-0.3,0.4-0.5
		c0-0.3-0.3-0.5-0.5-0.4c-3,0.3-4.7,1.8-5.6,2.9v3.1c0,0,0,0,0,0c0.3,0.4,0.6,0.8,0.9,1.2c1.1,1.9,1.4,4.2,0.7,6.4
		c-0.2,0.7-0.6,1.4-1,2c-0.2,0.3-0.4,0.6-0.7,0.9v1.5l1.1,0c0,0,0,0,0,0l9-0.1l-0.3,1l-0.5,1.5l-0.5,1.7c-3.5,3.2-6.4,5.3-8.8,6.6
		v1.1c2.2-1.3,5-3.2,8.2-6l-8.2,26.8v5.2c0.1-0.1,0.1-0.2,0.2-0.3l11-35.7l0.5-1.7l0.3-0.9c0.1-0.2,0-0.4-0.1-0.6
		c-0.1-0.1-0.2-0.1-0.3-0.2c2.8-1.8,4.8-4.9,4.9-8.5c0.2-5.8-4.4-10.6-10.1-10.8c-0.3,0-0.5,0-0.8,0c-0.6-3.1-2.7-5.7-5.5-7.1v1.5
		C2,545,3.5,547.1,4,549.5z"/>
	<path fill="#DD3E2B" d="M20.3,665.3c0.1,0,1.6-0.4,2.3-1.9c0.6-1.3,0.4-3.1-0.7-5.2c-0.1-0.2-0.3-0.3-0.4-0.3c-0.1,0-0.1,0-0.2,0.1
		c-0.2,0.1-0.3,0.4-0.2,0.6c0.9,1.8,1.2,3.3,0.7,4.4c-0.5,1.1-1.6,1.4-1.6,1.4c-0.3,0.1-0.4,0.3-0.3,0.6
		C19.7,665.2,20,665.3,20.3,665.3z"/>
	<path fill="#DD3E2B" d="M17.1,674c-0.1-0.3-0.4-0.5-0.7-0.5c-0.1,0-0.1,0-0.2,0c-0.4,0.1-0.6,0.5-0.5,0.8l5.3,21.2
		c0.1,0.4,0.5,0.6,0.8,0.5c0.4-0.1,0.6-0.5,0.5-0.8L17.1,674z"/>
	<path fill="#DD3E2B" d="M27.2,670.3l12.7,17.9c0.2,0.3,0.6,0.4,0.9,0.2c0.3-0.2,0.4-0.6,0.2-0.9l-12.7-17.9
		c-0.1-0.2-0.3-0.3-0.6-0.3c-0.1,0-0.3,0-0.4,0.1C27,669.6,26.9,670,27.2,670.3z"/>
	<path fill="#DD3E2B" d="M19.8,644.4L19.8,644.4c-0.2-0.4-4.8-8-9.5-9.2c-0.4-0.1-0.9-0.2-1.3-0.2c-0.8,0-1.5,0.2-2.1,0.6
		c-0.4,0.1-1.6,0.5-2.5,1.8c-1.7,2.6-1.6,7.2,0.5,13.6c0,0,0,0,0,0.1l0.1,0.4l-0.1,0l0.2,0.4l12.1,53.4c0.1,0.2,0.2,0.4,0.5,0.5
		c0.2,0.1,0.5,0,0.7-0.2c11.3-12,32.8-13,33-13c0.3,0,0.5-0.2,0.6-0.4c0.1-0.2,0.1-0.5,0-0.7L19.8,644.4z M5.5,638.3
		c0.7-1.1,1.7-1.3,1.7-1.3c0.1,0,0.2,0,0.3-0.1c0.8-0.5,1.6-0.6,2.5-0.3c3.7,0.9,7.7,7,8.5,8.2c-2.3,4.9-8.7,5.5-11.4,5.5
		c-0.4,0-0.7,0-1,0C3.9,643.1,4.5,639.8,5.5,638.3z M7,651.7c2.8,0,9.2-0.6,12.1-5.4l5.7,12.3c1.1,2.6,1.2,4.9,0.5,6.7
		c-1,2.3-3.2,3.2-3.3,3.3c-2.4,1.3-4.5,1.6-6.3,0.9c-2.8-1.1-3.8-4.4-3.8-4.5l-5.5-13.2C6.6,651.7,6.8,651.7,7,651.7z M18.2,703.8
		L8.1,659.2l2.6,6.2c0.1,0.2,1.2,4,4.6,5.3c2.1,0.9,4.7,0.5,7.4-1c0.1,0,2.8-1.1,4-3.9c0.9-2.2,0.8-4.8-0.5-7.8l-2.7-5.9L50,691.4
		C45.4,691.7,28.6,693.7,18.2,703.8z"/>
	<path fill="#DD3E2B" d="M23.4,674.4c-0.1-0.2-0.4-0.4-0.6-0.4c-0.1,0-0.2,0-0.3,0.1c-0.3,0.2-0.5,0.6-0.3,0.9l7.8,16.5
		c0.2,0.3,0.6,0.5,0.9,0.3c0.3-0.2,0.5-0.6,0.3-0.9L23.4,674.4z"/>
	<path fill="#DD3E2B" d="M0.7,400.7c0.6,0,1.1-0.5,1.1-1.1l-0.1-16.2c0-0.6-0.5-1.1-1.1-1.1c-0.2,0-0.4,0.1-0.6,0.2v17.9
		C0.1,400.5,0.4,400.7,0.7,400.7z"/>
	<path fill="#DD3E2B" d="M21.2,330.8c0.4,0.4,1.1,0.4,1.5,0l11.4-11.6c0.4-0.4,0.4-1.1,0-1.5c-0.2-0.2-0.5-0.3-0.8-0.3
		c-0.3,0-0.6,0.1-0.8,0.3l-11.4,11.6C20.8,329.7,20.8,330.4,21.2,330.8z"/>
	<path fill="#DD3E2B" d="M48.6,351.8c0-0.6-0.5-1.1-1.1-1.1l-16.2,0.1c-0.6,0-1.1,0.5-1.1,1.1c0,0.6,0.5,1.1,1.1,1.1l16.2-0.1
		C48.1,352.9,48.6,352.4,48.6,351.8z"/>
	<path fill="#DD3E2B" d="M34.7,386.2c0.4-0.4,0.4-1.1,0-1.5l-11.6-11.4c-0.2-0.2-0.5-0.3-0.8-0.3c-0.3,0-0.6,0.1-0.8,0.3
		c-0.4,0.4-0.4,1.1,0,1.5l11.6,11.4C33.6,386.6,34.3,386.6,34.7,386.2z"/>
	<path fill="#DD3E2B" d="M0.4,369.3c9.4-0.1,17-7.8,16.9-17.2c0-0.3-0.3-0.6-0.6-0.6c-0.3,0-0.6,0.3-0.6,0.6c0.1,8.7-7,15.9-15.7,16
		c-0.2,0-0.3,0.1-0.5,0.2v0.8C0,369.2,0.2,369.3,0.4,369.3z"/>
	<path fill="#DD3E2B" d="M0,326.8c14-0.1,25.6,11.2,25.7,25.2c0.1,14-11.2,25.6-25.2,25.7c-0.2,0-0.4,0-0.5,0v1.8c0.2,0,0.4,0,0.6,0
		c15-0.1,27.2-12.5,27-27.5C27.3,337,15,324.9,0,325c0,0,0,0-0.1,0L0,326.8C-0.1,326.8-0.1,326.8,0,326.8z"/>
	<path fill="#DD3E2B" d="M-0.1,322.2c0.6,0,1.1-0.5,1.1-1.1l-0.1-16.2c0-0.6-0.4-1-1-1L-0.1,322.2C-0.1,322.2-0.1,322.2-0.1,322.2z"
		/>
	<path fill="#DD3E2B" d="M8.8,428.9c0.2,0.2,0.5,0.2,0.7,0c0.2-0.2,0.2-0.5,0-0.7c0-0.1-3.6-4-9.7-4.4v0.9
		C5.4,425.1,8.6,428.7,8.8,428.9z"/>
	<path fill="#DD3E2B" d="M17.5,437.5c0,4.3-1.3,8.2-3.7,11.4L1.2,438.8c0.2-0.5,0.3-1,0.3-1.6c0-1.2-0.6-2.3-1.6-3v1.3
		c0.4,0.5,0.6,1.1,0.6,1.7c0,0.3,0,0.6-0.1,0.9l-0.5-0.4l0,0v2.6l0.3-0.2l0,0l0,0l0,0.1l12.5,10.1c-2.9,3.3-6.9,5.6-11.5,6.3
		l-1.4-12.8v7.8l0.5,5.2c-0.2,0-0.4,0-0.5,0v1.4c0.2,0,0.5,0,0.7-0.1l0.4,3.6c-0.3-0.3-0.7-0.7-1-0.9v1.9c0.8,0.9,1.3,2.1,1.3,3.4
		c0,1.3-0.5,2.5-1.3,3.5v1.9c0.4-0.3,0.7-0.6,1-0.9c0.4,5.9,5.2,8.2,5.2,8.2c0.7,0.5,7,3,9,3.7c5.5,2,13.4,6.8,16.5,8.7l-6.5,2.9
		c-1.3-1.8-5.4-7-11.7-9.5l-10-4.2c-0.1-0.1-1.7-0.8-3.3-2.9v2.4c1.4,1.3,2.6,1.9,2.7,2l10.1,4.2c5.6,2.2,9.5,6.8,10.8,8.7l-3.8,1.7
		c-4-6.9-11.3-11.7-19.8-12v2.1c7.6,0.3,14.2,4.5,17.8,10.7l-1.3,0.6c-3.5-5.6-9.6-9.4-16.5-9.7v1.4c6.4,0.3,12.1,3.8,15.3,8.9
		l-7.6,3.3l-0.1,0.1c-2.9,2.1-4.8,3.5-6.2,4.5c-0.4-0.3-0.8-0.6-1.3-0.7v1c0.2,0.1,0.4,0.2,0.6,0.3c-0.2,0.2-0.4,0.3-0.6,0.5v2.1
		c0,0,0,0,0,0c0,0,0,0,0,0.1v1.4c0.6-0.3,1-1,1-1.7c0-0.2,0-0.3-0.1-0.5c0.2-0.2,0.4-0.3,0.7-0.5c0.1,0.3,0.2,0.7,0.2,1
		c0,1.2-0.7,2.2-1.8,2.6v1c1.6-0.5,2.7-1.9,2.7-3.6c0-0.6-0.1-1.1-0.4-1.6c1.7-1.3,3.9-2.9,6.1-4.4l7.7-3.4c1.3,2.6,2.1,5.4,2.1,8.5
		c0.1,10.3-8,18.8-18.2,19.2v1.4c10.9-0.5,19.7-9.6,19.6-20.6c0-3.3-0.8-6.3-2.2-9.1l1.3-0.6c1.4,2.8,2.1,5.9,2.2,9.2
		c0,0.7,0,1.4-0.1,2l0,0.3l2,0.6l0.1-0.4c0.1-0.8,0.1-1.6,0.1-2.5c0-3.6-0.9-7-2.4-10.1l13.2-5.8l9.8-4.3l2.1,1.8c0,0,0,0,0,0.1
		c0.1,0.1,0.1,0.1,0.2,0.1l0,0l1.1,1c1.4,1.1,2.4,0.9,3,0.6c2.7-1.5,2.1-9.4,1.9-11.7c0-0.4-0.4-0.8-0.9-0.7c-0.4,0-0.8,0.4-0.7,0.9
		c0.4,4.4,0.1,9.5-1,10.1c-0.3,0.2-0.8-0.1-1.1-0.3c1.3-1.5,1.5-5.8,1.5-7.7c0-0.5-0.4-0.8-0.8-0.8c-0.4,0-0.8,0.4-0.8,0.8
		c0,3.2-0.5,6.3-1,6.7c0,0-0.1,0-0.2-0.1l0,0l-2.9-2.6l-10.4,4.6c-2-1.3-11.3-7.2-17.7-9.5c-3.9-1.5-8.2-3.3-8.8-3.6
		c-0.3-0.1-6.7-3.3-3.5-12.4l18.5-7.5c0.1,0,0.1,0,0.2-0.1l10.4-4.2l0,3.8c0,1.4,1.1,2.5,2.5,2.5c1.4,0,2.5-1.1,2.5-2.5l-0.1-10.2
		c0-1.4-1.1-2.5-2.5-2.5c-1.4,0-2.5,1.1-2.5,2.5l0,4.6l-10.6,4.3l-6.9-5.6c2.5-3.4,4-7.7,4-12.3c-0.1-10.7-8.4-19.4-18.9-20.2v1.4
		C9.6,419.4,17.4,427.6,17.5,437.5z M34.8,445.4c0.6,0,1.1,0.5,1.1,1.1l0.1,10.2c0,0.6-0.5,1.1-1.1,1.1c-0.6,0-1.1-0.5-1.1-1.1
		l-0.1-10.2C33.7,445.9,34.2,445.4,34.8,445.4z M20.1,456.1l-18,7.3l0,0.1c0,0,0-0.1,0-0.1l-0.6-5.5c4.9-0.7,9.3-3.3,12.4-6.8
		L20.1,456.1z"/>
	<path fill="#DD3E2B" d="M18.9,444.1l2,0.6l0.1-0.3c0.8-2.4,1.2-4.9,1.2-7.5c-0.1-10.1-6.6-19.1-16.2-22.3l-0.5-0.2l0.4,2.3l0.2,0.1
		c8.3,3.1,14,11.2,14.1,20c0,2.4-0.3,4.7-1.1,6.9L18.9,444.1z"/>
	<path fill="#DD3E2B" d="M12.9,512.4c0.1-0.3-0.1-0.5-0.3-0.6c-0.3-0.1-0.5,0.1-0.6,0.3c-0.1,0.4-2.6,8.9-12.1,9.7v1
		C10.1,522,12.9,512.5,12.9,512.4z"/>
	<path fill="#DD3E2B" d="M67.1,429.7l3.2,5.2c0.3,1,0.9,2,1.7,2.8c1.1,1.1,2.6,1.7,4,1.9l0,1.9l-1.1,0l0.1,5.1l3.3-0.1l-0.1-5.1
		l-1.2,0l0-1.8c1,0,2-0.3,2.9-0.8c0.6-0.2,1.1-0.7,1.6-1.2c0.1,0,0.2,0.1,0.2,0.1c0,0,0,0,0,0c0.1,0.1,0.1,0.1,0.2,0.1c0,0,0,0,0,0
		c5.8,3.1,10.3,1.4,10.6,1.3l10.1-4.1c5.5-2.4,11.5-1.9,13.8-1.5l-1.5,3.9c-8-2.2-17-0.1-23.2,6.3c-0.2,0.2-0.4,0.4-0.6,0.7
		l-0.2,0.2l1.5,1.5l0.2-0.3c0.2-0.2,0.4-0.4,0.6-0.6c5.6-5.7,13.7-7.7,21-5.8l-0.5,1.3c-6.8-1.6-14.2,0.3-19.4,5.6
		c-7.9,8-7.8,21,0.3,28.9c8,7.9,21,7.8,28.9-0.3c7.9-8,7.8-21-0.3-28.9c-2.3-2.3-5.1-3.9-8-4.8l0.5-1.3c3,1,5.7,2.7,8.1,5
		c0.5,0.5,0.9,1,1.3,1.5l0.2,0.2l1.9-1l-0.3-0.3c-0.5-0.6-1.1-1.2-1.7-1.9c-2.6-2.5-5.6-4.3-8.8-5.4l5.2-13.5l3.9-9.9l2.8-0.2
		c0,0,0,0,0.1,0c0.1,0,0.2,0,0.2,0l0,0l1.5-0.1c1.7-0.2,2.3-1,2.5-1.7c0.8-2.9-5.1-8.1-7-9.6c-0.3-0.3-0.9-0.2-1.1,0.1
		c-0.3,0.3-0.2,0.9,0.1,1.1c3.4,2.8,6.8,6.6,6.4,7.9c-0.1,0.3-0.6,0.5-1,0.5c-0.2-2-3.1-5.1-4.4-6.5c-0.3-0.4-0.8-0.3-1.2,0
		c-0.3,0.3-0.3,0.8,0,1.2c2.2,2.2,4.1,4.9,4,5.4c0,0-0.1,0-0.2,0l0,0l-3.9,0.2l-4.1,10.6c-2.3,0.5-13,2.9-19.2,5.8
		c-3.8,1.6-8.1,3.5-8.8,3.6c-0.3,0.1-7.1,2.4-11.2-6.2l7.7-18.4c0,0,0-0.1,0.1-0.2l4.4-10.4l2.7,2.7c1,1,2.6,0.9,3.5,0
		c1-1,0.9-2.5,0-3.5l-7.2-7.1c-1-1-2.6-0.9-3.5,0c-1,1-0.9,2.6,0,3.5l3.2,3.2l-4.4,10.6l-8.9,0.9c-0.7-4.2-2.6-8.3-5.9-11.5
		c-8-7.9-21-7.8-28.9,0.3c-7.9,8-7.8,21,0.3,28.9C50.4,431.9,59.6,433.2,67.1,429.7z M122.1,446.9c7.5,7.4,7.6,19.5,0.2,27
		c-7.4,7.5-19.5,7.6-27,0.2c-7.5-7.4-7.6-19.5-0.2-27c4.8-4.9,11.6-6.7,17.9-5.2l-3,7.7l0,0.2c-0.6,3.5-0.9,5.9-1.2,7.6
		c-0.8,0.1-1.7,0.4-2.3,1.1c-1.4,1.5-1.4,3.9,0,5.3c1.5,1.4,3.9,1.4,5.3,0c1.4-1.5,1.4-3.9,0-5.3c-0.4-0.4-0.9-0.7-1.4-0.9
		c0.3-2.1,0.7-4.8,1.2-7.4l3.1-7.8C117.4,443.3,119.9,444.8,122.1,446.9z M110.1,460.9c0-0.1,0-0.2,0-0.3c0.2,0.4,0.2,0.8-0.1,1.2
		c-0.4,0.4-1,0.4-1.3,0c-0.3-0.3-0.4-0.8-0.2-1.1c0,0.6,0,0.7,0.1,0.8c0,0.1,0.1,0.2,0.2,0.3c0.2,0.2,0.6,0.3,0.9,0.2
		C110,461.6,110.2,461.3,110.1,460.9z M108.6,459.3c-0.2,0.1-0.5,0.2-0.6,0.4c-0.7,0.7-0.7,1.9,0,2.7c0.7,0.7,1.9,0.7,2.7,0
		c0.7-0.7,0.7-1.9,0-2.7c-0.1-0.1-0.3-0.2-0.4-0.3c0-0.3,0.1-0.5,0.1-0.8c0.3,0.1,0.6,0.3,0.9,0.6c1.1,1.1,1.1,2.9,0,4
		c-1.1,1.1-2.9,1.1-4,0c-1.1-1.1-1.1-2.9,0-4c0.4-0.4,0.9-0.7,1.5-0.8C108.6,458.8,108.6,459.1,108.6,459.3z M89.7,392.4
		c-0.4-0.4-0.5-1.2,0-1.6c0.4-0.4,1.1-0.4,1.6,0l7.2,7.1c0.4,0.4,0.5,1.1,0,1.6c-0.4,0.4-1.1,0.5-1.6,0L89.7,392.4z M59,414.8
		c0.2-0.1,0.4-0.2,0.6-0.3l10.3,11.9c-0.9,0.7-1.8,1.2-2.7,1.7L59,414.8z M56.4,409.9c-0.8,0.8-0.8,2.1,0,2.8
		c0.1,0.1,0.3,0.2,0.4,0.3l0.6,1c-0.6-0.1-1.2-0.3-1.7-0.8c-1.1-1.1-1.1-2.9,0-3.9c1.1-1.1,2.9-1.1,4,0c0.2,0.2,0.4,0.5,0.5,0.7
		l-0.6,0.1l-0.2,0c0,0,0,0,0,0c-0.1-0.1-0.1-0.2-0.2-0.3C58.4,409.1,57.1,409.1,56.4,409.9z M59,413.8c-0.2,0.1-0.3,0.1-0.5,0.2
		l-0.4-0.7c0.1,0,0.3-0.1,0.4-0.1L59,413.8z M60.2,412.5c0,0.1-0.1,0.1-0.1,0.2l-0.5-0.6c0,0,0,0,0-0.1L60.2,412.5z M72.1,424.5
		c-0.3,0.3-0.6,0.6-0.9,0.8l-10.4-12c0.1-0.1,0.1-0.2,0.2-0.3l12.3,10.1C72.9,423.6,72.5,424.1,72.1,424.5z M74.4,424l2.8,2.3
		c-1.1-0.1-2.2,0.1-3.3,0.6l0,0c-0.2,0.1-0.4,0.2-0.5,0.3c-0.2,0.1-0.4,0.2-0.5,0.3c-0.2-0.3-0.4-0.5-0.5-0.6c0-0.1-0.1-0.1-0.1-0.1
		l-0.1-0.1l-0.2-0.2c0.3-0.3,0.7-0.6,1-0.9C73.5,425,74,424.5,74.4,424z M70,432.6l-2-3.3c1-0.5,2-1.1,2.9-1.8l0.8,1
		C70.6,429.6,70,431.1,70,432.6z M72.9,436.7c-2-2-2.1-5.1-0.3-7.2l1.5,1.7c0,0,0,0,0,0c-0.9,1.2-0.8,2.8,0.3,3.9
		c0.4,0.4,1,0.7,1.6,0.8l0,2.3C74.8,438,73.8,437.5,72.9,436.7z M75,432.2c0.1,0.1,0.2,0.3,0.4,0.4c0.2,0.2,0.3,0.4,0.5,0.5l0,0
		l0,1.2c-0.2-0.1-0.4-0.2-0.6-0.4C74.8,433.6,74.7,432.8,75,432.2z M77.3,442.3l0.1,3.2l-1.4,0l-0.1-3.2L77.3,442.3z M77,432.2
		c-0.1-0.1-0.3-0.3-0.4-0.4c-0.1-0.1-0.3-0.3-0.4-0.4c0,0,0,0,0,0c0.5-0.1,1,0.1,1.3,0.4c0.4,0.4,0.5,0.9,0.5,1.4
		c-0.1-0.1-0.1-0.1-0.2-0.2c-0.2-0.2-0.4-0.4-0.7-0.6L77,432.2z M77,434.4c-0.1,0-0.1,0.1-0.2,0.1l0-0.3l0,0l0,0L77,434.4z
		 M79,437.6c-0.7,0.3-1.4,0.5-2.1,0.6l-0.1-2.3c0.4-0.1,0.9-0.2,1.3-0.5c0.5,0.4,1.1,0.8,1.5,1.1c0,0,0.1,0.1,0.1,0.1c0,0,0,0,0,0
		c0.1,0,0.2,0.1,0.2,0.2c0,0,0.1,0.1,0.1,0.1C79.6,437.3,79,437.6,79,437.6z M82.4,436.2c0-0.1,0.1-0.2,0.1-0.2
		c0-0.1,0.1-0.1,0.1-0.1c0,0,0,0,0,0c0.5-1.1,0.7-2.3,0.7-3.4c4.5,3.8,9.4,2.2,9.5,2.1c0.8-0.2,7.1-2.9,9-3.7
		c5.3-2.5,14.3-4.7,17.8-5.5l-2.6,6.6c-2.1-0.4-8.7-1.1-15,1.6l-10.1,4.1C91.6,437.8,87.6,439.2,82.4,436.2
		C82.4,436.3,82.4,436.2,82.4,436.2z M81.2,435.6C81.2,435.6,81.1,435.6,81.2,435.6c-0.3-0.2-0.8-0.6-1.6-1.1
		c-0.2-0.1-0.3-0.2-0.5-0.4c0.5-1.1,0.3-2.4-0.6-3.3c-0.9-0.9-2.2-1.1-3.3-0.6c-0.2-0.3-0.5-0.6-0.7-0.9c-0.2-0.3-0.5-0.6-0.7-0.9
		c0.5-0.3,1.1-0.5,1.4-0.6l0,0c1.8-0.5,3.8-0.1,5.3,1.3C82.1,430.9,82.4,433.6,81.2,435.6z M78.9,409.7l8-0.9l-7.5,17.9l0,0.1
		c0,0-0.1,0-0.1-0.1l-4.3-3.4C77.9,419.3,79.2,414.4,78.9,409.7z M73.9,422.4l-12.6-10.1c0-0.1,0-0.2,0.1-0.3l0.1-0.5l0,0l0,0l0,0
		l16-1.7C77.8,414.2,76.6,418.7,73.9,422.4z M44.8,397.8c7.4-7.5,19.5-7.6,27-0.2c3,3,4.9,6.7,5.5,10.7l-16.1,1.7
		c-0.2-0.5-0.5-0.9-0.9-1.3c-1.5-1.4-3.9-1.4-5.3,0c-1.4,1.5-1.4,3.8,0.1,5.3c0.8,0.8,1.9,1.1,2.9,1.1l8.3,13.5
		c-7,3.2-15.5,1.9-21.3-3.7C37.6,417.4,37.5,405.3,44.8,397.8z"/>
	<path fill="#DD3E2B" d="M45.7,408.8c3.5-11.8,13.5-11.3,13.9-11.3c0.3,0,0.5-0.2,0.5-0.4c0-0.3-0.2-0.5-0.4-0.5
		c-0.1,0-11.2-0.6-14.9,12c-0.1,0.2,0,0.4,0.1,0.5c0,0,0.1,0.1,0.2,0.1C45.4,409.2,45.7,409.1,45.7,408.8z"/>
	<path fill="#DD3E2B" d="M47.5,389.5l-0.5,0.3l2,1.3l0.2-0.1c8.1-3.7,17.8-2,24.1,4.2c1.7,1.6,3.1,3.5,4.1,5.7l0.2,0.3l1.8-1
		l-0.1-0.3c-1.1-2.3-2.7-4.3-4.5-6.2C67.5,386.7,56.5,385,47.5,389.5z"/>
	<path fill="#DD3E2B" d="M118.2,471.2c0.2,0.2,0.5,0.2,0.7,0c8-8,2.8-17.4,2.8-17.5c-0.1-0.2-0.4-0.3-0.6-0.2
		c-0.2,0.1-0.3,0.4-0.2,0.6c0.2,0.4,4.9,8.9-2.6,16.4C118,470.7,118,471,118.2,471.2C118.2,471.2,118.2,471.2,118.2,471.2z"/>
	<path fill="#DD3E2B" d="M157.7,337.3c-0.3-0.1-0.5,0.1-0.6,0.3c-0.1,0.3,0.1,0.5,0.3,0.6c0.4,0.1,9.7,2.8,9.7,13.4
		c0,0.3,0.2,0.5,0.5,0.5c0,0,0,0,0,0c0.3,0,0.5-0.2,0.5-0.5C168.1,340.4,157.8,337.4,157.7,337.3z"/>
	<path fill="#DD3E2B" d="M82.1,330.2c2.4,0,4.7,0.3,6.9,1.1l0.3,0.1l0.6-2l-0.3-0.1c-2.4-0.8-4.9-1.2-7.5-1.2
		c-10.1,0.1-19.1,6.6-22.3,16.2l-0.2,0.5l2.3-0.4l0.1-0.2C65.2,335.9,73.2,330.3,82.1,330.2z"/>
	<path fill="#DD3E2B" d="M73.5,340.7c-0.1,0.1-8.3,7.5-2.1,19c0.1,0.2,0.2,0.3,0.4,0.3c0.1,0,0.1,0,0.2-0.1c0.2-0.1,0.3-0.4,0.2-0.6
		c-5.9-10.8,1.5-17.5,1.8-17.8c0.2-0.2,0.2-0.5,0-0.7C74,340.6,73.7,340.5,73.5,340.7z"/>
	<path fill="#DD3E2B" d="M153.3,330.8c-3.3,0-6.3,0.8-9.1,2.2l-0.6-1.3c2.8-1.4,5.9-2.1,9.2-2.2c0.7,0,1.4,0,2,0.1l0.3,0l0.6-2
		l-0.4-0.1c-0.8-0.1-1.6-0.1-2.5-0.1c-3.6,0-7,0.9-10.1,2.4l-5.8-13.2l-4.3-9.8l1.8-2.1c0,0,0,0,0.1,0c0.1-0.1,0.1-0.1,0.1-0.2l0,0
		l1-1.1c1.1-1.4,0.9-2.4,0.6-3c-1.5-2.7-9.4-2.1-11.7-1.9c-0.4,0-0.8,0.4-0.7,0.9c0,0.4,0.4,0.8,0.9,0.7c4.4-0.4,9.5-0.1,10.1,1
		c0.2,0.3-0.1,0.8-0.3,1.1c-1.5-1.3-5.8-1.5-7.7-1.5c-0.5,0-0.8,0.4-0.8,0.8c0,0.4,0.4,0.8,0.8,0.8c3.2,0,6.3,0.5,6.7,1
		c0,0,0,0.1-0.1,0.2l0,0l-2.6,2.9l4.6,10.4c-1.3,2-7.2,11.3-9.5,17.7c-1.5,3.9-3.3,8.2-3.6,8.8c-0.1,0.3-3.3,6.7-12.4,3.5l-7.5-18.5
		c0-0.1,0-0.1-0.1-0.2l-4.2-10.4l3.8,0c1.4,0,2.5-1.1,2.5-2.5c0-1.4-1.1-2.5-2.5-2.5l-10.2,0.1c-1.4,0-2.5,1.1-2.5,2.5
		c0,1.4,1.1,2.5,2.5,2.5l4.6,0l4.3,10.6l-5.6,6.9c-3.4-2.5-7.7-4-12.3-4c-11.3,0.1-20.4,9.4-20.3,20.6c0.1,11.3,9.4,20.4,20.6,20.3
		c8.8-0.1,16.2-5.7,19-13.4l5.9,1.4c0.9,0.5,2,0.8,3.2,0.8c1.6,0,3-0.6,4.2-1.5l1.4,1.3l-0.7,0.8l3.7,3.5l2.2-2.4l-3.7-3.5l-0.9,0.9
		l-1.3-1.3c0.7-0.7,1.2-1.6,1.5-2.6c0.3-0.6,0.3-1.3,0.3-1.9c0.1,0,0.2-0.1,0.2-0.1c0,0,0,0,0.1,0c0.1,0,0.1,0,0.2-0.1c0,0,0,0,0,0
		c6.3-2,8.3-6.3,8.4-6.6l4.2-10.1c2.2-5.6,6.8-9.5,8.7-10.8l1.7,3.8c-7.2,4.1-12.1,11.9-12,20.8c0,0.3,0,0.6,0,0.9l0,0.3l2.1,0
		l0-0.4c0-0.3,0-0.6,0-0.9c-0.1-8,4.2-15.1,10.7-18.9l0.6,1.3c-5.9,3.6-9.8,10.2-9.8,17.6c0.1,11.3,9.4,20.4,20.6,20.3
		c11.3-0.1,20.4-9.4,20.3-20.6C173.8,339.8,164.5,330.7,153.3,330.8z M91.8,316.6c-0.6,0-1.1-0.5-1.1-1.1c0-0.6,0.5-1.1,1.1-1.1
		l10.2-0.1c0.6,0,1.1,0.5,1.1,1.1c0,0.6-0.5,1.1-1.1,1.1L91.8,316.6z M118.3,360.6l2.3,2.2l-0.9,1l-2.3-2.2L118.3,360.6z
		 M111.1,349.1c2.5,0,4.6,1.7,5.2,4c0,0,0,0-0.1,0c-0.2,0-0.9,0.2-1.8,0.3c-0.2,0-0.4,0.1-0.6,0.1c-0.4-1.1-1.5-1.9-2.8-1.9
		c-1.3,0-2.3,0.8-2.7,1.9c-0.4,0-0.7-0.1-1.2-0.1c-0.4,0-0.8-0.1-1.2-0.1c0.1-0.6,0.4-1.1,0.5-1.4l0,0
		C107.4,350.2,109.1,349.1,111.1,349.1z M111.1,353.7l-0.2,0c-0.2,0-0.4,0-0.6,0c-0.2,0-0.4,0-0.6,0c0,0,0,0,0,0
		c0.3-0.4,0.7-0.6,1.3-0.6c0.5,0,1,0.2,1.3,0.6c-0.1,0-0.1,0-0.2,0C111.8,353.7,111.5,353.7,111.1,353.7z M111.7,356
		c-0.2,0.1-0.4,0.1-0.7,0.1c-0.7,0-1.3-0.4-1.5-1.1c0.2,0,0.3,0,0.5,0c0.2,0,0.5,0,0.7,0l0,0L111.7,356z M112.5,355.2
		c0,0.1-0.1,0.1-0.1,0.2l-0.2-0.2l0,0v0L112.5,355.2z M103.3,349.7l3.6-0.4c-0.8,0.7-1.5,1.7-1.9,2.7l0,0c-0.1,0.2-0.1,0.4-0.2,0.6
		c-0.1,0.2-0.1,0.4-0.1,0.6c-0.3,0-0.6-0.1-0.7-0.1c-0.1,0-0.1,0-0.1,0l-0.1,0l-0.2,0c0-0.4,0-0.9,0-1.3
		C103.4,351,103.4,350.4,103.3,349.7z M95.5,337.5c3.3,2.9,5.6,6.9,6.3,11.5l-16,1.7c0-0.1-0.1-0.2-0.2-0.2l-0.3-0.4l0,0l0,0l0.1,0
		L95.5,337.5z M83.1,371c-10.5,0.1-19.2-8.4-19.3-18.9c-0.1-10.5,8.4-19.2,18.9-19.3c4.3,0,8.2,1.3,11.4,3.7L84,349.1
		c-0.5-0.2-1-0.3-1.6-0.3c-2.1,0-3.7,1.7-3.7,3.8c0,2.1,1.7,3.7,3.8,3.7c1.1,0,2.1-0.5,2.8-1.3l15.4,3.7
		C98.1,365.8,91.2,370.9,83.1,371z M82.6,354.4c0.2,0,0.3,0,0.5-0.1l1.2,0.3c-0.5,0.4-1.1,0.6-1.7,0.6c-1.5,0-2.8-1.2-2.8-2.8
		c0-1.5,1.2-2.8,2.8-2.8c0.3,0,0.6,0,0.9,0.1l-0.4,0.5l-0.1,0.1c0,0,0,0,0,0c-0.1,0-0.2,0-0.3,0c-1.1,0-2,0.9-2,2
		C80.6,353.6,81.5,354.5,82.6,354.4z M84.1,353.7c0.1-0.1,0.1-0.2,0.2-0.3l0.8,0.1c-0.1,0.2-0.1,0.3-0.2,0.5L84.1,353.7z
		 M84.4,351.7C84.4,351.7,84.4,351.6,84.4,351.7l0.7-0.1c0,0.1,0,0.1,0.1,0.2L84.4,351.7z M101.1,357.7l-15.2-3.6
		c0.1-0.2,0.2-0.4,0.2-0.6l15.7,1.1C101.7,355.6,101.5,356.7,101.1,357.7z M102,352.9l-15.8-1.1c0-0.1,0-0.2-0.1-0.4l15.8-1.6
		c0.1,0.6,0.1,1.2,0.1,1.9C102,352.1,102,352.5,102,352.9z M96.3,336.4l5-6.2l7.3,18l0.1,0c0,0-0.1,0-0.1,0l-5.5,0.6
		C102.4,343.9,99.9,339.6,96.3,336.4z M102.5,358c0.3-1.1,0.6-2.2,0.7-3.3l1.3,0.1c0.1,1.6,0.7,3,1.7,4.1L102.5,358z M111.2,359.7
		c-2.8,0-5.1-2.1-5.3-4.9l2.2,0.2c0,0,0,0,0,0c0.2,1.4,1.5,2.5,2.9,2.5c0.6,0,1.2-0.2,1.7-0.5l1.7,1.6
		C113.5,359.3,112.4,359.7,111.2,359.7z M116.2,356.1c-0.2,0.7-0.6,1.4-1.1,1.9l-1.7-1.6c0.3-0.4,0.5-0.8,0.5-1.3
		c0.7-0.1,1.3-0.2,1.9-0.3c0.1,0,0.1,0,0.2,0c0,0,0,0,0,0c0.1,0,0.2,0,0.3-0.1c0.1,0,0.1,0,0.1,0
		C116.4,355.4,116.2,356.1,116.2,356.1z M129.5,337l-4.2,10c-0.1,0.2-1.9,4-7.7,5.7c0,0,0-0.1,0-0.1c0-0.1-0.1-0.2-0.1-0.2
		c0-0.1,0-0.1,0-0.1c0,0,0-0.1,0-0.1c-0.4-1.1-1.1-2.1-2-2.9c5.9-0.4,8.2-5.2,8.2-5.2c0.5-0.7,3-7,3.7-9c2-5.5,6.8-13.4,8.7-16.5
		l2.9,6.5C137.3,326.5,132,330.6,129.5,337z M153.6,370.3c-10.5,0.1-19.2-8.4-19.3-18.9c-0.1-6.9,3.5-12.9,9-16.4l3.3,7.6l0.1,0.1
		c2.1,2.9,3.5,4.8,4.5,6.2c-0.5,0.6-0.9,1.5-0.8,2.4c0,2.1,1.7,3.7,3.8,3.7c2.1,0,3.7-1.7,3.7-3.8c0-2.1-1.7-3.7-3.8-3.7
		c-0.6,0-1.1,0.1-1.6,0.4c-1.3-1.7-2.9-3.9-4.4-6.1l-3.4-7.7c2.6-1.3,5.4-2.1,8.5-2.1c10.5-0.1,19.2,8.4,19.3,18.9
		C172.6,361.6,164.2,370.2,153.6,370.3z M154.2,353.1c1,0,1.9-0.9,1.9-1.9c0-1-0.9-1.9-1.9-1.9c-0.2,0-0.3,0-0.5,0.1
		c-0.2-0.2-0.3-0.4-0.5-0.7c0.3-0.1,0.7-0.2,1-0.2c1.5,0,2.8,1.2,2.8,2.8c0,1.5-1.2,2.8-2.8,2.8c-1.5,0-2.8-1.2-2.8-2.8
		c0-0.6,0.2-1.2,0.5-1.6c0.2,0.3,0.4,0.5,0.6,0.7c-0.1,0.2-0.2,0.5-0.2,0.7C152.3,352.3,153.1,353.1,154.2,353.1z M154.6,350.5
		c-0.1,0-0.1-0.1-0.2-0.2c0.4,0.1,0.7,0.5,0.7,0.9c0,0.5-0.4,0.9-0.9,0.9c-0.4,0-0.8-0.3-0.9-0.7c0.4,0.4,0.5,0.5,0.6,0.5
		c0.1,0,0.2,0.1,0.3,0.1c0.3,0,0.6-0.2,0.7-0.5C155.1,351.2,154.9,350.7,154.6,350.5z"/>
	<path fill="#DD3E2B" d="M103,230.9c0.4-0.2,8.9-4.9,16.4,2.6c0.2,0.2,0.5,0.2,0.7,0c0,0,0,0,0,0c0.2-0.2,0.2-0.5,0-0.7
		c-8-8-17.4-2.8-17.5-2.8c-0.2,0.1-0.3,0.4-0.2,0.6C102.4,230.9,102.7,231,103,230.9z"/>
	<path fill="#DD3E2B" d="M44,278.4c1.6-1.7,3.5-3.1,5.7-4.1l0.3-0.2l-1-1.8l-0.3,0.1c-2.3,1.1-4.3,2.7-6.2,4.5
		c-7.1,7.2-8.8,18.2-4.3,27.2l0.3,0.5l1.3-2l-0.1-0.2C36.1,294.5,37.8,284.8,44,278.4z"/>
	<path fill="#DD3E2B" d="M57.6,305.9c-11.8-3.5-11.3-13.5-11.3-13.9c0-0.3-0.2-0.5-0.4-0.5c-0.3,0-0.5,0.2-0.5,0.4
		c0,0.1-0.6,11.2,12,14.9c0.2,0.1,0.4,0,0.5-0.1c0,0,0.1-0.1,0.1-0.2C58,306.3,57.9,306,57.6,305.9z"/>
	<path fill="#DD3E2B" d="M94.7,228.5c-2.3,2.3-3.9,5.1-4.8,8l-1.3-0.5c1-3,2.7-5.7,5-8.1c0.5-0.5,1-0.9,1.5-1.3l0.2-0.2l-1-1.9
		l-0.3,0.3c-0.6,0.5-1.2,1.1-1.9,1.7c-2.5,2.6-4.3,5.6-5.4,8.8L73.2,230l-9.9-3.9l-0.2-2.8c0,0,0,0,0-0.1c0-0.1,0-0.2,0-0.2l0,0
		l-0.1-1.5c-0.2-1.7-1-2.3-1.7-2.5c-2.9-0.8-8.1,5.1-9.6,7c-0.3,0.3-0.2,0.9,0.1,1.1c0.3,0.3,0.9,0.2,1.1-0.1
		c2.8-3.4,6.6-6.8,7.9-6.4c0.3,0.1,0.5,0.6,0.5,1c-2,0.2-5.1,3.1-6.5,4.4c-0.4,0.3-0.3,0.8,0,1.2c0.3,0.3,0.8,0.3,1.2,0
		c2.2-2.2,4.9-4.1,5.4-4c0,0,0,0.1,0,0.2l0,0l0.2,3.9l10.6,4.1c0.5,2.3,2.9,13,5.8,19.2c1.6,3.8,3.5,8.1,3.6,8.8
		c0.1,0.3,2.4,7.1-6.2,11.2l-18.4-7.7c0,0-0.1,0-0.2-0.1l-10.4-4.4l2.7-2.7c1-1,0.9-2.6,0-3.5c-1-1-2.5-0.9-3.5,0l-7.1,7.2
		c-1,1-0.9,2.6,0,3.5c1,1,2.6,0.9,3.5,0l3.2-3.2l10.6,4.4l0.9,8.9c-4.2,0.7-8.3,2.6-11.5,5.9c-7.9,8-7.8,21,0.3,28.9
		c8,7.9,21,7.8,28.9-0.3c6.1-6.2,7.4-15.4,3.9-22.9l5.2-3.2c1-0.3,2-0.9,2.8-1.7c1.1-1.1,1.7-2.6,1.9-4l1.9,0l0,1.1l5.1-0.1
		l-0.1-3.3l-5.1,0.1l0,1.2l-1.8,0c0-1-0.3-2-0.8-2.9c-0.2-0.6-0.7-1.1-1.2-1.6c0-0.1,0.1-0.2,0.1-0.2c0,0,0,0,0,0
		c0.1-0.1,0.1-0.1,0.1-0.2c0,0,0,0,0,0c3.1-5.8,1.4-10.3,1.3-10.6l-4.1-10.1c-2.4-5.5-1.9-11.5-1.5-13.8l3.9,1.5
		c-2.2,8-0.1,17,6.3,23.2c0.2,0.2,0.4,0.4,0.7,0.6l0.2,0.2l1.5-1.5l-0.3-0.2c-0.2-0.2-0.4-0.4-0.6-0.6c-5.7-5.6-7.7-13.7-5.8-21
		l1.3,0.5c-1.6,6.8,0.3,14.2,5.6,19.4c8,7.9,21,7.8,28.9-0.3c7.9-8,7.8-21-0.3-28.9C115.6,220.4,102.6,220.5,94.7,228.5z M41.2,262
		c-0.4,0.4-1.1,0.5-1.6,0c-0.4-0.4-0.4-1.1,0-1.6l7.1-7.2c0.4-0.4,1.1-0.5,1.6,0c0.4,0.4,0.5,1.1,0,1.6L41.2,262z M94.3,274.3l0,1.4
		l-3.2,0.1l0-1.4L94.3,274.3z M77.9,271.3c1.8-1.8,4.5-2.1,6.5-0.8c0,0,0,0-0.1,0.1c-0.1,0.2-0.5,0.7-1.1,1.5
		c-0.1,0.2-0.2,0.3-0.4,0.5c-1.1-0.5-2.4-0.3-3.3,0.6c-0.9,0.9-1.1,2.2-0.6,3.3c-0.3,0.2-0.6,0.5-0.9,0.7c-0.3,0.2-0.6,0.5-0.9,0.7
		c-0.3-0.5-0.5-1.1-0.6-1.4l0,0C76,274.7,76.5,272.7,77.9,271.3z M81.4,276.3c0.2-0.2,0.4-0.3,0.5-0.5l0,0l1.2,0
		c-0.1,0.2-0.2,0.4-0.4,0.6c-0.5,0.5-1.2,0.6-1.8,0.3C81.2,276.6,81.3,276.4,81.4,276.3z M81,274.6c-0.1,0.1-0.3,0.3-0.4,0.4
		c-0.1,0.1-0.3,0.3-0.4,0.4c0,0,0,0,0,0c-0.1-0.5,0.1-1,0.4-1.3c0.4-0.4,0.9-0.5,1.4-0.5c-0.1,0.1-0.1,0.1-0.2,0.2
		c-0.2,0.2-0.4,0.4-0.6,0.7L81,274.6z M83,274.8L83,274.8L83,274.8l0.2-0.2c0,0.1,0.1,0.1,0.1,0.2L83,274.8z M75.9,278.3
		c0.1,0.2,0.2,0.4,0.3,0.5c-0.3,0.2-0.5,0.4-0.6,0.5c-0.1,0-0.1,0.1-0.1,0.1l-0.1,0.1l-0.2,0.2c-0.3-0.3-0.6-0.7-0.9-1
		c-0.5-0.5-1-0.9-1.5-1.3l2.3-2.8c-0.1,1.1,0.1,2.2,0.6,3.3l0,0C75.7,277.9,75.8,278.1,75.9,278.3z M61.1,290.3
		c-0.1,0-0.2,0-0.3-0.1l-0.5-0.1l0,0l0,0l0,0l-1.7-16c4.4-0.3,8.9,0.9,12.6,3.6L61.1,290.3z M61.4,291.5l-0.6,0.5c0,0,0,0-0.1,0
		l0.5-0.6C61.3,291.4,61.4,291.4,61.4,291.5z M58.9,292l0,0.2c0,0,0,0,0,0c-0.1,0.1-0.2,0.1-0.3,0.2c-0.8,0.8-0.8,2.1,0,2.8
		c0.8,0.8,2.1,0.8,2.8,0c0.1-0.1,0.2-0.3,0.3-0.4l1-0.6c-0.1,0.6-0.3,1.2-0.8,1.7c-1.1,1.1-2.9,1.1-3.9,0c-1.1-1.1-1.1-2.9,0-4
		c0.2-0.2,0.5-0.4,0.7-0.5L58.9,292z M61.9,293.2l0.6-0.5c0.1,0.2,0.1,0.3,0.2,0.5l-0.7,0.4C62,293.5,62,293.3,61.9,293.2z
		 M62.2,290.8c-0.1-0.1-0.2-0.1-0.3-0.2l10.1-12.3c0.5,0.4,1,0.8,1.4,1.3c0.3,0.3,0.6,0.6,0.8,0.9L62.2,290.8z M75.2,281.7
		c0.7,0.9,1.2,1.8,1.7,2.7l-13.3,8.2c-0.1-0.2-0.2-0.4-0.3-0.6L75.2,281.7z M75.5,272.4L75.5,272.4
		C75.6,272.3,75.5,272.4,75.5,272.4l-3.4,4.4c-4-3-8.9-4.3-13.6-3.9l-0.9-8L75.5,272.4z M73.6,306.6c-7.4,7.5-19.5,7.6-27,0.2
		c-7.5-7.4-7.6-19.5-0.2-27c3-3,6.7-4.9,10.7-5.5l1.7,16.1c-0.5,0.2-0.9,0.5-1.3,0.9c-1.4,1.5-1.4,3.9,0,5.3
		c1.5,1.4,3.8,1.4,5.3-0.1c0.8-0.8,1.1-1.9,1.1-2.9l13.5-8.3C80.5,292.3,79.2,300.8,73.6,306.6z M78.1,283.7c-0.5-1-1.1-2-1.8-2.9
		l1-0.8c1.2,1.1,2.7,1.6,4.2,1.7L78.1,283.7z M85.5,278.7c-2,2-5.1,2.1-7.2,0.3l1.7-1.5c0,0,0,0,0,0c1.2,0.9,2.8,0.8,3.9-0.3
		c0.4-0.4,0.7-1,0.8-1.6l2.3,0C86.8,276.8,86.3,277.9,85.5,278.7z M86.4,272.6c0.3,0.7,0.5,1.4,0.6,2.1l-2.3,0.1
		c-0.1-0.4-0.2-0.9-0.5-1.3c0.4-0.5,0.8-1.1,1.1-1.5c0,0,0.1-0.1,0.1-0.1c0,0,0,0,0,0c0-0.1,0.1-0.2,0.2-0.2c0,0,0.1-0.1,0.1-0.1
		C86.1,272,86.4,272.6,86.4,272.6z M82.3,249.7l4.1,10.1c0.1,0.2,1.5,4.2-1.4,9.5c0,0-0.1,0-0.1,0c-0.1,0-0.2-0.1-0.2-0.1
		c-0.1,0-0.1-0.1-0.1-0.1c0,0,0,0,0,0c-1.1-0.5-2.3-0.7-3.4-0.7c3.8-4.5,2.2-9.4,2.1-9.5c-0.2-0.8-2.9-7.1-3.7-9
		c-2.5-5.3-4.7-14.3-5.5-17.8l6.6,2.6C80.4,236.8,79.6,243.4,82.3,249.7z M122.7,229.3c7.5,7.4,7.6,19.5,0.2,27
		c-7.4,7.5-19.5,7.6-27,0.2c-4.9-4.8-6.7-11.6-5.2-17.9l7.7,3l0.2,0c3.5,0.6,5.9,0.9,7.6,1.2c0.1,0.8,0.4,1.7,1.1,2.3
		c1.5,1.4,3.9,1.4,5.3,0c1.4-1.5,1.4-3.9,0-5.3c-1.5-1.4-3.9-1.4-5.3,0c-0.4,0.4-0.7,0.9-0.9,1.4c-2.1-0.3-4.8-0.7-7.4-1.2l-7.8-3.1
		c0.9-2.7,2.4-5.3,4.5-7.5C103.1,222,115.2,221.9,122.7,229.3z M110.6,242c-0.2-0.4-0.6-0.6-0.9-0.5c-0.1,0-0.2,0-0.3,0
		c0.4-0.2,0.8-0.2,1.2,0.1c0.4,0.4,0.4,1,0,1.3c-0.3,0.3-0.8,0.4-1.1,0.2c0.6,0,0.7,0,0.8-0.1c0.1,0,0.2-0.1,0.3-0.2
		C110.7,242.7,110.7,242.3,110.6,242z M111.2,243.7c0.7-0.7,0.7-1.9,0-2.7c-0.7-0.7-1.9-0.7-2.7,0c-0.1,0.1-0.2,0.3-0.3,0.4
		c-0.3,0-0.5-0.1-0.8-0.1c0.1-0.3,0.3-0.6,0.6-0.9c1.1-1.1,2.9-1.1,4,0c1.1,1.1,1.1,2.9,0,4c-1.1,1.1-2.9,1.1-4,0
		c-0.4-0.4-0.7-0.9-0.8-1.5c0.3,0,0.7,0.1,0.9,0.1c0.1,0.2,0.2,0.5,0.4,0.6C109.3,244.4,110.5,244.4,111.2,243.7z"/>
	<path fill="#DD3E2B" d="M2.5,196.8c0-1.6-1.1-3-2.6-3.5v1c1,0.4,1.6,1.4,1.6,2.5c0,1.1-0.7,2.1-1.6,2.6v1
		C1.4,199.9,2.5,198.5,2.5,196.8z"/>
	<path fill="#DD3E2B" d="M0.5,196.8c0-0.5-0.2-1-0.6-1.4v2.7C0.3,197.9,0.5,197.4,0.5,196.8z"/>
	<polygon fill="#DD3E2B" points="0.1,221.6 0,219.5 -0.1,219.5 -0.1,221.6 	"/>
	<path fill="#DD3E2B" d="M17.7,197.4c0.1,10.1-7.8,18.5-17.8,19.2v1.4c10.7-0.7,19.3-9.7,19.2-20.6c-0.1-10.8-8.6-19.5-19.2-20.2
		v1.4C9.7,179.2,17.6,187.4,17.7,197.4z"/>
	<path fill="#DD3E2B" d="M0.1,233.4C0.1,233.4,0.1,233.4,0.1,233.4c-0.1,0-0.2,0.1-0.2,0.1v1.4c0.2-0.1,0.4-0.1,0.6-0.2
		c0,0,0,0,0,0.1c0,0.2,0.2,0.9,0.3,1.8c0,0.2,0.1,0.4,0.1,0.6c-0.4,0.1-0.7,0.4-1,0.6v4.2c0.3,0.3,0.6,0.5,1,0.7
		c0,0.4-0.1,0.7-0.1,1.2c0,0.4-0.1,0.8-0.1,1.2c-0.3-0.1-0.5-0.2-0.8-0.3v1.4c0,0,0.1,0,0.1,0c0.2,0.1,0.4,0.1,0.6,0.1
		c0,0.3-0.1,0.6-0.1,0.7c0,0.1,0,0.1,0,0.1l0,0.1l0,0.2c-0.2,0-0.3,0-0.5,0v1.4c0.1,0,0.3,0,0.4,0l-0.4,5.6v15.8
		c1.1,0,1.9-0.9,1.9-2c0-0.2,0-0.3-0.1-0.5l0.3-1.2c0.4,0.5,0.6,1.1,0.6,1.7c0,1.5-1.2,2.8-2.8,2.8c0,0,0,0,0,0v1c0,0,0,0,0,0
		c2.1,0,3.7-1.7,3.7-3.8c0-1.1-0.5-2.1-1.3-2.8L6,250.2c7.2,2.7,12.3,9.6,12.4,17.7c0.1,10.4-8.2,18.9-18.5,19.2v1.4
		c11.1-0.3,19.9-9.5,19.8-20.6c-0.1-8.8-5.7-16.2-13.4-19l1.4-5.9c0.5-0.9,0.8-2,0.8-3.2c0-1.6-0.6-3-1.5-4.2l1.3-1.4L9,235l3.5-3.7
		l-2.4-2.2l-3.5,3.7l0.9,0.9l-1.3,1.3c-0.7-0.7-1.6-1.2-2.6-1.5c-0.6-0.3-1.3-0.3-1.9-0.3c0-0.1-0.1-0.2-0.1-0.2c0,0,0,0,0-0.1
		c0-0.1,0-0.1-0.1-0.2c0,0,0,0,0,0c-0.5-1.5-1.1-2.7-1.7-3.8v3.8C0,233,0.1,233.2,0.1,233.4z M10.2,230.4l1,0.9L9,233.7l-1-0.9
		L10.2,230.4z M1,266.9c-0.1-0.1-0.2-0.1-0.3-0.2l0.1-0.8c0.2,0.1,0.3,0.1,0.5,0.2L1,266.9z M7.1,239.8c0,2.8-2.1,5.1-4.9,5.3
		l0.2-2.2c0,0,0,0,0,0c1.4-0.2,2.5-1.4,2.5-2.9c0-0.6-0.2-1.2-0.5-1.7l1.6-1.7C6.7,237.5,7.1,238.6,7.1,239.8z M2.6,238.8L2.6,238.8
		l0-0.3c0.1,0,0.1,0.1,0.2,0.1L2.6,238.8L2.6,238.8z M2.6,240.2l0.8-0.9c0.1,0.2,0.1,0.4,0.1,0.7c0,0.7-0.4,1.3-1.1,1.5
		c0-0.2,0-0.3,0-0.5C2.5,240.7,2.5,240.5,2.6,240.2L2.6,240.2z M3.4,234.8c0.7,0.2,1.4,0.6,1.9,1.1l-1.6,1.7
		c-0.4-0.3-0.8-0.5-1.3-0.5c-0.1-0.7-0.2-1.3-0.3-1.9c0-0.1,0-0.1,0-0.2c0,0,0,0,0,0c0-0.1,0-0.2-0.1-0.3c0-0.1,0-0.1,0-0.1
		C2.8,234.6,3.4,234.8,3.4,234.8z M2.1,246.5c1.6-0.1,3-0.7,4.1-1.7l-0.9,3.8c-1.1-0.3-2.2-0.6-3.3-0.7L2.1,246.5z M1.9,249.2
		c1.1,0.1,2.1,0.4,3.1,0.7l-3.6,15.2C1.2,265,1,265,0.8,264.9L1.9,249.2z M1,239c0,0.3,0,0.6,0,0.9l0,0.2c0,0.2,0,0.4,0,0.6
		c0,0.2,0,0.4,0,0.6c0,0,0,0,0,0c-0.4-0.3-0.6-0.7-0.6-1.3c0-0.5,0.2-1,0.6-1.3C1,238.8,1,238.9,1,239z"/>
	<path fill="#DD3E2B" d="M7.1,279.6c0.2-0.1,0.3-0.2,0.3-0.4c0-0.1,0-0.1-0.1-0.2c-0.1-0.2-0.4-0.3-0.6-0.2c-2.5,1.3-4.7,2-6.7,2.2
		v0.9C2.1,281.6,4.4,281,7.1,279.6z"/>
	<path fill="#DD3E2B" d="M4.8,146.1c3.8,0.2,5.5-2.8,5.5-2.9c0.1-0.2,0-0.5-0.2-0.6c-0.1,0-0.2-0.1-0.2-0.1c-0.2,0-0.3,0.1-0.4,0.2
		c0,0-1.5,2.6-4.6,2.5c-0.2,0-0.5,0.2-0.5,0.4C4.3,145.9,4.5,146.1,4.8,146.1z"/>
	<path fill="#DD3E2B" d="M9,155.1c0.1-0.2,0-0.5-0.2-0.6c-0.1,0-0.1,0-0.2,0c-0.2,0-0.4,0.1-0.4,0.3c0,0-1.5,3.2-5.5,2.6
		c-0.3,0-0.5,0.1-0.5,0.4c0,0.3,0.1,0.5,0.4,0.5C7.2,159,9,155.1,9,155.1z"/>
	<path fill="#DD3E2B" d="M6.2,118.3c-0.1,0-0.2,0-0.3,0c-1.2,0-3.2,0.4-6.1,1.9v1.1c3.8-2,5.9-2.1,6.7-2l2.6,7.8l0.5,1.6l1.3,3.9
		l0,0l-11,0.1v1.4l10.6-0.1c0.2,0.2,0.4,0.4,0.5,0.6c1.6,2,2.2,4.7,1.4,7.3c-0.3,1.1-0.9,2-1.6,2.9c-0.3,0.3-0.6,0.7-1,0.9
		c-0.7,0.6-1.5,1-2.4,1.3c-0.5,0.2-1,0.3-1.5,0.4c-1.1,0.2-2.2,0.1-3.3-0.3c0,0-0.1,0-0.1,0c-0.4-0.1-0.8-0.3-1.1-0.5
		c-0.2-0.1-0.5-0.2-0.7-0.4c-0.2-0.1-0.4-0.3-0.6-0.4v1.6c0.2,0.1,0.4,0.3,0.7,0.4c-0.2,0.3-0.4,0.6-0.7,0.9v2
		c0.8-0.7,1.4-1.5,1.9-2.4c0,0,0.1,0,0.1,0c1.6,0.5,3.3,0.6,4.8,0.2c0.4-0.1,0.9-0.2,1.3-0.4c0.5-0.2,0.9-0.4,1.4-0.7
		c0.4-0.2,0.7-0.5,1-0.7c0.9,1.4,1.4,3,1.3,4.7c0,4.8-3.9,8.7-8.7,8.6c-1.2,0-2.3-0.2-3.3-0.7v1.5c1,0.4,2.1,0.6,3.3,0.6
		c5.5,0,10.1-4.4,10.1-10c0-2.1-0.6-4-1.7-5.6c0.9-1,1.7-2.2,2.1-3.5c0.9-3,0.3-6.1-1.4-8.4c0.2,0,0.3-0.1,0.5-0.3
		c0.1-0.2,0.2-0.4,0.1-0.6l-1.2-3.6l-0.6-1.8L0.3,95c-0.1-0.2-0.2-0.3-0.4-0.4V99L6.2,118.3z"/>
	<path fill="#DD3E2B" d="M148.4,209.2c-0.2-0.2-0.5-0.2-0.7,0c-0.2,0.2-0.2,0.5,0,0.7c2.5,2.8,5.8,1.9,6,1.8
		c0.3-0.1,0.4-0.3,0.3-0.6c0-0.1-0.1-0.1-0.1-0.2c-0.1-0.1-0.3-0.2-0.5-0.1C153.4,210.7,150.5,211.6,148.4,209.2z"/>
	<path fill="#DD3E2B" d="M144.5,218.3c-0.1-0.1-0.3-0.2-0.5-0.1c0,0-3.3,1.2-5.7-2c-0.2-0.2-0.5-0.3-0.7-0.1
		c-0.2,0.2-0.3,0.5-0.1,0.7c2.9,3.8,6.8,2.4,6.8,2.4c0.2-0.1,0.4-0.4,0.3-0.6C144.6,218.4,144.5,218.4,144.5,218.3z"/>
	<path fill="#DD3E2B" d="M180.4,169.6c-0.3-0.3-0.6-0.3-0.9-0.2l-33,17.4l-1.6,0.8l-0.9,0.5c-0.2,0.1-0.3,0.3-0.3,0.5
		c0,0.1,0,0.2,0.1,0.3c-3.3-0.7-6.8,0.1-9.5,2.6c-4.2,3.9-4.4,10.6-0.4,14.8c0.2,0.2,0.4,0.4,0.6,0.6c-2.6,3.9-2.2,9.2,1.2,12.6
		c3.9,3.9,10.3,4,14.2,0.1c1.5-1.5,2.4-3.3,2.8-5.2c1.3,0,2.7-0.4,4-1c2.8-1.4,4.5-4.1,4.9-6.9c0.2,0.1,0.3,0.1,0.5,0.1
		c0.2,0,0.4-0.1,0.5-0.4l1.7-3.4l0.9-1.7l15.5-30.7C180.8,170.2,180.7,169.8,180.4,169.6z M135.3,192.6c2.6-2.5,6.3-3.1,9.4-1.9
		c0.5,0.2,0.9,0.4,1.3,0.6l4.8,4.7c-0.2,0-0.5,0.1-0.7,0.1c-0.7,0.2-1.4,0.4-2.1,0.8c-2.3,1.2-3.9,3.2-4.6,5.5
		c-0.1,0.4-0.3,0.9-0.3,1.4c-0.1,0.6-0.1,1.2-0.1,1.8c0,0.1,0,0.1,0,0.2c-0.6,0.2-3.4,0.6-6.2-1.6c-0.2-0.2-0.5-0.1-0.7,0.1
		c-0.2,0.2-0.1,0.5,0.1,0.7c3,2.4,6,2,6.9,1.8c0,0.1,0,0.2,0,0.2c0.1,0.4,0.2,0.7,0.3,1c-2.2,0.5-4.5,0.2-6.5-1
		c-0.2-0.1-0.5-0.3-0.7-0.4c-0.2-0.1-0.4-0.3-0.6-0.4c-0.2-0.1-0.3-0.3-0.5-0.4c-0.1-0.1-0.3-0.3-0.4-0.4
		C131.5,201.8,131.6,196,135.3,192.6z M148.9,218.6c-3.4,3.4-8.9,3.3-12.3-0.1c-2.9-2.9-3.3-7.5-1.1-10.8c0.1,0.1,0.2,0.1,0.3,0.2
		c0.1,0.1,0.3,0.2,0.4,0.3c2.4,1.4,5.1,1.8,7.8,1.1c0,0,0,0.1,0.1,0.1c0.8,1.5,1.9,2.7,3.3,3.6c0.4,0.3,0.8,0.5,1.2,0.7
		c0.5,0.2,0.9,0.4,1.4,0.5c0.4,0.1,0.8,0.2,1.2,0.2C150.9,215.9,150.1,217.4,148.9,218.6z M160.2,206c-0.3,2.5-1.8,4.9-4.2,6.2
		c-1,0.5-2.1,0.8-3.2,0.9c-0.4,0-0.9,0-1.4,0c-0.9-0.1-1.8-0.4-2.6-0.8c-0.5-0.2-0.9-0.5-1.3-0.8c-0.9-0.6-1.6-1.5-2.2-2.6
		c0,0,0-0.1-0.1-0.1c-0.2-0.4-0.3-0.8-0.5-1.2c-0.1-0.2-0.2-0.5-0.2-0.8c-0.1-0.4-0.2-0.9-0.2-1.4c0-0.3,0-0.6,0-0.9
		c0-0.5,0.1-1,0.2-1.5c0.5-2.1,1.9-4,4-5c0.7-0.4,1.4-0.6,2.1-0.7c0.4-0.1,0.9-0.2,1.3-0.1l8.2,8C160.3,205.5,160.3,205.8,160.2,206
		z M164.2,199.4l-0.8,1.5l-1.8,3.7l0,0l-9.4-9.2c0,0,0,0,0,0l-6.4-6.3l1-0.5l1.4-0.7l1.6-0.8c13.7,0.7,17.4,4.1,18.2,5.1
		L164.2,199.4z M168.4,191.2c0-0.1-0.1-0.1-0.2-0.2c-1.5-1.5-5.7-4.1-16.8-4.9l26.7-14.2L168.4,191.2z"/>
	<path fill="#DD3E2B" d="M207.1,360.6c0,0-2.6-1.5-2.5-4.6c0-0.2-0.2-0.5-0.4-0.5c-0.3,0-0.5,0.2-0.5,0.4c-0.2,3.8,2.8,5.5,2.9,5.5
		c0.2,0.1,0.5,0,0.6-0.2c0-0.1,0.1-0.2,0.1-0.2C207.4,360.8,207.3,360.7,207.1,360.6z"/>
	<path fill="#DD3E2B" d="M188.4,354.2c0,5.5,4.4,10.1,10,10.1c2.1,0,4-0.6,5.6-1.7c1,0.9,2.2,1.7,3.5,2.1c3,0.9,6.1,0.3,8.4-1.4
		c0,0.2,0.1,0.3,0.3,0.5c0.2,0.1,0.4,0.2,0.6,0.1l3.6-1.2l1.8-0.6l32.7-10.7c0.3-0.1,0.5-0.4,0.5-0.8c0-0.4-0.2-0.7-0.5-0.8
		l-35.7-11l-1.7-0.5l-0.9-0.3c-0.2-0.1-0.4,0-0.6,0.1c-0.1,0.1-0.1,0.2-0.2,0.3c-1.8-2.8-4.9-4.8-8.5-4.9
		c-5.8-0.2-10.6,4.4-10.8,10.1c0,0.3,0,0.5,0,0.8C191.8,345.4,188.4,349.4,188.4,354.2z M252,350.6l-20.5,6.7c0-0.1,0-0.2,0-0.3
		c0-2.1-1.2-6.9-8.5-15.4L252,350.6z M218,340.2l1.5,0.5l1.7,0.5c9.2,10.2,9.4,15.2,9.2,16.5l-7.8,2.6l-1.6,0.5l-3.9,1.3l0,0
		l-0.1-13.2c0,0,0,0,0,0l-0.1-9L218,340.2z M215.7,350.1l0.1,11.5c-0.2,0.2-0.4,0.4-0.6,0.5c-2,1.6-4.7,2.2-7.3,1.4
		c-1.1-0.3-2-0.9-2.9-1.6c-0.3-0.3-0.7-0.6-0.9-1c-0.6-0.7-1-1.5-1.3-2.4c-0.2-0.5-0.3-1-0.4-1.5c-0.2-1.1-0.1-2.2,0.3-3.3
		c0,0,0-0.1,0-0.1c0.1-0.4,0.3-0.8,0.5-1.1c0.1-0.2,0.2-0.5,0.4-0.7c0.2-0.4,0.5-0.8,0.8-1.1c0.2-0.2,0.4-0.4,0.6-0.6
		c0.4-0.3,0.8-0.6,1.2-0.9c1.9-1.1,4.2-1.4,6.4-0.7c0.7,0.2,1.4,0.6,2,1C215.1,349.5,215.4,349.8,215.7,350.1z M197.8,343.7
		c0.1-5,4.3-9,9.4-8.8c3.6,0.1,6.6,2.3,8,5.3c0.2,0.5,0.4,0.9,0.5,1.4l0.1,6.7c-0.2-0.1-0.4-0.3-0.6-0.4c-0.6-0.4-1.3-0.7-2-0.9
		c-2.5-0.8-5-0.5-7.1,0.6c-0.4,0.2-0.8,0.5-1.2,0.7c-0.5,0.4-1,0.8-1.4,1.2c0,0-0.1,0.1-0.1,0.1c-0.5-0.3-2.8-2-3.2-5.5
		c0-0.3-0.3-0.4-0.5-0.4c-0.3,0-0.5,0.3-0.4,0.5c0.4,3.8,2.8,5.7,3.6,6.2c-0.1,0.1-0.1,0.1-0.1,0.2c-0.2,0.3-0.4,0.6-0.5,0.9
		c-1.9-1.2-3.3-3.1-3.9-5.3c-0.1-0.2-0.1-0.5-0.2-0.8c-0.1-0.2-0.1-0.5-0.1-0.7c0-0.2-0.1-0.4-0.1-0.7
		C197.8,344.1,197.8,343.9,197.8,343.7z M196.6,345.8c0,0.1,0,0.2,0.1,0.4c0,0.2,0.1,0.3,0.1,0.5c0.7,2.6,2.4,4.9,4.7,6.3
		c0,0,0,0.1,0,0.1c-0.5,1.6-0.6,3.3-0.2,4.8c0.1,0.4,0.2,0.9,0.4,1.3c0.2,0.5,0.4,0.9,0.7,1.4c0.2,0.4,0.5,0.7,0.7,1
		c-1.4,0.9-3,1.4-4.7,1.3c-4.8,0-8.7-3.9-8.6-8.7C189.7,350.1,192.7,346.7,196.6,345.8z"/>
	<path fill="#DD3E2B" d="M194.7,360.1c0.2,0.1,0.5,0,0.6-0.2c0-0.1,0-0.1,0-0.2c0-0.2-0.1-0.4-0.3-0.4c0,0-3.2-1.5-2.6-5.5
		c0-0.3-0.1-0.5-0.4-0.5c-0.3,0-0.5,0.1-0.5,0.4C190.9,358.3,194.7,360.1,194.7,360.1z"/>
	<path fill="#DD3E2B" d="M133.1,488.6c-3.8,2.9-2.4,6.8-2.4,6.8c0.1,0.2,0.4,0.4,0.6,0.3c0.1,0,0.1-0.1,0.2-0.1
		c0.1-0.1,0.2-0.3,0.1-0.5c0,0-1.2-3.3,2-5.7c0.2-0.2,0.3-0.5,0.1-0.7C133.6,488.5,133.3,488.4,133.1,488.6z"/>
	<path fill="#DD3E2B" d="M180.3,531.5c0.3-0.3,0.3-0.6,0.2-0.9l-17.4-33l-0.8-1.6l-0.5-0.9c-0.1-0.2-0.3-0.3-0.5-0.3
		c-0.1,0-0.2,0-0.3,0.1c0.7-3.3-0.1-6.8-2.6-9.5c-3.9-4.2-10.6-4.4-14.8-0.4c-0.2,0.2-0.4,0.4-0.6,0.6c-3.9-2.6-9.2-2.2-12.6,1.2
		c-3.9,3.9-4,10.3-0.1,14.2c1.5,1.5,3.3,2.4,5.2,2.8c0,1.3,0.4,2.7,1,4c1.4,2.8,4.1,4.5,6.9,4.9c-0.1,0.2-0.1,0.3-0.1,0.5
		c0,0.2,0.1,0.4,0.3,0.5l3.4,1.7l1.7,0.9l30.7,15.5C179.6,531.9,180,531.8,180.3,531.5z M143.2,487.5c0.1-0.2,0.3-0.4,0.4-0.6
		c0.1-0.2,0.3-0.3,0.4-0.5c0.1-0.1,0.3-0.3,0.4-0.4c3.6-3.4,9.4-3.3,12.8,0.4c2.5,2.6,3.1,6.3,1.9,9.4c-0.2,0.5-0.4,0.9-0.6,1.3
		l-4.7,4.8c0-0.2-0.1-0.5-0.1-0.7c-0.2-0.7-0.4-1.4-0.8-2.1c-1.2-2.3-3.2-3.9-5.5-4.6c-0.4-0.1-0.9-0.3-1.4-0.3
		c-0.6-0.1-1.2-0.1-1.8-0.1c-0.1,0-0.1,0-0.2,0c-0.2-0.6-0.6-3.4,1.6-6.2c0.2-0.2,0.1-0.5-0.1-0.7c-0.2-0.2-0.5-0.1-0.7,0.1
		c-2.4,3-2,6-1.8,6.9c-0.1,0-0.2,0-0.2,0c-0.4,0.1-0.7,0.1-1,0.3c-0.5-2.2-0.2-4.5,1-6.5C142.9,487.9,143,487.7,143.2,487.5z
		 M136.2,499.7c-0.2,0.5-0.4,0.9-0.5,1.4c-0.1,0.4-0.2,0.8-0.2,1.2c-1.6-0.3-3.1-1.1-4.3-2.4c-3.4-3.4-3.3-8.9,0.1-12.3
		c2.9-2.9,7.5-3.3,10.8-1.1c-0.1,0.1-0.1,0.2-0.2,0.3c-0.1,0.1-0.2,0.3-0.3,0.4c-1.4,2.4-1.8,5.1-1.1,7.8c0,0-0.1,0-0.1,0.1
		c-1.5,0.8-2.7,1.9-3.6,3.3C136.6,498.8,136.4,499.2,136.2,499.7z M143.8,511.3c-2.5-0.3-4.9-1.8-6.2-4.2c-0.5-1-0.8-2.1-0.9-3.2
		c0-0.4,0-0.9,0-1.4c0.1-0.9,0.4-1.8,0.8-2.6c0.2-0.5,0.5-0.9,0.8-1.3c0.6-0.9,1.5-1.6,2.6-2.2c0,0,0.1,0,0.1-0.1
		c0.4-0.2,0.8-0.3,1.2-0.5c0.2-0.1,0.5-0.2,0.8-0.2c0.4-0.1,0.9-0.2,1.4-0.2c0.3,0,0.6,0,0.9,0c0.5,0,1,0.1,1.5,0.2
		c2.1,0.5,4,1.9,5,4c0.4,0.7,0.6,1.4,0.7,2.1c0.1,0.4,0.2,0.9,0.1,1.3l-8,8.2C144.3,511.4,144.1,511.3,143.8,511.3z M157.7,519
		l-7.3-3.7l-1.5-0.8l-3.7-1.8l0,0l9.2-9.4c0,0,0,0,0,0l6.3-6.4l0.5,1l0.7,1.4l0.8,1.6C162.1,514.5,158.8,518.2,157.7,519z
		 M158.6,519.5c0.1,0,0.1-0.1,0.2-0.2c1.5-1.5,4.1-5.7,4.9-16.8l14.2,26.7L158.6,519.5z"/>
	<path fill="#DD3E2B" d="M140,498.8c-2.8,2.5-1.9,5.8-1.8,6c0.1,0.3,0.3,0.4,0.6,0.3c0.1,0,0.1-0.1,0.2-0.1c0.1-0.1,0.2-0.3,0.1-0.5
		c0,0-0.8-2.9,1.5-5c0.2-0.2,0.2-0.5,0-0.7C140.5,498.6,140.2,498.6,140,498.8z"/>
	<path fill="#DD3E2B" d="M84.4,173.5c-0.2-0.1-0.4,0-0.5,0.1c0,0-2.6,2.4-6.1,0.3c-0.2-0.1-0.5-0.1-0.7,0.2
		c-0.1,0.2-0.1,0.5,0.2,0.7c4.1,2.5,7.2-0.4,7.2-0.4c0.2-0.2,0.2-0.5,0-0.7C84.5,173.6,84.5,173.5,84.4,173.5z"/>
	<path fill="#DD3E2B" d="M99.4,114.8c-0.3-0.1-0.7-0.1-0.9,0.2l-24,28.6l-1.1,1.4l-0.6,0.8c-0.1,0.2-0.2,0.4-0.1,0.6
		c0,0.1,0.1,0.2,0.2,0.3c-3.3,0.6-6.3,2.7-7.8,6c-2.4,5.2-0.1,11.5,5.1,13.8c0.2,0.1,0.5,0.2,0.7,0.3c-1,4.6,1.4,9.4,5.9,11.2
		c5.1,2.2,11-0.2,13.2-5.3c0.8-1.9,1-3.9,0.6-5.8c1.2-0.5,2.4-1.4,3.3-2.4c2-2.4,2.7-5.5,1.9-8.3c0.2,0,0.4,0,0.5-0.1
		c0.2-0.1,0.3-0.3,0.3-0.5l0.3-3.8l0.2-1.9l2.8-34.3C100,115.2,99.7,114.9,99.4,114.8z M71.2,165.4c-0.2-0.1-0.4-0.2-0.5-0.2
		c-4.6-2.1-6.6-7.5-4.5-12c1.5-3.3,4.7-5.2,8-5.3c0.5,0,1,0,1.5,0.1l6.2,2.5c-0.2,0.1-0.4,0.2-0.6,0.4c-0.6,0.4-1.1,0.9-1.6,1.5
		c-1.7,2-2.4,4.4-2.2,6.8c0,0.5,0.1,0.9,0.2,1.4c0.1,0.6,0.3,1.2,0.6,1.7c0,0.1,0,0.1,0.1,0.2c-0.5,0.4-2.9,1.8-6.4,0.8
		c-0.2-0.1-0.5,0.1-0.6,0.3c-0.1,0.2,0.1,0.5,0.3,0.6c3.7,1.1,6.3-0.4,7.1-0.9c0,0.1,0.1,0.2,0.1,0.2c0.2,0.3,0.4,0.6,0.6,0.9
		c-1.8,1.3-4.1,1.9-6.4,1.6c-0.3,0-0.5-0.1-0.8-0.1c-0.2,0-0.5-0.1-0.7-0.2C71.6,165.5,71.4,165.4,71.2,165.4z M88.6,172.1
		c-1.9,4.4-7,6.4-11.4,4.6c-3.8-1.6-5.9-5.7-5.1-9.6c0.1,0,0.2,0.1,0.4,0.1c0.2,0,0.3,0.1,0.5,0.1c2.7,0.4,5.4-0.3,7.6-1.9
		c0,0,0.1,0.1,0.1,0.1c1.3,1.1,2.8,1.8,4.4,2.1c0.4,0.1,0.9,0.1,1.4,0.1c0.5,0,1,0,1.5-0.1c0.4,0,0.8-0.1,1.2-0.3
		C89.5,168.8,89.3,170.5,88.6,172.1z M92.8,163.5c-0.7,0.9-1.6,1.5-2.6,2c-0.4,0.2-0.8,0.4-1.3,0.5c-0.9,0.2-1.8,0.3-2.7,0.3
		c-0.5,0-1-0.1-1.5-0.3c-1-0.3-2.1-0.8-3-1.5c0,0-0.1,0-0.1-0.1c-0.3-0.3-0.6-0.6-0.9-0.9c-0.2-0.2-0.3-0.4-0.5-0.6
		c-0.3-0.4-0.5-0.8-0.7-1.2c-0.1-0.3-0.2-0.5-0.3-0.8c-0.2-0.5-0.3-1-0.3-1.5c-0.3-2.1,0.3-4.4,1.8-6.2c0.5-0.6,1.1-1.1,1.7-1.4
		c0.4-0.2,0.8-0.5,1.2-0.6l10.6,4.4c0.1,0.2,0.2,0.5,0.2,0.7C95.1,158.6,94.5,161.4,92.8,163.5z M95.6,148.6l-0.2,1.7l-0.3,4.1l0,0
		l-12.2-5c0,0,0,0,0,0l-8.3-3.4l0.7-0.8l1-1.2l1.2-1.4c13-4.5,17.6-2.8,18.8-2.1L95.6,148.6z M96.3,139.4c-0.1,0-0.1-0.1-0.2-0.1
		c-2-0.8-6.8-1.6-17.4,1.8l19.4-23.2L96.3,139.4z"/>
	<path fill="#DD3E2B" d="M90.3,163c-0.2-0.1-0.3,0-0.5,0.1c0,0-2.4,1.9-5.2,0.5c-0.2-0.1-0.5,0-0.6,0.2c-0.1,0.2,0,0.5,0.2,0.6
		c3.4,1.6,6.1-0.5,6.2-0.6c0.2-0.2,0.2-0.5,0.1-0.7C90.5,163.1,90.4,163,90.3,163z"/>
	<path fill="#DD3E2B" d="M179.7,270.1c0.1,0.3,0.2,0.5,0.3,0.7c-3.9,2.6-5.6,7.6-3.8,12.1c2.1,5.1,7.9,7.6,13,5.6
		c1.9-0.8,3.5-2.1,4.5-3.7c1.3,0.5,2.6,0.7,4.1,0.6c3.1-0.2,5.7-2,7.2-4.5c0.1,0.2,0.3,0.3,0.4,0.3c0.2,0.1,0.4,0,0.6-0.1l2.9-2.4
		l1.5-1.3l26.2-22.2c0.3-0.2,0.3-0.6,0.2-0.9c-0.1-0.3-0.5-0.6-0.8-0.5l-37.2,3.2l-1.8,0.2l-1,0.1c-0.2,0-0.4,0.2-0.5,0.4
		c0,0.1-0.1,0.2-0.1,0.3c-2.7-1.9-6.4-2.6-9.7-1.3C180.5,258.6,177.7,264.7,179.7,270.1z M188.8,287.2c-4.4,1.8-9.5-0.4-11.3-4.8
		c-1.5-3.8-0.1-8.2,3.2-10.4c0.1,0.1,0.1,0.2,0.2,0.3c0.1,0.1,0.2,0.3,0.3,0.4c1.6,2.2,4.1,3.6,6.7,4c0,0,0,0.1,0,0.1
		c0.1,1.7,0.7,3.2,1.6,4.5c0.2,0.4,0.5,0.7,0.9,1.1c0.3,0.4,0.7,0.7,1.1,1c0.3,0.3,0.7,0.5,1.1,0.7
		C191.7,285.5,190.4,286.6,188.8,287.2z M204.1,280c-1.2,2.2-3.6,3.8-6.3,4c-1.1,0.1-2.2-0.1-3.3-0.4c-0.4-0.1-0.8-0.3-1.2-0.5
		c-0.8-0.4-1.5-1-2.1-1.7c-0.4-0.4-0.6-0.8-0.9-1.3c-0.5-0.9-0.9-2-1-3.2c0,0,0-0.1,0-0.1c0-0.4,0-0.8,0-1.2c0-0.3,0-0.5,0.1-0.8
		c0.1-0.5,0.2-0.9,0.3-1.3c0.1-0.3,0.2-0.5,0.4-0.8c0.2-0.4,0.5-0.9,0.8-1.3c1.3-1.7,3.3-2.9,5.7-3.1c0.8-0.1,1.5,0,2.2,0.1
		c0.4,0.1,0.9,0.2,1.3,0.4l4.4,10.6C204.3,279.6,204.2,279.8,204.1,280z M233.8,255.6l-16.4,13.9c0-0.1-0.1-0.2-0.1-0.2
		c-0.8-2-3.7-6-13.6-11L233.8,255.6z M198.4,258.7l1.6-0.1l1.8-0.2c12.3,6,14.4,10.5,14.7,11.8l-6.3,5.3l-1.3,1.1l-3.1,2.7l0,0
		l-5.1-12.1c0,0,0,0,0,0l-3.5-8.3L198.4,258.7z M186.3,257.9c3.4-1.3,7-0.4,9.4,1.9c0.4,0.3,0.7,0.7,1,1.1l2.6,6.2
		c-0.2-0.1-0.5-0.1-0.7-0.1c-0.7-0.1-1.4-0.2-2.2-0.1c-2.6,0.2-4.8,1.4-6.4,3.3c-0.3,0.4-0.6,0.7-0.8,1.1c-0.3,0.5-0.6,1.1-0.8,1.6
		c0,0.1,0,0.1-0.1,0.2c-0.6-0.1-3.3-0.8-5.1-3.9c-0.1-0.2-0.4-0.3-0.7-0.2c-0.2,0.1-0.3,0.4-0.2,0.6c1.9,3.4,4.7,4.2,5.7,4.4
		c0,0.1,0,0.2-0.1,0.2c-0.1,0.4-0.1,0.7-0.2,1.1c-2.2-0.4-4.2-1.6-5.6-3.4c-0.2-0.2-0.3-0.4-0.4-0.6c-0.1-0.2-0.3-0.4-0.4-0.6
		c-0.1-0.2-0.2-0.4-0.3-0.6c-0.1-0.2-0.2-0.4-0.2-0.5C179.3,264.9,181.6,259.7,186.3,257.9z"/>
	<path fill="#DD3E2B" d="M196,281.7c0,0-3-0.4-4-3.4c-0.1-0.2-0.4-0.4-0.6-0.3c-0.2,0.1-0.4,0.4-0.3,0.6c1.2,3.6,4.7,4,4.8,4
		c0.3,0,0.5-0.2,0.5-0.4c0-0.1,0-0.2,0-0.2C196.3,281.9,196.2,281.7,196,281.7z"/>
	<path fill="#DD3E2B" d="M184.4,285c0,0-3.5-0.2-4.5-4.1c-0.1-0.3-0.3-0.4-0.6-0.3c-0.3,0.1-0.4,0.3-0.3,0.6
		c1.1,4.6,5.3,4.8,5.4,4.8c0.3,0,0.5-0.2,0.5-0.5c0-0.1,0-0.1,0-0.2C184.7,285.1,184.6,285,184.4,285z"/>
	<path fill="#DD3E2B" d="M176.4,428.7c0.1-0.2,0.1-0.5-0.2-0.7c-0.2-0.1-0.5-0.1-0.7,0.2c-2.5,4.1,0.4,7.2,0.4,7.2
		c0.2,0.2,0.5,0.2,0.7,0c0.1,0,0.1-0.1,0.1-0.2c0.1-0.2,0-0.4-0.1-0.5C176.6,434.7,174.3,432.1,176.4,428.7z"/>
	<path fill="#DD3E2B" d="M194.2,446.5c0,0.2,0,0.4,0.1,0.5c0.1,0.2,0.3,0.3,0.5,0.3l3.8,0.3l1.9,0.2l34.3,2.8c0.3,0,0.6-0.2,0.8-0.5
		c0.1-0.3,0.1-0.7-0.2-0.9l-28.6-24l-1.4-1.1l-0.8-0.6c-0.2-0.1-0.4-0.2-0.6-0.1c-0.1,0-0.2,0.1-0.3,0.2c-0.6-3.3-2.7-6.3-6-7.8
		c-5.2-2.4-11.5-0.1-13.8,5.1c-0.1,0.2-0.2,0.5-0.3,0.7c-4.6-1-9.4,1.4-11.2,5.9c-2.2,5.1,0.2,11,5.3,13.2c1.9,0.8,3.9,1,5.8,0.6
		c0.5,1.2,1.4,2.4,2.4,3.3C188.3,446.6,191.3,447.3,194.2,446.5z M232.4,448.9l-21.5-1.8c0-0.1,0.1-0.1,0.1-0.2
		c0.8-2,1.6-6.8-1.8-17.4L232.4,448.9z M204.4,425.4l0.8,0.7l1.2,1l1.4,1.2c4.5,13,2.8,17.6,2.1,18.8l-8.2-0.7l-1.7-0.2l-4.1-0.3
		l0,0l5-12.2c0,0,0,0,0,0L204.4,425.4z M184.4,424.1c0-0.3,0.1-0.5,0.1-0.8c0-0.2,0.1-0.5,0.2-0.7c0.1-0.2,0.1-0.4,0.2-0.6
		c0.1-0.2,0.2-0.4,0.2-0.5c2.1-4.6,7.5-6.6,12-4.5c3.3,1.5,5.2,4.7,5.3,8c0,0.5,0,1-0.1,1.5l-2.5,6.2c-0.1-0.2-0.2-0.4-0.4-0.6
		c-0.4-0.6-0.9-1.1-1.5-1.6c-2-1.7-4.4-2.4-6.8-2.2c-0.5,0-0.9,0.1-1.4,0.2c-0.6,0.1-1.2,0.3-1.7,0.6c-0.1,0-0.1,0-0.2,0.1
		c-0.4-0.5-1.8-2.9-0.8-6.4c0.1-0.2-0.1-0.5-0.3-0.6c-0.2-0.1-0.5,0.1-0.6,0.3c-1.1,3.7,0.4,6.3,0.9,7.1c-0.1,0-0.2,0.1-0.2,0.1
		c-0.3,0.2-0.6,0.4-0.9,0.6C184.7,428.6,184.1,426.3,184.4,424.1z M182.7,438.8c0,0.4,0.1,0.8,0.3,1.2c-1.6,0.3-3.3,0.1-4.8-0.6
		c-4.4-1.9-6.4-7-4.6-11.4c1.6-3.8,5.7-5.9,9.6-5.1c0,0.1-0.1,0.2-0.1,0.4c0,0.2-0.1,0.3-0.1,0.5c-0.4,2.7,0.3,5.4,1.9,7.6
		c0,0-0.1,0.1-0.1,0.1c-1.1,1.3-1.8,2.8-2.1,4.4c-0.1,0.4-0.1,0.9-0.1,1.4C182.6,437.8,182.7,438.3,182.7,438.8z M184.8,441
		c-0.2-0.4-0.4-0.8-0.5-1.3c-0.2-0.9-0.3-1.8-0.3-2.7c0-0.5,0.1-1,0.3-1.5c0.3-1,0.8-2.1,1.5-3c0,0,0-0.1,0.1-0.1
		c0.3-0.3,0.6-0.6,0.9-0.9c0.2-0.2,0.4-0.3,0.6-0.5c0.4-0.3,0.8-0.5,1.2-0.7c0.3-0.1,0.5-0.2,0.8-0.3c0.5-0.2,1-0.3,1.5-0.3
		c2.1-0.3,4.4,0.3,6.2,1.8c0.6,0.5,1.1,1.1,1.4,1.7c0.2,0.4,0.5,0.8,0.6,1.2l-4.4,10.6c-0.2,0.1-0.5,0.2-0.7,0.2
		c-2.5,0.7-5.2,0.2-7.3-1.6C185.9,442.8,185.2,441.9,184.8,441z"/>
	<path fill="#DD3E2B" d="M186.7,435.4c0.1-0.2,0-0.5-0.2-0.6c-0.2-0.1-0.5,0-0.6,0.2c-1.6,3.4,0.5,6.1,0.6,6.2
		c0.2,0.2,0.5,0.2,0.7,0.1c0.1-0.1,0.1-0.1,0.1-0.2c0.1-0.2,0-0.3-0.1-0.5C187.2,440.6,185.3,438.3,186.7,435.4z"/>
	<path fill="#DD3E2B" d="M72.2,542.2c-0.1-0.2-0.4-0.4-0.6-0.3c-3.6,1.2-4,4.7-4,4.8c0,0.3,0.2,0.5,0.4,0.5c0.1,0,0.2,0,0.2,0
		c0.2-0.1,0.3-0.2,0.3-0.4c0,0,0.4-3,3.4-4C72.1,542.7,72.3,542.4,72.2,542.2z"/>
	<path fill="#DD3E2B" d="M69,556.3c-0.1,0.2,0,0.4,0.1,0.6l2.4,2.9l1.3,1.5L95,587.5c0.2,0.3,0.6,0.3,0.9,0.2
		c0.3-0.1,0.6-0.5,0.5-0.8l-3.2-37.2l-0.2-1.8l-0.1-1c0-0.2-0.2-0.4-0.4-0.5c-0.1,0-0.2-0.1-0.3-0.1c1.9-2.7,2.6-6.4,1.3-9.7
		c-2-5.4-8-8.2-13.4-6.1c-0.3,0.1-0.5,0.2-0.7,0.3c-2.6-3.9-7.6-5.6-12.1-3.8c-5.1,2.1-7.6,7.9-5.6,13c0.8,1.9,2.1,3.5,3.7,4.5
		c-0.5,1.3-0.7,2.6-0.6,4.1c0.2,3.1,2,5.7,4.5,7.2C69.2,556,69.1,556.2,69,556.3z M74.8,561.1l-1.1-1.3l-2.7-3.1l0,0l12.1-5.1
		c0,0,0,0,0,0l8.3-3.5l0.1,1.1l0.1,1.6l0.2,1.8c-6,12.3-10.5,14.4-11.8,14.7L74.8,561.1z M94.7,584.6l-13.9-16.4
		c0.1,0,0.2-0.1,0.2-0.1c2-0.8,6-3.7,11-13.6L94.7,584.6z M78.9,532.7c0.2-0.1,0.4-0.3,0.6-0.4c0.2-0.1,0.4-0.2,0.6-0.3
		c0.2-0.1,0.4-0.2,0.5-0.2c4.7-1.7,9.9,0.6,11.7,5.3c1.3,3.4,0.4,7-1.9,9.4c-0.3,0.4-0.7,0.7-1.1,1l-6.2,2.6
		c0.1-0.2,0.1-0.5,0.1-0.7c0.1-0.7,0.2-1.4,0.1-2.2c-0.2-2.6-1.4-4.8-3.3-6.4c-0.4-0.3-0.7-0.6-1.1-0.8c-0.5-0.3-1.1-0.6-1.6-0.8
		c-0.1,0-0.1,0-0.2-0.1c0.1-0.6,0.8-3.3,3.9-5.1c0.2-0.1,0.3-0.4,0.2-0.7c-0.1-0.2-0.4-0.3-0.6-0.2c-3.4,1.9-4.2,4.7-4.4,5.7
		c-0.1,0-0.2,0-0.2-0.1c-0.4-0.1-0.7-0.1-1.1-0.2c0.4-2.2,1.6-4.2,3.4-5.6C78.5,533,78.7,532.8,78.9,532.7z M63,539.6
		c-1.8-4.4,0.4-9.5,4.8-11.3c3.8-1.5,8.2-0.1,10.4,3.2c-0.1,0.1-0.2,0.1-0.3,0.2c-0.1,0.1-0.3,0.2-0.4,0.3c-2.2,1.6-3.6,4.1-4,6.7
		c0,0-0.1,0-0.1,0c-1.7,0.1-3.2,0.7-4.5,1.6c-0.4,0.2-0.7,0.5-1.1,0.9c-0.4,0.3-0.7,0.7-1,1.1c-0.3,0.3-0.5,0.7-0.7,1.1
		C64.7,542.5,63.7,541.2,63,539.6z M66.2,548.6c-0.1-1.1,0.1-2.2,0.4-3.3c0.1-0.4,0.3-0.8,0.5-1.2c0.4-0.8,1-1.5,1.7-2.1
		c0.4-0.4,0.8-0.6,1.3-0.9c0.9-0.5,2-0.9,3.2-1c0,0,0.1,0,0.1,0c0.4,0,0.8,0,1.2,0c0.3,0,0.5,0,0.8,0.1c0.5,0.1,0.9,0.2,1.3,0.3
		c0.3,0.1,0.5,0.2,0.8,0.4c0.4,0.2,0.9,0.5,1.3,0.8c1.7,1.3,2.9,3.3,3.1,5.7c0.1,0.8,0,1.5-0.1,2.2c-0.1,0.4-0.2,0.9-0.4,1.3
		l-10.6,4.4c-0.2-0.1-0.5-0.2-0.7-0.4C68,553.6,66.4,551.3,66.2,548.6z"/>
	<path fill="#DD3E2B" d="M69.8,530.1c-0.1-0.3-0.3-0.4-0.6-0.3c-4.6,1.1-4.8,5.3-4.8,5.4c0,0.3,0.2,0.5,0.5,0.5c0.1,0,0.1,0,0.2,0
		c0.2-0.1,0.3-0.2,0.3-0.4c0,0,0.2-3.5,4.1-4.5C69.7,530.6,69.8,530.4,69.8,530.1z"/>
	<path fill="#DD3E2B" d="M5.6,74.7c0.7,0.4,1.4,0.5,2.2,0.5c0.4,0,0.8-0.1,1.3-0.2c4.7-1.3,9.1-9,9.3-9.3l0,0L49.5,18
		c0.1-0.2,0.1-0.5,0-0.7c-0.1-0.2-0.3-0.4-0.6-0.4c-0.2,0-21.7-0.6-33.2-12.3c-0.2-0.2-0.4-0.3-0.7-0.2c-0.2,0.1-0.4,0.3-0.5,0.5
		L3.5,58.5l-0.1,0.4l0.1,0l-0.1,0.4c0,0,0,0,0,0.1c-1.9,6.5-2,11.1-0.2,13.6C4,74.3,5.2,74.6,5.6,74.7z M15.6,6.4
		C26.2,16.3,43,18,47.7,18.2L21.8,57.9l2.6-5.9c1.2-3,1.3-5.6,0.3-7.8c-1.3-2.8-4-3.8-4.1-3.9c-2.7-1.4-5.2-1.7-7.4-0.8
		C10,41,8.9,44.8,8.8,44.9l-2.5,6.3L15.6,6.4z M10.1,45.4c0-0.1,1-3.4,3.7-4.6c1.7-0.8,3.9-0.5,6.3,0.8c0.1,0,2.3,0.9,3.4,3.2
		c0.8,1.8,0.7,4.1-0.3,6.7l-5.5,12.4c-3-4.7-9.4-5.2-12.2-5.2c-0.2,0-0.4,0-0.6,0L10.1,45.4z M4.5,60.1c0.2,0,0.6,0,1,0
		c2.7,0,9.1,0.5,11.5,5.3c-0.7,1.3-4.6,7.4-8.3,8.4c-0.9,0.3-1.7,0.2-2.5-0.3c-0.1-0.1-0.2-0.1-0.3-0.1c0,0-1-0.1-1.7-1.2
		C3.2,70.6,2.4,67.3,4.5,60.1z"/>
	<path fill="#DD3E2B" d="M18.2,45.8c0.1,0,1.1,0.3,1.7,1.4c0.5,1.1,0.3,2.5-0.6,4.4c-0.1,0.2,0,0.5,0.2,0.6c0.1,0,0.1,0,0.2,0
		c0.2,0,0.3-0.1,0.4-0.3c1-2.1,1.2-3.9,0.6-5.2c-0.7-1.5-2.2-1.9-2.3-1.9c-0.3-0.1-0.5,0.1-0.6,0.4C17.8,45.5,18,45.8,18.2,45.8z"/>
	<path fill="#DD3E2B" d="M20.5,36c0.1,0,0.2,0.1,0.3,0.1c0.3,0,0.5-0.2,0.6-0.4l7.5-16.6c0.2-0.3,0-0.7-0.3-0.9
		c-0.3-0.2-0.7,0-0.9,0.3l-7.5,16.6C20,35.5,20.1,35.9,20.5,36z"/>
	<path fill="#DD3E2B" d="M25.4,40.6c0.1,0.1,0.3,0.1,0.4,0.1c0.2,0,0.4-0.1,0.6-0.3l12.4-18.1c0.2-0.3,0.1-0.7-0.2-0.9
		c-0.3-0.2-0.7-0.1-0.9,0.2L25.2,39.7C25,40,25.1,40.4,25.4,40.6z"/>
	<path fill="#DD3E2B" d="M14.3,36.7c0.1,0,0.1,0,0.2,0c0.3,0,0.6-0.2,0.7-0.5L20,14.9c0.1-0.4-0.1-0.7-0.5-0.8
		c-0.4-0.1-0.7,0.1-0.8,0.5l-4.9,21.3C13.7,36.2,13.9,36.6,14.3,36.7z"/>
	<path fill="#DD3E2B" d="M235.6,139.8c0.2,0.2,0.6,0.3,0.8,0.1l18.6-11.6c0.3-0.2,0.4-0.6,0.2-0.9c-0.2-0.3-0.6-0.4-0.9-0.2
		l-18.6,11.6c-0.3,0.2-0.4,0.6-0.2,0.9C235.5,139.7,235.6,139.8,235.6,139.8z"/>
	<path fill="#DD3E2B" d="M212.1,147.6L212.1,147.6l-0.3,0.3c0,0,0,0,0,0c-5.9,3.2-9.2,6.4-9.8,9.5c-0.3,1.6,0.3,2.6,0.5,3
		c0.2,0.7,0.6,1.4,1.1,1.9c0.3,0.3,0.6,0.5,1,0.8c4.2,2.4,12.8,0.1,13.2,0l0,0l55.8-11.7c0.2-0.1,0.4-0.2,0.5-0.5
		c0.1-0.2,0-0.5-0.2-0.7c-0.1-0.1-14.9-15.7-14.8-32.2c0-0.3-0.1-0.5-0.4-0.6c-0.2-0.1-0.5-0.1-0.7,0l-45.8,30.1L212.1,147.6z
		 M257.9,119.3c0.5,14.5,11.2,27.6,14.3,31l-46.4,9.8l6-2.3c3-1.3,4.9-3.1,5.7-5.3c1.1-2.9-0.1-5.5-0.1-5.6c-0.9-3-2.5-4.9-4.6-5.8
		c-3.4-1.3-6.8,0.6-7,0.6l-6.2,2.7L257.9,119.3z M226.4,142.9c0.1-0.1,3.1-1.7,5.9-0.6c1.8,0.7,3.1,2.4,3.9,5c0,0.1,1,2.3,0.1,4.7
		c-0.7,1.9-2.4,3.4-5,4.5l-12.7,4.9c1.2-5.4-3-10.4-5-12.3c-0.2-0.2-0.3-0.3-0.4-0.4L226.4,142.9z M217.1,161.9
		c-1.4,0.4-8.5,2-11.8,0c-0.8-0.5-1.3-1.1-1.6-2c0-0.1-0.1-0.2-0.1-0.3c0,0-0.6-0.8-0.3-2.1c0.4-1.8,2.2-4.6,8.7-8.3
		c0.2,0.2,0.4,0.4,0.7,0.7C214.7,151.9,218.9,156.8,217.1,161.9z"/>
	<path fill="#DD3E2B" d="M192.4,151.4c0.5,0.5,1.2,0.9,1.9,1.1c0.4,0.2,1.4,0.8,3,0.5c3-0.6,6.2-4,9.3-9.9c0,0,0,0,0,0l0.2-0.3
		l0.1,0l0.1-0.4L236.3,96c0.1-0.2,0.1-0.5,0-0.7c-0.1-0.2-0.4-0.4-0.6-0.3c-16.5,0.4-32.3-14-32.5-14.2c-0.2-0.2-0.4-0.2-0.7-0.1
		c-0.2,0.1-0.4,0.3-0.5,0.5l-10.7,56l0,0c-0.1,0.4-2.2,9,0.3,13.2C191.9,150.7,192.1,151.1,192.4,151.4z M203.2,82.6
		c3.5,3,16.8,13.5,31.3,13.7L210.1,135l2.6-6.2c0.1-0.2,1.9-3.7,0.5-7c-0.9-2.1-2.9-3.7-5.9-4.5c-0.1,0-2.7-1.2-5.6,0
		c-2.2,0.9-4,2.8-5.2,5.8l-2.2,6.1L203.2,82.6z M197.8,123.5c1.1-2.6,2.6-4.3,4.4-5.1c2.4-0.9,4.6,0,4.7,0c2.6,0.8,4.4,2,5.1,3.8
		c1.2,2.7-0.4,5.8-0.5,5.9l-5.5,13.3c-0.1-0.1-0.3-0.3-0.4-0.4c-2-2-7-6.1-12.4-4.7L197.8,123.5z M192.6,137.9
		c5.1-1.9,10.1,2.3,12,4.1c0.3,0.3,0.5,0.5,0.7,0.7c-3.5,6.6-6.4,8.5-8.1,8.9c-1.3,0.3-2.1-0.3-2.1-0.3c-0.1-0.1-0.2-0.1-0.3-0.1
		c-0.9-0.2-1.5-0.7-2-1.5C190.8,146.3,192.3,139.3,192.6,137.9z"/>
	<path fill="#DD3E2B" d="M200,126.6c0.3,0.1,0.5-0.1,0.6-0.3c0.6-1.9,1.5-3.1,2.6-3.6c1.1-0.4,2.1,0.1,2.2,0.2
		c0.2,0.1,0.5,0.1,0.7-0.2c0.1-0.2,0.1-0.5-0.2-0.7c-0.1,0-1.4-0.8-3-0.2c-1.4,0.5-2.5,1.9-3.2,4.2c-0.1,0.2,0,0.4,0.1,0.5
		C199.8,126.6,199.9,126.6,200,126.6z"/>
	<path fill="#DD3E2B" d="M203.7,114.2c0.4,0.1,0.7-0.2,0.8-0.6l3.7-21.6c0.1-0.4-0.2-0.7-0.6-0.8c-0.4-0.1-0.7,0.2-0.8,0.6
		l-3.7,21.6c0,0.2,0,0.4,0.2,0.6C203.5,114.1,203.6,114.2,203.7,114.2z"/>
	<path fill="#DD3E2B" d="M214.4,119c0,0,0.1,0.1,0.1,0.1c0.3,0.2,0.7,0.1,0.9-0.2l11.2-18.8c0.2-0.3,0.1-0.7-0.2-0.9
		c-0.3-0.2-0.7-0.1-0.9,0.2l-11.2,18.8C214.1,118.4,214.2,118.8,214.4,119z"/>
	<path fill="#DD3E2B" d="M210.5,114.3c0.4,0.1,0.7-0.1,0.9-0.4l6.2-17.2c0.1-0.4-0.1-0.7-0.4-0.9c-0.4-0.1-0.7,0.1-0.9,0.4
		l-6.2,17.2c-0.1,0.3,0,0.5,0.2,0.7C210.3,114.2,210.4,114.3,210.5,114.3z"/>
	<path fill="#DD3E2B" d="M228.3,154.5c0.1,0.1,0.3,0.2,0.5,0.1c2.2-0.8,3.6-1.9,4.1-3.3c0.6-1.6-0.2-2.9-0.3-3
		c-0.1-0.2-0.4-0.3-0.7-0.2c-0.2,0.1-0.3,0.4-0.2,0.7c0,0,0.6,1,0.2,2.1c-0.4,1.1-1.6,2-3.5,2.7c-0.2,0.1-0.4,0.4-0.3,0.6
		C228.2,154.4,228.3,154.5,228.3,154.5z"/>
	<path fill="#DD3E2B" d="M240.3,143.6c0,0.1,0.1,0.2,0.2,0.2c0.2,0.2,0.5,0.2,0.7,0.2l17.1-6.5c0.4-0.1,0.5-0.5,0.4-0.9
		c-0.1-0.3-0.5-0.5-0.9-0.4l-17.1,6.5C240.4,142.9,240.2,143.3,240.3,143.6z"/>
	<path fill="#DD3E2B" d="M240.6,150.4c0,0.1,0.1,0.3,0.2,0.4c0.2,0.1,0.4,0.2,0.6,0.2l21.6-4.1c0.4-0.1,0.6-0.4,0.5-0.8
		c-0.1-0.4-0.4-0.6-0.8-0.5l-21.6,4.1C240.8,149.6,240.5,150,240.6,150.4z"/>
	<path fill="#DD3E2B" d="M337.3,382.3l-16.6-7.5c-0.3-0.2-0.7,0-0.9,0.3c0,0.1-0.1,0.2-0.1,0.3c0,0.3,0.2,0.5,0.4,0.6l16.6,7.5
		c0.3,0.2,0.7,0,0.9-0.3C337.8,382.9,337.6,382.5,337.3,382.3z"/>
	<path fill="#DD3E2B" d="M319.6,369.8l21.3,4.9c0.4,0.1,0.7-0.1,0.8-0.5c0.1-0.4-0.1-0.7-0.5-0.8l-21.3-4.9
		c-0.4-0.1-0.7,0.1-0.8,0.5c0,0.1,0,0.1,0,0.2C319.1,369.4,319.3,369.7,319.6,369.8z"/>
	<path fill="#DD3E2B" d="M316.1,379.9c-0.3-0.2-0.7-0.1-0.9,0.2c-0.1,0.1-0.1,0.3-0.1,0.4c0,0.2,0.1,0.4,0.3,0.6l18.1,12.4
		c0.3,0.2,0.7,0.1,0.9-0.2c0.2-0.3,0.1-0.7-0.2-0.9L316.1,379.9z"/>
	<path fill="#DD3E2B" d="M309,375.4c1.5-0.7,1.9-2.2,1.9-2.3c0.1-0.3-0.1-0.5-0.4-0.6c-0.3-0.1-0.5,0.1-0.6,0.4
		c0,0.1-0.3,1.1-1.4,1.7c-1.1,0.5-2.5,0.3-4.4-0.6c-0.2-0.1-0.5,0-0.6,0.2c0,0.1,0,0.1,0,0.2c0,0.2,0.1,0.3,0.3,0.4
		C305.9,375.9,307.7,376.1,309,375.4z"/>
	<path fill="#DD3E2B" d="M315.6,328.6l17.9-12.7c0.3-0.2,0.4-0.6,0.2-0.9c-0.2-0.3-0.6-0.4-0.9-0.2l-17.9,12.7
		c-0.2,0.1-0.3,0.3-0.3,0.6c0,0.1,0,0.3,0.1,0.4C314.9,328.8,315.3,328.8,315.6,328.6z"/>
	<path fill="#DD3E2B" d="M289.7,336c-0.3,0.2-7.9,4.8-9.1,9.5c-0.1,0.4-0.2,0.9-0.2,1.3c0,0.8,0.2,1.5,0.6,2.1
		c0.1,0.4,0.5,1.6,1.8,2.5c2.6,1.7,7.2,1.6,13.6-0.5c0,0,0,0,0.1,0l0.4-0.1l0,0.1l0.4-0.2l53.4-12.1c0.2-0.1,0.4-0.2,0.5-0.5
		c0.1-0.2,0-0.5-0.2-0.7c-12-11.3-13-32.8-13-33c0-0.3-0.2-0.5-0.4-0.6c-0.2-0.1-0.5-0.1-0.7,0L289.7,336L289.7,336z M336.7,305.8
		c0.4,4.7,2.3,21.5,12.4,31.8l-44.6,10.1l6.2-2.6c0.2-0.1,4-1.2,5.3-4.6c0.9-2.1,0.5-4.7-1-7.4c0-0.1-1.1-2.8-3.9-4
		c-2.2-0.9-4.8-0.8-7.8,0.5l-5.9,2.7L336.7,305.8z M303.9,330.9c2.6-1.1,4.9-1.2,6.7-0.5c2.3,1,3.2,3.2,3.3,3.3
		c1.3,2.4,1.6,4.5,0.9,6.3c-1.1,2.8-4.4,3.8-4.5,3.8l-13.2,5.5c0-0.2,0-0.4,0-0.6c0-2.8-0.6-9.2-5.4-12.1L303.9,330.9z M295.6,348.8
		c0,0.4,0,0.7,0,1c-7.2,2.2-10.5,1.5-12,0.5c-1.1-0.7-1.3-1.7-1.3-1.7c0-0.1,0-0.2-0.1-0.3c-0.5-0.8-0.6-1.6-0.3-2.5
		c0.9-3.7,7-7.7,8.2-8.5C295,339.6,295.6,346.1,295.6,348.8z"/>
	<path fill="#DD3E2B" d="M303.9,334.8c1.8-0.9,3.3-1.2,4.4-0.7c1.1,0.5,1.4,1.6,1.4,1.6c0.1,0.3,0.3,0.4,0.6,0.3
		c0.3-0.1,0.4-0.3,0.3-0.6c0-0.1-0.4-1.6-1.9-2.3c-1.3-0.6-3.1-0.4-5.2,0.7c-0.2,0.1-0.3,0.3-0.3,0.4c0,0.1,0,0.1,0.1,0.2
		C303.3,334.8,303.6,334.9,303.9,334.8z"/>
	<path fill="#DD3E2B" d="M319.3,333.1c0,0.1,0,0.2,0.1,0.3c0.2,0.3,0.6,0.5,0.9,0.3l16.5-7.8c0.3-0.2,0.5-0.6,0.3-0.9
		c-0.2-0.3-0.6-0.5-0.9-0.3l-16.5,7.8C319.4,332.5,319.3,332.8,319.3,333.1z"/>
	<path fill="#DD3E2B" d="M318.8,339.4c0,0.1,0,0.1,0,0.2c0.1,0.4,0.5,0.6,0.8,0.5l21.2-5.3c0.4-0.1,0.6-0.5,0.5-0.8
		c-0.1-0.4-0.5-0.6-0.8-0.5l-21.2,5.3C319,338.8,318.8,339.1,318.8,339.4z"/>
	<path fill="#DD3E2B" d="M297.3,358.2l-0.4-0.1l0,0.1l-0.4-0.1c0,0,0,0-0.1,0c-6.5-1.9-11.1-2-13.6-0.2c-1.3,0.9-1.7,2.1-1.8,2.5
		c-0.4,0.7-0.5,1.4-0.5,2.2c0,0.4,0.1,0.8,0.2,1.3c1.3,4.7,9,9.1,9.3,9.3l0,0l47.7,31.1c0.2,0.1,0.5,0.1,0.7,0
		c0.2-0.1,0.4-0.3,0.4-0.6c0-0.2,0.6-21.7,12.3-33.2c0.2-0.2,0.3-0.4,0.2-0.7c-0.1-0.2-0.3-0.4-0.5-0.5L297.3,358.2z M282,363.4
		c-0.3-0.9-0.2-1.7,0.3-2.5c0.1-0.1,0.1-0.2,0.1-0.3c0,0,0.1-1,1.2-1.7c1.5-1,4.8-1.7,12,0.3c0,0.2,0,0.6,0,1
		c0,2.7-0.5,9.1-5.3,11.5C289.1,370.9,283,367.1,282,363.4z M297.1,360.2c0-0.2,0-0.4,0-0.6l13.3,5.3c0.1,0,3.4,1,4.6,3.7
		c0.8,1.7,0.5,3.9-0.8,6.3c0,0.1-0.9,2.3-3.2,3.4c-1.8,0.8-4.1,0.7-6.7-0.3l-12.4-5.5C296.6,369.4,297.1,363,297.1,360.2z
		 M337.6,402.4l-39.7-25.9l5.9,2.6c3,1.2,5.6,1.3,7.8,0.3c2.8-1.3,3.8-4,3.9-4.1c1.4-2.7,1.7-5.2,0.8-7.4c-1.4-3.3-5.2-4.4-5.4-4.5
		l-6.3-2.5l44.8,9.3C339.5,380.9,337.8,397.8,337.6,402.4z"/>
	<path fill="#DD3E2B" d="M242.2,559.2l21.6,3.7c0.4,0.1,0.7-0.2,0.8-0.6c0.1-0.4-0.2-0.7-0.6-0.8l-21.6-3.7c-0.2,0-0.4,0-0.6,0.2
		c-0.1,0.1-0.2,0.2-0.2,0.4C241.6,558.8,241.8,559.2,242.2,559.2z"/>
	<path fill="#DD3E2B" d="M205.4,595.3c-0.1,0-0.3,0.1-0.4,0.2c-0.1,0.2-0.2,0.4-0.2,0.6l4.1,21.6c0.1,0.4,0.4,0.6,0.8,0.5
		c0.4-0.1,0.6-0.4,0.5-0.8l-4.1-21.6C206.2,595.5,205.8,595.2,205.4,595.3z"/>
	<path fill="#DD3E2B" d="M204.4,587.6c1.6,0.6,2.9-0.2,3-0.3c0.2-0.1,0.3-0.4,0.2-0.7c-0.1-0.2-0.4-0.3-0.7-0.2c0,0-1,0.6-2.1,0.2
		c-1.1-0.4-2-1.6-2.7-3.5c-0.1-0.2-0.4-0.4-0.6-0.3c-0.1,0-0.1,0.1-0.2,0.1c-0.1,0.1-0.2,0.3-0.1,0.5
		C201.9,585.8,203,587.1,204.4,587.6z"/>
	<path fill="#DD3E2B" d="M256.4,580.2L237.6,569c-0.3-0.2-0.6-0.1-0.8,0.1c0,0-0.1,0.1-0.1,0.1c-0.2,0.3-0.1,0.7,0.2,0.9l18.8,11.2
		c0.3,0.2,0.7,0.1,0.9-0.2C256.8,580.8,256.7,580.4,256.4,580.2z"/>
	<path fill="#DD3E2B" d="M213,595.4c-0.1-0.4-0.5-0.5-0.9-0.4c-0.1,0-0.2,0.1-0.2,0.2c-0.2,0.2-0.2,0.5-0.1,0.7l6.5,17.1
		c0.1,0.4,0.5,0.5,0.9,0.4c0.3-0.1,0.5-0.5,0.4-0.9L213,595.4z"/>
	<path fill="#DD3E2B" d="M241.9,566.1l17.2,6.2c0.4,0.1,0.7-0.1,0.9-0.4c0.1-0.4-0.1-0.7-0.4-0.9l-17.2-6.2c-0.3-0.1-0.5,0-0.7,0.2
		c-0.1,0.1-0.1,0.2-0.2,0.2C241.4,565.6,241.5,565.9,241.9,566.1z"/>
	<path fill="#DD3E2B" d="M229.5,555.3c1.9,0.6,3.1,1.5,3.6,2.6c0.4,1.1-0.1,2.1-0.2,2.2c-0.1,0.2-0.1,0.5,0.2,0.7
		c0.2,0.1,0.5,0.1,0.7-0.2c0-0.1,0.8-1.4,0.2-3c-0.5-1.4-1.9-2.5-4.2-3.2c-0.2-0.1-0.4,0-0.5,0.1c-0.1,0.1-0.1,0.1-0.1,0.2
		C229.1,554.9,229.2,555.2,229.5,555.3z"/>
	<path fill="#DD3E2B" d="M208.3,567.1l-0.1-0.4l-0.1,0l-0.2-0.3c0,0,0,0,0,0c-3.2-5.9-6.4-9.2-9.5-9.8c-1.6-0.3-2.6,0.3-3,0.5
		c-0.7,0.2-1.4,0.6-1.9,1.1c-0.3,0.3-0.5,0.6-0.8,1c-2.4,4.2-0.1,12.8,0,13.2l0,0l11.7,55.8c0.1,0.2,0.2,0.4,0.5,0.5
		c0.2,0.1,0.5,0,0.7-0.2c0.1-0.1,15.7-14.9,32.2-14.8c0.3,0,0.5-0.1,0.6-0.4c0.1-0.2,0.1-0.5,0-0.7L208.3,567.1z M193.9,560
		c0.5-0.8,1.1-1.3,2-1.6c0.1,0,0.2-0.1,0.3-0.1c0,0,0.8-0.6,2.1-0.3c1.8,0.4,4.6,2.2,8.3,8.7c-0.2,0.2-0.4,0.4-0.7,0.7
		c-1.9,1.9-6.8,6.1-11.9,4.4C193.5,570.4,191.9,563.4,193.9,560z M206.8,568.4c0.2-0.2,0.3-0.3,0.4-0.4l5.7,13.2
		c0.1,0.1,1.7,3.1,0.6,5.9c-0.7,1.8-2.4,3.1-5,3.9c-0.1,0-2.3,1-4.7,0.1c-1.9-0.7-3.4-2.4-4.5-5l-4.9-12.7
		C199.9,574.6,204.8,570.4,206.8,568.4z M205.5,626.9l-9.8-46.4l2.3,6c1.3,3,3.1,4.9,5.3,5.7c2.9,1.1,5.5-0.1,5.6-0.1
		c3-0.9,4.9-2.5,5.8-4.6c1.3-3.4-0.6-6.8-0.6-7l-2.7-6.2l25.1,38.2C222.1,613.1,209,623.8,205.5,626.9z"/>
	<path fill="#DD3E2B" d="M274.6,556.8l-56-10.7l0,0c-0.4-0.1-9-2.2-13.2,0.3c-0.4,0.2-0.7,0.5-1,0.8c-0.5,0.5-0.9,1.2-1.1,1.9
		c-0.2,0.4-0.8,1.4-0.5,3c0.6,3,4,6.2,9.9,9.3c0,0,0,0,0,0l0.3,0.2l0,0.1l0.4,0.1l46.3,29.2c0.2,0.1,0.5,0.1,0.7,0
		c0.2-0.1,0.4-0.4,0.3-0.6c-0.4-16.5,14-32.3,14.2-32.5c0.2-0.2,0.2-0.4,0.1-0.7C275.1,557,274.9,556.9,274.6,556.8z M213.1,560
		c-6.6-3.5-8.5-6.4-8.9-8.1c-0.3-1.3,0.3-2.1,0.3-2.1c0.1-0.1,0.1-0.2,0.1-0.3c0.2-0.9,0.7-1.5,1.5-2c3.3-2,10.4-0.5,11.8-0.2
		c1.9,5.1-2.3,10.1-4.1,12C213.5,559.6,213.3,559.8,213.1,560z M214.8,560.3c2-2,6.1-7,4.7-12.4l12.7,4.6c2.6,1.1,4.3,2.6,5.1,4.4
		c0.9,2.4,0,4.6,0,4.7c-0.8,2.6-2,4.4-3.8,5.1c-2.7,1.2-5.8-0.4-5.9-0.5l-13.3-5.5C214.5,560.6,214.6,560.4,214.8,560.3z
		 M259.5,589.2l-38.7-24.4l6.2,2.6c0.2,0.1,3.7,1.9,7,0.5c2.1-0.9,3.7-2.9,4.5-5.9c0-0.1,1.2-2.7,0-5.6c-0.9-2.2-2.8-4-5.8-5.2
		l-6.1-2.2l46.5,8.9C270.2,561.5,259.7,574.8,259.5,589.2z"/>
	<path fill="#DD3E2B" d="M227.5,609.7c0.2,0.3,0.6,0.4,0.9,0.2c0.3-0.2,0.4-0.6,0.2-0.9L217,590.4c-0.2-0.3-0.6-0.4-0.9-0.2
		c0,0-0.1,0.1-0.1,0.1c-0.2,0.2-0.3,0.6-0.1,0.8L227.5,609.7z"/>
	<path fill="#DD3E2B" d="M96.5,55c0.1,0.1,0.3,0.1,0.4,0c0.4-0.1,0.6-0.4,0.5-0.8l-4.8-21.4c-0.1-0.4-0.4-0.6-0.8-0.5
		c-0.4,0.1-0.6,0.4-0.5,0.8l4.8,21.4C96.1,54.8,96.3,54.9,96.5,55z"/>
	<path fill="#DD3E2B" d="M144.8,74.5c0.1,0.1,0.2,0.2,0.3,0.3c0.2,0.1,0.4,0.1,0.6-0.1l18.4-11.9c0.3-0.2,0.4-0.6,0.2-0.9
		c-0.2-0.3-0.6-0.4-0.9-0.2L145,73.6C144.6,73.8,144.5,74.2,144.8,74.5z"/>
	<path fill="#DD3E2B" d="M135,83.1c0.2,0.1,0.4,0,0.5-0.1c1.8-1.6,2.6-3.1,2.6-4.6c-0.1-1.7-1.3-2.6-1.4-2.6
		c-0.2-0.2-0.5-0.1-0.7,0.1c-0.2,0.2-0.1,0.5,0.1,0.7c0,0,0.9,0.7,1,1.9c0.1,1.2-0.7,2.4-2.2,3.8c-0.2,0.2-0.2,0.5,0,0.7
		C134.9,83,134.9,83,135,83.1z"/>
	<path fill="#DD3E2B" d="M136.1,66.7c0.3,0.1,0.6,0,0.8-0.2l12.8-17.8c0.2-0.3,0.1-0.7-0.2-0.9c-0.3-0.2-0.7-0.1-0.9,0.2l-12.8,17.8
		c-0.2,0.3-0.1,0.7,0.2,0.9C136,66.6,136.1,66.6,136.1,66.7z"/>
	<path fill="#DD3E2B" d="M141.9,68.4c0.1,0.1,0.2,0.1,0.2,0.2c0.2,0.1,0.5,0.1,0.7-0.1l13.3-12.5c0.3-0.3,0.3-0.7,0-1
		c-0.3-0.3-0.7-0.3-1,0L142,67.4C141.7,67.7,141.7,68.1,141.9,68.4z"/>
	<path fill="#DD3E2B" d="M102.9,52.6c0.1,0,0.2,0.1,0.3,0c0.4,0,0.7-0.3,0.6-0.7L103,33.7c0-0.4-0.3-0.7-0.7-0.6
		c-0.4,0-0.7,0.3-0.6,0.7l0.8,18.2C102.5,52.2,102.7,52.5,102.9,52.6z"/>
	<path fill="#DD3E2B" d="M94.2,81c0.1,0.4,1.3,9.2,5.2,12.1c0.4,0.3,0.7,0.5,1.1,0.6c0.7,0.3,1.4,0.4,2.2,0.3c0.4,0.1,1.6,0.2,3-0.7
		c2.6-1.7,4.2-6,4.8-12.7c0,0,0,0,0-0.1l0.1-0.4l0.1,0l0-0.4l9.4-53.9c0-0.2,0-0.5-0.2-0.7c-0.2-0.2-0.5-0.2-0.7-0.1
		c-15.1,6.7-35.2-0.7-35.4-0.8c-0.2-0.1-0.5,0-0.7,0.1c-0.2,0.2-0.3,0.4-0.2,0.7L94.2,81L94.2,81z M105.1,92.2c-1.1,0.8-2,0.5-2,0.5
		c-0.1,0-0.2,0-0.3,0c-0.9,0.1-1.7-0.1-2.4-0.6c-3.1-2.3-4.4-9.4-4.7-10.8c4-3.7,10.2-1.7,12.7-0.7c0.4,0.2,0.7,0.3,0.9,0.4
		C108.4,88.3,106.5,91.1,105.1,92.2z M109.4,65.1l0,14.3c-0.2-0.1-0.3-0.2-0.6-0.2c-2.6-1.1-8.8-3-13.3,0.3L95,66
		c0-2.8,0.7-5,2.2-6.4c1.8-1.8,4.2-1.7,4.3-1.7c2.7-0.3,4.8,0.2,6.1,1.6C109.7,61.5,109.4,65,109.4,65.1z M93.9,72.5L84.4,26
		c4.4,1.5,20.7,6.1,34.2,0.8l-7.9,45.1l0-6.7c0-0.2,0.4-4.1-2.2-6.7c-1.6-1.6-4.1-2.3-7.2-2c-0.1,0-3-0.1-5.2,2.1
		c-1.7,1.7-2.6,4.1-2.6,7.4L93.9,72.5z"/>
	<path fill="#DD3E2B" d="M101.8,61.6c-0.1,0-1.6-0.2-2.8,0.9c-1.1,1-1.5,2.7-1.4,5.1c0,0.2,0.1,0.3,0.3,0.4c0.1,0,0.1,0,0.2,0
		c0.3,0,0.5-0.2,0.4-0.5c-0.2-2,0.2-3.5,1-4.3c0.9-0.8,2-0.7,2-0.7c0.3,0,0.5-0.1,0.5-0.4C102.3,61.9,102.1,61.6,101.8,61.6z"/>
	<path fill="#DD3E2B" d="M108.6,55.5c0,0,0.1,0,0.2,0c0.4,0.1,0.7-0.2,0.8-0.6l3.3-21.6c0.1-0.4-0.2-0.7-0.6-0.8
		c-0.4-0.1-0.7,0.2-0.8,0.6l-3.3,21.6C108.1,55,108.3,55.3,108.6,55.5z"/>
	<path fill="#DD3E2B" d="M117.3,82.8L117.3,82.8l-0.2,0.3c0,0,0,0,0,0c-4.3,5.3-6.1,9.5-5.4,12.5c0.3,1.6,1.3,2.3,1.6,2.6
		c0.5,0.6,1.1,1,1.8,1.3c0.4,0.2,0.8,0.3,1.2,0.3c4.8,0.6,11.9-4.8,12.2-5l0,0l47.1-32c0.2-0.1,0.3-0.4,0.3-0.6
		c0-0.2-0.2-0.5-0.4-0.6c-0.2-0.1-19.8-8.9-25.9-24.2c-0.1-0.2-0.3-0.4-0.6-0.4c-0.3,0-0.5,0.1-0.6,0.3l-30.9,45.2L117.3,82.8z
		 M148.9,39.2c5.9,13.2,20.8,21.2,25,23.3l-39.2,26.7l4.7-4.4c2.3-2.3,3.4-4.7,3.3-7.1c-0.1-3.1-2.2-5.1-2.3-5.1
		c-2-2.4-4.2-3.6-6.5-3.6c-3.6,0-6.1,3.1-6.2,3.3l-4.7,4.8L148.9,39.2z M128.8,73c0.1-0.1,2.2-2.8,5.2-2.8c1.9,0,3.7,1.1,5.5,3.2
		c0.1,0.1,1.8,1.7,1.9,4.3c0.1,2-0.9,4-2.9,6.1l-9.9,9.3c-0.9-5.5-6.7-8.4-9.3-9.5c-0.2-0.1-0.4-0.1-0.6-0.2L128.8,73z M118.9,84.8
		c2.5,1,8.3,3.9,8.6,9.4c-1.2,0.9-7.1,5-10.9,4.5c-0.9-0.1-1.7-0.5-2.2-1.2c-0.1-0.1-0.1-0.1-0.2-0.2c0,0-0.8-0.5-1.1-1.8
		c-0.3-1.8,0.2-5.1,4.9-11C118.2,84.5,118.5,84.6,118.9,84.8z"/>
	<path fill="#DD3E2B" d="M301.2,247.5l21.6-3.5c0.4-0.1,0.6-0.4,0.6-0.8c-0.1-0.4-0.4-0.6-0.8-0.6l-21.6,3.5
		c-0.4,0.1-0.6,0.4-0.6,0.8c0,0.1,0,0.1,0,0.2C300.6,247.3,300.9,247.5,301.2,247.5z"/>
	<path fill="#DD3E2B" d="M288.5,258.1c2.4,0.2,4-0.3,5-1.4c1.1-1.2,0.9-2.8,0.9-2.8c0-0.3-0.3-0.4-0.5-0.4c-0.3,0-0.4,0.3-0.4,0.5
		c0,0.1,0.2,1.2-0.7,2.1c-0.8,0.9-2.2,1.2-4.3,1.1c-0.3,0-0.5,0.2-0.5,0.4c0,0.1,0,0.1,0,0.2C288.2,258,288.3,258.1,288.5,258.1z"/>
	<path fill="#DD3E2B" d="M275.7,245.2L275.7,245.2l-0.4,0.1c0,0,0,0-0.1,0c-6.7,0.7-11,2.4-12.7,5c-0.9,1.4-0.8,2.6-0.7,3
		c-0.1,0.8,0,1.5,0.3,2.2c0.2,0.4,0.4,0.7,0.6,1.1c3,3.9,11.8,5.1,12.1,5.1l0,0l56,10.7c0.2,0,0.5,0,0.6-0.2
		c0.2-0.2,0.2-0.4,0.1-0.7c-0.1-0.2-7.7-20.3-1.2-35.4c0.1-0.2,0.1-0.5-0.1-0.7c-0.2-0.2-0.4-0.3-0.7-0.2l-53.8,10.1L275.7,245.2z
		 M274.9,260.3c-1.4-0.2-8.6-1.4-10.9-4.5c-0.6-0.8-0.8-1.5-0.7-2.4c0-0.1,0-0.2,0-0.3c0,0-0.3-0.9,0.5-2.1c1-1.5,3.8-3.4,11.2-4.3
		c0.1,0.2,0.3,0.5,0.4,0.9C276.5,250.1,278.5,256.3,274.9,260.3z M329,236.7c-5.1,13.5-0.3,29.7,1.2,34.2l-46.6-8.9l6.5,0.2
		c3.3,0,5.7-0.9,7.3-2.7c2.1-2.3,2-5.1,2-5.2c0.3-3.1-0.4-5.5-2-7.1c-2.6-2.5-6.5-2.1-6.7-2.1l-6.7,0.1L329,236.7z M290.8,246.4
		c0.1,0,3.6-0.4,5.7,1.7c1.4,1.3,1.9,3.4,1.6,6.1c0,0.1,0.1,2.5-1.7,4.3c-1.4,1.5-3.5,2.2-6.3,2.2l-13.6-0.4
		c3.2-4.5,1.2-10.7,0.2-13.3c-0.1-0.2-0.2-0.4-0.3-0.6L290.8,246.4z"/>
	<path fill="#DD3E2B" d="M304,253.1l18.2,0.6c0.4,0,0.7-0.3,0.7-0.7c0-0.4-0.3-0.7-0.7-0.7l-18.2-0.6c-0.4,0-0.7,0.3-0.7,0.7
		c0,0.1,0,0.2,0.1,0.3C303.5,252.9,303.8,253.1,304,253.1z"/>
	<path fill="#DD3E2B" d="M288.9,219.6c0,0,0,0.1,0.1,0.1c0.2,0.3,0.6,0.4,0.9,0.1l17.6-13c0.3-0.2,0.4-0.6,0.1-1
		c-0.2-0.3-0.6-0.4-1-0.1l-17.6,13C288.9,219,288.8,219.4,288.9,219.6z"/>
	<path fill="#DD3E2B" d="M260.7,227.6c-0.2,0.3-5.5,7.4-4.8,12.3c0.1,0.4,0.2,0.9,0.3,1.2c0.3,0.7,0.7,1.3,1.3,1.8
		c0.3,0.4,1,1.3,2.6,1.6c3,0.6,7.2-1.3,12.4-5.6c0,0,0,0,0,0l0.3-0.2l0.1,0.1l0.3-0.3l44.8-31.5c0.2-0.1,0.3-0.4,0.3-0.6
		c0-0.3-0.2-0.5-0.4-0.6c-15.4-5.9-24.4-25.4-24.5-25.6c-0.1-0.2-0.3-0.4-0.6-0.4c-0.2,0-0.5,0.1-0.6,0.3L260.7,227.6L260.7,227.6z
		 M292.7,181.8c2.1,4.2,10.3,19,23.6,24.7l-37.4,26.3l4.8-4.8c0.1-0.1,3.2-2.6,3.2-6.3c0-2.3-1.3-4.5-3.7-6.4
		c-0.1-0.1-2-2.1-5.2-2.2c-2.4,0-4.7,1.1-7.1,3.4l-4.4,4.8L292.7,181.8z M271.9,217.5c2-2,4-3,6-3c2.5,0,4.2,1.8,4.3,1.8
		c2.1,1.7,3.2,3.5,3.2,5.4c0,3-2.6,5.2-2.7,5.3l-10.2,10.1c-0.1-0.2-0.1-0.4-0.2-0.6c-1.1-2.6-4.1-8.3-9.6-9.2L271.9,217.5z
		 M271,237.1c0.2,0.4,0.3,0.7,0.4,0.9c-5.8,4.8-9.1,5.4-10.9,5.1c-1.3-0.2-1.8-1-1.8-1.1c-0.1-0.1-0.1-0.2-0.2-0.2
		c-0.7-0.5-1.1-1.2-1.3-2.2c-0.6-3.8,3.5-9.8,4.4-11C267,228.9,270,234.6,271,237.1z"/>
	<path fill="#DD3E2B" d="M287,213.6c0,0.1,0.1,0.2,0.2,0.2c0.3,0.3,0.7,0.2,1,0l12.3-13.5c0.3-0.3,0.2-0.7,0-1c-0.3-0.3-0.7-0.2-1,0
		l-12.3,13.5C286.9,213.1,286.9,213.4,287,213.6z"/>
	<path fill="#DD3E2B" d="M272.7,221.2c0.2,0.2,0.5,0.1,0.7-0.1c1.3-1.6,2.6-2.3,3.8-2.3c1.2,0,1.9,0.9,1.9,1
		c0.2,0.2,0.5,0.3,0.7,0.1c0.2-0.2,0.3-0.4,0.1-0.7c0-0.1-1-1.3-2.6-1.4c-1.5-0.1-3,0.8-4.5,2.6c-0.1,0.1-0.1,0.3-0.1,0.5
		C272.6,221.1,272.6,221.1,272.7,221.2z"/>
	<path fill="#DD3E2B" d="M301.8,258.2c-0.4-0.1-0.7,0.2-0.8,0.5c0,0.1,0,0.3,0,0.4c0.1,0.2,0.3,0.4,0.5,0.4l21.4,4.6
		c0.4,0.1,0.7-0.2,0.8-0.5c0.1-0.4-0.2-0.7-0.5-0.8L301.8,258.2z"/>
	<path fill="#DD3E2B" d="M281,211.1c0.3,0.2,0.7,0.1,0.9-0.2l11.7-18.5c0.2-0.3,0.1-0.7-0.2-0.9c-0.3-0.2-0.7-0.1-0.9,0.2
		l-11.7,18.5c-0.1,0.2-0.1,0.4-0.1,0.6C280.7,210.9,280.8,211,281,211.1z"/>
	<path fill="#DD3E2B" d="M330.7,437.6l-55.9,11.4l0,0c-0.4,0.1-9.2,1.3-12.1,5.2c-0.3,0.4-0.5,0.7-0.6,1.1c-0.3,0.7-0.4,1.4-0.3,2.2
		c-0.1,0.4-0.2,1.6,0.7,3c1.7,2.6,6,4.2,12.7,4.8c0,0,0,0,0.1,0l0.4,0.1l0,0.1l0.4,0l53.9,9.4c0.2,0,0.5,0,0.7-0.2
		c0.2-0.2,0.2-0.5,0.1-0.7c-6.7-15.1,0.7-35.2,0.8-35.4c0.1-0.2,0-0.5-0.1-0.7C331.2,437.6,330.9,437.5,330.7,437.6z M275.3,463
		c-0.2,0.4-0.3,0.7-0.4,0.9c-7.5-0.8-10.3-2.6-11.3-4.1c-0.8-1.1-0.5-2-0.5-2c0-0.1,0-0.2,0-0.3c-0.1-0.9,0.1-1.7,0.6-2.4
		c2.3-3.1,9.4-4.4,10.8-4.7C278.3,454.3,276.4,460.5,275.3,463z M276.6,463.5c1.1-2.6,3-8.8-0.3-13.3l13.5-0.6c2.8,0,5,0.7,6.4,2.2
		c1.8,1.8,1.7,4.2,1.7,4.3c0.3,2.7-0.2,4.8-1.6,6.1c-2.1,2.1-5.5,1.8-5.7,1.8l-14.3,0C276.4,463.9,276.5,463.7,276.6,463.5z
		 M329,473.3l-45.1-7.9l6.7,0c0.2,0,4.1,0.4,6.7-2.2c1.6-1.6,2.3-4.1,2-7.2c0-0.1,0.1-3-2.1-5.2c-1.7-1.7-4.1-2.6-7.4-2.6l-6.5,0.3
		l46.4-9.4C328.3,443.6,323.7,459.8,329,473.3z"/>
	<path fill="#DD3E2B" d="M277.4,492.8c1.7-0.1,2.6-1.3,2.6-1.4c0.2-0.2,0.1-0.5-0.1-0.7c-0.2-0.2-0.5-0.1-0.7,0.1c0,0-0.7,0.9-1.9,1
		c-1.2,0.1-2.4-0.7-3.8-2.2c-0.2-0.2-0.5-0.2-0.7,0c-0.1,0-0.1,0.1-0.1,0.2c-0.1,0.2,0,0.4,0.1,0.5
		C274.4,492,275.9,492.8,277.4,492.8z"/>
	<path fill="#DD3E2B" d="M318.4,503.2l-45.2-30.9l-0.3-0.3l-0.1,0.1l-0.3-0.2c0,0,0,0,0,0c-5.3-4.2-9.5-6.1-12.5-5.4
		c-1.6,0.3-2.3,1.3-2.6,1.6c-0.6,0.5-1,1.1-1.3,1.8c-0.2,0.4-0.3,0.8-0.3,1.2c-0.6,4.8,4.8,11.9,5,12.2l0,0l32.1,47.1
		c0.1,0.2,0.4,0.3,0.6,0.3c0.2,0,0.5-0.2,0.6-0.4c0.1-0.2,8.9-19.8,24.2-25.9c0.2-0.1,0.4-0.3,0.4-0.6
		C318.7,503.6,318.6,503.4,318.4,503.2z M257.2,471.2c0.1-0.9,0.5-1.7,1.2-2.2c0.1-0.1,0.1-0.1,0.2-0.2c0,0,0.5-0.8,1.8-1.1
		c1.8-0.3,5.1,0.2,11,4.9c-0.1,0.2-0.2,0.6-0.3,0.9c-1,2.5-3.9,8.3-9.4,8.6C260.8,481,256.6,475.1,257.2,471.2z M272.3,474.1
		c0.1-0.2,0.1-0.4,0.2-0.6l10.3,10c0.1,0.1,2.8,2.2,2.8,5.2c0,1.9-1.1,3.7-3.2,5.5c-0.1,0.1-1.7,1.8-4.3,1.9c-2,0.1-4-0.9-6.1-2.9
		l-9.3-9.9C268.3,482.4,271.2,476.7,272.3,474.1z M293.3,528.7l-26.7-39.2l4.4,4.7c2.3,2.3,4.7,3.4,7.1,3.3c3.1-0.1,5.1-2.2,5.1-2.3
		c2.4-2,3.6-4.2,3.6-6.5c0-3.6-3.1-6.1-3.3-6.2l-4.8-4.7l37.8,25.8C303.4,509.6,295.4,524.5,293.3,528.7z"/>
	<path fill="#DD3E2B" d="M293.2,456.4c0,0.3,0.1,0.5,0.4,0.5c0.3,0,0.5-0.1,0.5-0.4c0-0.1,0.2-1.6-0.9-2.8c-1-1.1-2.7-1.5-5.1-1.4
		c-0.2,0-0.3,0.1-0.4,0.3c0,0.1,0,0.1,0,0.2c0,0.3,0.2,0.5,0.5,0.4c2-0.2,3.5,0.2,4.3,1C293.4,455.2,293.3,456.3,293.2,456.4z"/>
	<path fill="#DD3E2B" d="M299.9,510.9c0.3,0.3,0.7,0.3,1,0c0.3-0.3,0.3-0.7,0-1l-12.5-13.3c-0.3-0.3-0.7-0.3-1,0
		c-0.1,0.1-0.1,0.2-0.2,0.2c-0.1,0.2-0.1,0.5,0.1,0.7L299.9,510.9z"/>
	<path fill="#DD3E2B" d="M301.6,452.1l21.4-4.8c0.4-0.1,0.6-0.4,0.5-0.8c-0.1-0.4-0.4-0.6-0.8-0.5l-21.4,4.8
		c-0.2,0.1-0.4,0.2-0.5,0.4c-0.1,0.1-0.1,0.3,0,0.4C300.8,452,301.2,452.2,301.6,452.1z"/>
	<path fill="#DD3E2B" d="M282.2,499.7c-0.2-0.3-0.6-0.4-0.9-0.2c-0.1,0.1-0.2,0.2-0.3,0.3c-0.1,0.2-0.1,0.4,0.1,0.6l11.9,18.4
		c0.2,0.3,0.6,0.4,0.9,0.2c0.3-0.2,0.4-0.6,0.2-0.9L282.2,499.7z"/>
	<path fill="#DD3E2B" d="M307.1,504.4c0.3,0.2,0.7,0.1,0.9-0.2c0.2-0.3,0.1-0.7-0.2-0.9l-17.8-12.8c-0.3-0.2-0.7-0.1-0.9,0.2
		c0,0-0.1,0.1-0.1,0.1c-0.1,0.3,0,0.6,0.2,0.8L307.1,504.4z"/>
	<path fill="#DD3E2B" d="M300.9,464.2l21.6,3.3c0.4,0.1,0.7-0.2,0.8-0.6c0.1-0.4-0.2-0.7-0.6-0.8l-21.6-3.3c-0.3,0-0.6,0.1-0.7,0.4
		c0,0,0,0.1,0,0.2C300.2,463.8,300.5,464.1,300.9,464.2z"/>
	<path fill="#DD3E2B" d="M303.8,457.2c-0.3,0-0.5,0.2-0.6,0.4c0,0.1-0.1,0.2,0,0.3c0,0.4,0.3,0.7,0.7,0.6l18.2-0.8
		c0.4,0,0.7-0.3,0.6-0.7c0-0.4-0.3-0.7-0.7-0.6L303.8,457.2z"/>
	<path fill="#DD3E2B" d="M110.6,630.5L110.6,630.5l-0.1-0.4c0,0,0,0,0-0.1c-0.7-6.7-2.4-11-5-12.7c-1.4-0.9-2.6-0.8-3-0.7
		c-0.8-0.1-1.5,0-2.2,0.3c-0.4,0.2-0.7,0.4-1.1,0.6c-3.9,3-5.1,11.8-5.1,12.1l0,0l-10.7,56c0,0.2,0,0.5,0.2,0.6
		c0.2,0.2,0.4,0.2,0.7,0.1c0.2-0.1,20.3-7.7,35.4-1.2c0.2,0.1,0.5,0.1,0.7-0.1c0.2-0.2,0.3-0.4,0.2-0.7l-10.1-53.8L110.6,630.5z
		 M100,618.7c0.8-0.6,1.5-0.8,2.4-0.7c0.1,0,0.2,0,0.3,0c0,0,0.9-0.3,2.1,0.5c1.5,1,3.4,3.8,4.3,11.2c-0.2,0.1-0.5,0.3-0.9,0.4
		c-2.5,1.1-8.6,3-12.7-0.6C95.7,628.2,96.9,621.1,100,618.7z M95.4,631.3c4.5,3.2,10.7,1.2,13.3,0.2c0.2-0.1,0.4-0.2,0.6-0.3
		l0.2,14.3c0,0.1,0.4,3.6-1.7,5.7c-1.3,1.4-3.4,1.9-6.1,1.6c-0.1,0-2.5,0.1-4.3-1.7c-1.5-1.4-2.2-3.5-2.2-6.3L95.4,631.3z
		 M119.1,683.7c-13.5-5.1-29.7-0.3-34.2,1.2l8.9-46.6l-0.2,6.5c0,3.3,0.9,5.7,2.7,7.3c2.3,2.1,5.1,2,5.2,2c3.1,0.3,5.5-0.4,7.1-2
		c2.5-2.6,2.1-6.5,2.1-6.7l-0.1-6.7L119.1,683.7z"/>
	<path fill="#DD3E2B" d="M108.9,655.1c-0.1,0-0.1,0-0.2,0c-0.3,0.1-0.5,0.4-0.4,0.7l3.5,21.6c0.1,0.4,0.4,0.6,0.8,0.6
		c0.4-0.1,0.6-0.4,0.6-0.8l-3.5-21.6C109.6,655.3,109.3,655.1,108.9,655.1z"/>
	<path fill="#DD3E2B" d="M144.9,636.6l18.5,11.7c0.3,0.2,0.7,0.1,0.9-0.2c0.2-0.3,0.1-0.7-0.2-0.9l-18.5-11.7
		c-0.2-0.1-0.4-0.1-0.6-0.1c-0.1,0.1-0.2,0.1-0.3,0.3C144.5,636,144.6,636.4,144.9,636.6z"/>
	<path fill="#DD3E2B" d="M142.2,641.7c-0.1,0-0.2,0.1-0.2,0.2c-0.3,0.3-0.2,0.7,0,1l13.5,12.3c0.3,0.3,0.7,0.2,1,0
		c0.3-0.3,0.2-0.7,0-1l-13.5-12.3C142.7,641.6,142.4,641.6,142.2,641.7z"/>
	<path fill="#DD3E2B" d="M137,631.8c0,1.2-0.9,1.9-1,1.9c-0.2,0.2-0.3,0.5-0.1,0.7c0.2,0.2,0.4,0.3,0.7,0.1c0.1,0,1.3-1,1.4-2.6
		c0.1-1.5-0.8-3-2.6-4.5c-0.1-0.1-0.3-0.1-0.5-0.1c-0.1,0-0.1,0.1-0.2,0.1c-0.2,0.2-0.1,0.5,0.1,0.7
		C136.2,629.4,137,630.7,137,631.8z"/>
	<path fill="#DD3E2B" d="M128.2,615.4L128.2,615.4c-0.3-0.3-7.5-5.6-12.3-4.9c-0.4,0.1-0.9,0.2-1.2,0.3c-0.7,0.3-1.3,0.7-1.8,1.3
		c-0.4,0.3-1.3,1-1.6,2.6c-0.6,3,1.3,7.2,5.6,12.4c0,0,0,0,0,0l0.2,0.3l-0.1,0.1l0.3,0.3l31.5,44.8c0.1,0.2,0.4,0.3,0.6,0.3
		c0.3,0,0.5-0.2,0.6-0.4c5.9-15.4,25.4-24.4,25.6-24.5c0.2-0.1,0.4-0.3,0.4-0.6c0-0.2-0.1-0.5-0.3-0.6L128.2,615.4z M112.7,615.2
		c0.2-1.3,1-1.8,1.1-1.8c0.1-0.1,0.2-0.1,0.2-0.2c0.5-0.7,1.2-1.1,2.2-1.3c3.8-0.6,9.8,3.5,11,4.4c-0.2,5.4-6,8.4-8.4,9.5
		c-0.4,0.2-0.7,0.3-0.9,0.4C113,620.3,112.4,617,112.7,615.2z M119.2,627c2.6-1.1,8.3-4.1,9.2-9.6l10,9.2c2,2,3,4,3,6
		c0,2.5-1.8,4.2-1.8,4.3c-1.7,2.1-3.5,3.2-5.4,3.2c-3,0-5.2-2.7-5.3-2.7l-10.1-10.2C118.8,627.2,119,627.1,119.2,627z M149.3,671
		L123,633.5l4.8,4.8c0.1,0.1,2.6,3.2,6.3,3.2c2.3,0,4.5-1.3,6.4-3.7c0.1-0.1,2.1-2,2.2-5.2c0-2.4-1.1-4.7-3.4-7.1l-4.8-4.4
		l39.5,26.2C169.8,649.5,155.1,657.7,149.3,671z"/>
	<path fill="#DD3E2B" d="M103.4,658.1c-0.1,0-0.2,0-0.3,0.1c-0.2,0.1-0.4,0.3-0.4,0.6l-0.6,18.2c0,0.4,0.3,0.7,0.7,0.7
		c0.4,0,0.7-0.3,0.7-0.7l0.6-18.2C104.1,658.4,103.8,658.1,103.4,658.1z"/>
	<path fill="#DD3E2B" d="M137,643.8c-0.2-0.3-0.5-0.3-0.8-0.2c0,0-0.1,0-0.1,0.1c-0.3,0.2-0.4,0.6-0.1,0.9l13,17.6
		c0.2,0.3,0.6,0.4,1,0.1c0.3-0.2,0.4-0.6,0.1-0.9L137,643.8z"/>
	<path fill="#DD3E2B" d="M97.1,655.7c-0.1,0-0.3,0-0.4,0c-0.2,0.1-0.4,0.3-0.4,0.5l-4.6,21.4c-0.1,0.4,0.2,0.7,0.5,0.8
		c0.4,0.1,0.7-0.2,0.8-0.5l4.6-21.4C97.7,656.2,97.4,655.8,97.1,655.7z"/>
	<path fill="#DD3E2B" d="M101.9,649.1c0.3,0,0.4-0.3,0.4-0.5c0-0.3-0.3-0.4-0.5-0.4c-0.1,0-1.2,0.2-2.1-0.7
		c-0.9-0.8-1.2-2.2-1.1-4.3c0-0.3-0.2-0.5-0.4-0.5c-0.1,0-0.1,0-0.2,0c-0.2,0.1-0.3,0.2-0.3,0.4c-0.2,2.4,0.3,4,1.4,5
		C100.3,649.4,101.8,649.1,101.9,649.1z"/>
	<path fill="#DD3E2B" d="M78.6,110.1l-27.2-5.4l-26.8-5.3c-0.2,0-0.4,0-0.5,0.1c-0.2,0.1-0.2,0.3-0.3,0.5l-0.2,4.3
		c0,0.3,0.2,0.6,0.5,0.7c0.2,0,16,4.5,17.6,20c0,0.1,0,3.4,4.7,4.4c0.1,0,0.2,0,0.2,0c0.1,0,0.1,0.1,0.2,0.1c4.7,0.9,6-2.1,6-2.2
		c7.5-13.7,23.8-11.8,24-11.8c0.3,0,0.6-0.1,0.7-0.4l1.5-4c0.1-0.2,0-0.4-0.1-0.5C79,110.3,78.8,110.1,78.6,110.1z M76.6,114.1
		c-3-0.2-17.6-0.5-24.8,12.6c0,0.1-1.2,2.1-4.8,1.4c-0.1,0,0.1,0,0,0c-0.1,0-0.1-0.1-0.2-0.1c-3.6-0.7-3.7-3-3.7-3.1
		c-1.6-14.8-15.3-20.1-18.1-21l0.1-3l26,5.1l26.4,5.2L76.6,114.1z"/>
	<path fill="#DD3E2B" d="M60.8,51.3c-15.4,4.9-19.3,14.1-19.9,15.8C30,74.1,27.4,83.6,27.3,84l-0.1,0.5l0.5,0.2
		c4.9,2.3,9.4,3.8,13.6,4.6c6.2,1.2,9.5,0.4,10.4,0.1l6,1.2c0.7,0.6,3.4,2.6,9.6,3.8c4.1,0.8,8.9,1.1,14.3,0.9l0.5,0l0.1-0.5
		c0.1-0.4,1.3-10.2-6.1-20.8c0.1-1.8-0.1-11.8-12.5-22.2c2.5-0.3,6.9-1,7.6-2.9c0.2-0.4,0.1-0.9-0.1-1.3c-0.1-0.3-0.3-0.5-0.6-0.8
		c-0.1-0.2-3.1-3.2-8.1,3.5c0,0,0,0,0,0c0,0,0,0,0-0.1c-1.2-4.8-3-6.2-4.4-6.5C57,43.7,56.4,44,56.3,44c-1,0.4-1.5,1-1.5,1.7
		C54.7,47.7,58.6,50.1,60.8,51.3z M68.9,46.9c0.3,0.1,0.5,0.1,0.6,0.2c-1.5-0.1-3,0.5-4.3,1.3C66.9,46.9,68.2,46.8,68.9,46.9z
		 M70.4,48.2c0.1,0.1,0.1,0.3,0,0.4c-0.4,1.2-3.9,1.9-6.7,2.3C65.1,49.5,67.8,47.5,70.4,48.2z M52,56.7c-3.3,2.5-6.5,5.7-7.8,9.5
		c-0.2-0.3-0.4-0.4-0.4-0.4l-0.3-0.3l-0.4,0.2c-0.1,0-0.2,0.1-0.3,0.1C44,63.7,46.7,60,52,56.7z M50.9,88.3c-1,0.3-4,0.8-9.3-0.2
		c0,0,0,0,0-0.1l0.8-1.8c0.1-0.2,0-0.5-0.2-0.6c-0.2-0.1-0.5,0-0.6,0.2l-0.8,1.8c0,0.1,0,0.2,0,0.2c-2.1-0.4-4.4-1.1-6.7-2l-0.2-1.9
		c0-0.3-0.2-0.4-0.5-0.4c-0.2,0-0.4,0.2-0.4,0.5l0.2,1.4c-1.4-0.5-2.9-1.1-4.4-1.8c0.7-2.1,3.8-9.9,13-15.8c0.5-0.3,1-0.7,1.6-1
		c0.2,0.2,0.4,0.5,0.8,0.8C46.5,70.7,52,78.2,50.9,88.3z M80.9,94.1c-1.6,0.1-3.1,0.1-4.6,0l0.7-1.2c0.1-0.2,0-0.5-0.2-0.6
		c-0.2-0.1-0.5,0-0.6,0.2l-0.9,1.6c-2.5-0.1-4.8-0.3-7-0.7c0-0.1,0.1-0.1,0.1-0.2l-0.1-2c0-0.3-0.2-0.5-0.5-0.4
		c-0.3,0-0.5,0.2-0.4,0.5l0.1,2c0,0,0,0,0,0.1c-5.4-1.1-8-2.7-8.8-3.4c2.9-9.8,10.8-14.7,14.1-16.3c0,0,0.1,0,0.1-0.1
		c0.4-0.2,0.7-0.3,0.9-0.4c0.4,0.5,0.8,1,1.1,1.5C81.1,83.5,81.1,92,80.9,94.1z M74.7,72.2c-0.1-0.1-0.1-0.2-0.2-0.2l-0.3-0.4
		l-0.4,0.2c0,0-0.2,0.1-0.5,0.2c0.2-4-1.5-8.2-3.6-11.8C73.4,65.3,74.4,69.7,74.7,72.2z M61.3,52.8c0,0,0.1-0.1,0.1-0.2
		c0.1-0.1,0.2-0.2,0.5-0.4c0,0,0.1,0,0.1,0c0,0,0.1,0.1,0.1,0.1c0,0,0,0,0,0c0,0,0,0,0,0c0,0,0,0,0,0c0.3,0.3,0.8,0.8,1.4,1.5
		c0.4,1.5,0.5,4-0.6,8.5c0,0.2,0.1,0.5,0.3,0.5c0,0,0,0,0,0c0.2,0,0.5-0.1,0.5-0.3c0.4-1.5,0.6-2.8,0.7-4c0.1,1,0.1,2-0.1,3.1
		c0,0.2,0.1,0.5,0.4,0.5l0,0c0.3,0,0.5-0.1,0.5-0.4c0.3-2.3,0-4.6-0.4-6.2c3.3,4.1,7.7,11,6.9,16.9c-3.6,1.9-11.5,6.9-14.5,16.8
		l-5.2-1c1-10.2-4.3-17.9-7-21c1.6-5.9,8.5-10.6,13.1-13.1c-0.7,1.1-1.2,2.6-1.3,4.7c0,0.3,0.2,0.5,0.4,0.5c0.2,0,0.5-0.2,0.5-0.4
		c0.1-1.8,0.6-3.1,1.1-4.1c-0.7,2.2-0.6,4.4-0.6,4.5c0,0.2,0.2,0.4,0.4,0.4c0,0,0.1,0,0.1,0c0.3,0,0.4-0.2,0.4-0.5
		C59.4,59.1,59.1,55,61.3,52.8C61.3,52.8,61.3,52.8,61.3,52.8z M57.8,44.7c0.7,0.1,1.7,0.7,2.7,2.6c-0.8-1.1-1.9-2.2-3.3-2.6
		C57.3,44.7,57.5,44.7,57.8,44.7z M55.9,45.4c2.7,0.3,4.4,3.2,5.3,5.1c-2.5-1.4-5.5-3.5-5.4-4.7C55.7,45.6,55.8,45.5,55.9,45.4z"/>
	<path fill="#DD3E2B" d="M43.1,70.8c-0.2,0.2-0.2,0.5,0,0.6c0,0,3.8,3.9,4.1,9c0,0.2,0.2,0.4,0.4,0.4c0,0,0.1,0,0.1,0
		c0.2,0,0.4-0.2,0.4-0.5c-0.3-5.5-4.2-9.4-4.4-9.6C43.5,70.7,43.3,70.7,43.1,70.8z"/>
	<path fill="#DD3E2B" d="M72.2,76.5c-0.2,0.1-5.3,2.3-7.7,7.2c-0.1,0.2,0,0.5,0.2,0.6c0,0,0.1,0,0.1,0c0.2,0,0.4-0.1,0.5-0.2
		c2.2-4.6,7.2-6.7,7.2-6.8c0.2-0.1,0.3-0.4,0.2-0.6C72.7,76.5,72.4,76.4,72.2,76.5z"/>
	<path fill="#DD3E2B" d="M246.8,207.4c-0.2-0.1-5.4-2.1-10.5-0.4c-0.2,0.1-0.4,0.3-0.3,0.6c0,0,0,0.1,0.1,0.1
		c0.1,0.2,0.3,0.2,0.5,0.2c4.9-1.7,9.8,0.3,9.9,0.3c0.2,0.1,0.5,0,0.6-0.2C247.1,207.8,247,207.5,246.8,207.4z"/>
	<path fill="#DD3E2B" d="M231.2,178.6c-12.6-2.7-21.2,2.2-21.5,2.4l-0.5,0.3l0.2,0.5c1.9,5,4,9.4,6.3,12.8c3.5,5.3,6.5,7,7.2,7.4
		l3.4,5.1c0.1,0.9,0.6,4.3,4.1,9.5c2.3,3.5,5.5,7.1,9.5,10.7l0.4,0.4l0.4-0.3c0.4-0.3,8.1-6.3,10.4-19c1.3-1.2,8.3-8.4,6.9-24.5
		c1.9,1.5,5.6,4.2,7.4,3.3c0.4-0.2,0.7-0.5,0.8-1c0.1-0.3,0.1-0.6,0.1-1c0-0.2,0.1-4.5-8.2-3.2c0,0,0,0,0,0c0,0,0,0,0-0.1
		c2.6-4.3,2.3-6.5,1.5-7.7c-0.5-0.8-1.2-1-1.3-1c-1-0.4-1.7-0.4-2.3,0.1c-1.5,1.3-0.4,5.8,0.3,8.2
		C242.1,174.1,232.8,177.8,231.2,178.6z M265.3,184.2c0.2,0.2,0.2,0.4,0.3,0.6c-1-1.1-2.5-1.7-4-2.1
		C263.9,182.8,264.9,183.6,265.3,184.2z M265.4,186.2c-0.1,0.1-0.2,0.2-0.3,0.3c-1.1,0.5-4.1-1.4-6.4-3.1
		C260.8,183.4,264.1,183.8,265.4,186.2z M259,174.8c0.4,0.6,0.7,1.7,0,3.7c0.2-1.4,0.2-2.9-0.5-4.2
		C258.7,174.4,258.8,174.6,259,174.8z M216.9,194.1C216.9,194.1,217,194.1,216.9,194.1l1.9-0.7c0.2-0.1,0.4-0.4,0.3-0.6
		c-0.1-0.2-0.4-0.4-0.6-0.3l-1.9,0.7c-0.1,0-0.1,0.1-0.2,0.1c-1.2-1.8-2.3-3.9-3.4-6.1l1.2-1.5c0.2-0.2,0.1-0.5-0.1-0.6
		c-0.2-0.2-0.5-0.1-0.6,0.1l-0.9,1.1c-0.6-1.4-1.2-2.9-1.8-4.4c2-1,9.7-4.3,20.3-2c0.6,0.1,1.2,0.3,1.8,0.4c0,0.3,0,0.7,0,1.1
		c-0.2,3.7-1.6,12.9-9.6,19.3C222.4,200.3,219.9,198.5,216.9,194.1z M250,208c-1.9,10.7-7.9,16.6-9.6,18c-1.2-1.1-2.3-2.2-3.3-3.3
		l1.3-0.4c0.2-0.1,0.4-0.3,0.3-0.6c-0.1-0.2-0.3-0.4-0.6-0.3l-1.8,0.5c-1.7-1.8-3.2-3.7-4.4-5.5c0.1,0,0.2-0.1,0.2-0.1l1.4-1.4
		c0.2-0.2,0.2-0.5,0-0.6c-0.2-0.2-0.5-0.2-0.6,0l-1.3,1.4c0,0,0,0,0,0.1c-3-4.5-3.7-7.6-3.8-8.6c8.9-4.9,18-2.7,21.5-1.5
		c0,0,0.1,0,0.1,0c0.4,0.1,0.7,0.3,0.9,0.4C250.2,206.8,250.1,207.4,250,208z M251.6,206.2c0-0.1,0-0.2,0-0.3l0.1-0.5l-0.4-0.2
		c0,0-0.2-0.1-0.5-0.2c3-2.7,4.7-6.8,5.8-10.8C255.5,200.4,253.1,204.2,251.6,206.2z M256.8,174c0.1-0.1,0.2-0.1,0.4-0.2
		c1.7,2.1,0.9,5.4,0.1,7.3C256.6,178.4,255.9,174.9,256.8,174z M248.4,184.8c0.2,0.2,0.5,0.2,0.6,0c1.3-1.2,2.6-1.8,3.7-2.1
		c-2.1,1-3.5,2.7-3.6,2.8c-0.1,0.2-0.1,0.4,0,0.5c0,0,0.1,0.1,0.1,0.1c0.2,0.2,0.5,0.1,0.6-0.1c0,0,2.7-3.2,5.9-3.2c0,0,0,0,0,0
		c0,0,0.1,0,0.2,0c0.1,0,0.3,0,0.6,0.1c0,0,0.1,0,0.1,0c0,0,0,0.1,0,0.1c0,0,0,0,0,0c0,0,0,0,0,0c0,0,0,0,0,0c0,0.4,0,1.2-0.1,2.1
		c-0.7,1.3-2.5,3.2-6.4,5.6c-0.2,0.1-0.3,0.4-0.1,0.6c0,0,0,0,0,0c0.1,0.2,0.4,0.3,0.6,0.1c1.3-0.8,2.4-1.6,3.3-2.3
		c-0.6,0.7-1.4,1.5-2.2,2.1c-0.2,0.1-0.2,0.4-0.1,0.6l0,0c0.2,0.2,0.4,0.3,0.6,0.1c1.9-1.4,3.3-3.2,4.1-4.6
		c-0.6,5.2-2.3,13.2-7.1,16.8c-3.9-1.3-13-3.3-22.1,1.6l-3-4.4c8-6.5,9.6-15.7,9.9-19.8c5.3-3.1,13.5-1.5,18.6,0
		c-1.3,0.3-2.7,1-4.2,2.4C248.3,184.4,248.3,184.7,248.4,184.8z M246.5,179.2c-4.1-0.6-8.7-0.5-12.2,1.2c0-0.4,0-0.5,0-0.6l0-0.5
		l-0.5-0.1c-0.1,0-0.2-0.1-0.3-0.1C235.8,178.5,240.3,177.7,246.5,179.2z"/>
	<path fill="#DD3E2B" d="M226.3,193.2c0.2,0.2,0.5,0.1,0.6-0.1c3.6-4.1,3.7-9.6,3.7-9.9c0-0.2-0.2-0.4-0.5-0.4
		c-0.3,0-0.5,0.2-0.4,0.5c0,0.1,0,5.4-3.5,9.3C226.1,192.7,226.1,193,226.3,193.2C226.2,193.2,226.2,193.2,226.3,193.2z"/>
	<path fill="#DD3E2B" d="M191.5,226.8c0,0.1,0,0.1,0.1,0.2c2.7,4,5.7,2.7,5.8,2.7c15-4.4,25.2,8.4,25.3,8.6c0.2,0.2,0.5,0.3,0.8,0.2
		l3.9-1.8c0.2-0.1,0.3-0.2,0.3-0.4c0.1-0.2,0-0.4-0.1-0.5l-15.4-23l-15.2-22.7c-0.1-0.2-0.3-0.3-0.5-0.3c-0.2,0-0.4,0-0.5,0.2
		l-3.1,2.9c-0.2,0.2-0.3,0.5-0.1,0.8c0.1,0.1,8.1,14.4-1.6,26.6c-0.1,0.1-2.4,2.4,0.3,6.4C191.3,226.7,191.4,226.8,191.5,226.8z
		 M192,221.1c9.3-11.6,3.4-25,2-27.7l2.2-2l14.8,22l15,22.4l-2.7,1.3c-1.9-2.2-12.1-12.8-26.4-8.6c-0.1,0-2.3,0.7-4.4-2.4
		c0-0.1,0,0.1,0,0c0-0.1,0-0.1-0.1-0.2C190.3,222.9,191.9,221.2,192,221.1z"/>
	<path fill="#DD3E2B" d="M276.7,423.8c0.1,0.2,0.4,0.3,0.6,0.2c0.2-0.1,0.4-0.4,0.3-0.6c-0.1-0.2-2.3-5.3-7.2-7.7
		c-0.2-0.1-0.5,0-0.6,0.2c0,0,0,0.1,0,0.1c0,0.2,0.1,0.4,0.2,0.5C274.6,418.8,276.7,423.8,276.7,423.8z"/>
	<path fill="#DD3E2B" d="M273.6,399.4c5.5-0.3,9.4-4.2,9.6-4.4c0.2-0.2,0.2-0.5,0-0.6c-0.2-0.2-0.5-0.2-0.6,0c0,0-3.9,3.8-9,4.1
		c-0.2,0-0.4,0.2-0.4,0.4c0,0,0,0.1,0,0.1C273.2,399.2,273.4,399.4,273.6,399.4z"/>
	<path fill="#DD3E2B" d="M258.6,432.8l0,0.5l0.5,0.1c0.4,0.1,10.2,1.3,20.8-6.1c1.8,0.1,11.8-0.1,22.2-12.5c0.3,2.5,1,6.9,2.9,7.6
		c0.4,0.2,0.9,0.1,1.3-0.1c0.3-0.1,0.5-0.3,0.8-0.6c0.2-0.1,3.2-3.1-3.5-8.1c0,0,0,0,0,0c0,0,0,0,0.1,0c4.8-1.2,6.2-3,6.5-4.4
		c0.2-0.9-0.1-1.6-0.2-1.6c-0.4-1-1-1.5-1.7-1.5c-2-0.1-4.4,3.8-5.6,6c-4.9-15.4-14.1-19.3-15.8-19.9c-7-10.8-16.5-13.4-16.9-13.5
		l-0.5-0.1l-0.2,0.5c-2.3,4.9-3.8,9.4-4.6,13.6c-1.2,6.2-0.4,9.5-0.1,10.4l-1.2,6c-0.6,0.7-2.6,3.4-3.8,9.6
		C258.7,422.6,258.4,427.4,258.6,432.8z M307.1,420.1c-0.1,0.3-0.1,0.5-0.2,0.6c0.1-1.5-0.5-3-1.3-4.3
		C307.1,418.2,307.3,419.4,307.1,420.1z M309.3,409c-0.1,0.7-0.7,1.7-2.6,2.7c1.1-0.8,2.2-1.9,2.6-3.3
		C309.4,408.6,309.4,408.8,309.3,409z M308.3,407c0.1,0,0.3,0.1,0.4,0.2c-0.3,2.7-3.2,4.4-5.1,5.3C305,409.9,307.1,406.9,308.3,407z
		 M305.8,421.6c-0.1,0.1-0.3,0.1-0.4,0c-1.2-0.4-1.9-3.9-2.3-6.7C304.5,416.4,306.5,419.1,305.8,421.6z M281.9,426
		c0.1-0.1,0.2-0.1,0.2-0.2l0.4-0.3l-0.2-0.4c0,0-0.1-0.2-0.2-0.5c4,0.2,8.2-1.5,11.8-3.6C288.8,424.6,284.3,425.7,281.9,426z
		 M288.3,395.1l0.3-0.3l-0.2-0.4c0-0.1-0.1-0.2-0.1-0.3c2.2,1.2,5.9,3.8,9.2,9.2c-2.5-3.3-5.7-6.5-9.5-7.8
		C288.1,395.2,288.2,395.1,288.3,395.1z M265.9,392.9C265.9,392.9,265.9,392.9,265.9,392.9l1.8,0.8c0.2,0.1,0.5,0,0.6-0.2
		c0.1-0.2,0-0.5-0.2-0.6l-1.8-0.8c-0.1,0-0.2,0-0.2,0c0.4-2.1,1.1-4.4,2-6.7l1.9-0.2c0.3,0,0.4-0.2,0.4-0.5c0-0.2-0.2-0.4-0.5-0.4
		l-1.4,0.2c0.5-1.4,1.1-2.9,1.8-4.4c2.1,0.7,9.9,3.8,15.8,13c0.3,0.5,0.7,1,1,1.6c-0.2,0.2-0.5,0.4-0.8,0.8
		c-2.8,2.4-10.3,8-20.4,6.9C265.4,401.2,264.9,398.2,265.9,392.9z M265.7,403.5c10.2,1,17.9-4.3,21-7c5.9,1.6,10.6,8.5,13.1,13.1
		c-1.1-0.7-2.6-1.2-4.7-1.3c-0.3,0-0.5,0.2-0.5,0.4c0,0.2,0.2,0.5,0.4,0.5c1.8,0.1,3.1,0.6,4.1,1.1c-2.2-0.7-4.4-0.6-4.5-0.6
		c-0.2,0-0.4,0.2-0.4,0.4c0,0,0,0.1,0,0.1c0,0.3,0.2,0.4,0.5,0.4c0.1,0,4.2-0.3,6.4,1.9c0,0,0,0,0,0c0,0,0.1,0.1,0.2,0.1
		c0.1,0.1,0.2,0.2,0.4,0.5c0,0,0,0.1,0,0.1c0,0-0.1,0.1-0.1,0.1c0,0,0,0,0,0c0,0,0,0,0,0c0,0,0,0,0,0c-0.3,0.3-0.8,0.8-1.5,1.4
		c-1.5,0.4-4,0.5-8.5-0.6c-0.2,0-0.5,0.1-0.5,0.3c0,0,0,0,0,0c0,0.2,0.1,0.5,0.3,0.5c1.5,0.4,2.8,0.6,4,0.7c-1,0.1-2,0.1-3.1-0.1
		c-0.2,0-0.5,0.1-0.5,0.4l0,0c0,0.3,0.1,0.5,0.4,0.5c2.3,0.3,4.6,0,6.2-0.4c-4.1,3.3-11,7.7-16.9,6.9c-1.9-3.6-6.9-11.5-16.8-14.5
		L265.7,403.5z M259.9,427.6l1.2,0.7c0.2,0.1,0.5,0,0.6-0.2c0.1-0.2,0-0.5-0.2-0.6l-1.6-0.9c0.1-2.5,0.3-4.8,0.7-7
		c0.1,0,0.1,0.1,0.2,0.1l2-0.1c0.3,0,0.5-0.2,0.4-0.5c0-0.3-0.2-0.5-0.5-0.4l-2,0.1c0,0,0,0-0.1,0c1.1-5.4,2.7-8,3.4-8.8
		c9.8,2.9,14.7,10.8,16.3,14.1c0,0,0,0.1,0.1,0.1c0.2,0.4,0.3,0.7,0.4,0.9c-0.5,0.4-1,0.8-1.5,1.1c-8.9,6.2-17.3,6.1-19.5,6
		C259.9,430.6,259.8,429,259.9,427.6z"/>
	<path fill="#DD3E2B" d="M239.1,428.9l4,1.5c0.2,0.1,0.4,0,0.5-0.1c0.2-0.1,0.3-0.2,0.3-0.4l5.4-27.2l5.3-26.8c0-0.2,0-0.4-0.1-0.5
		c-0.1-0.2-0.3-0.2-0.5-0.3l-4.3-0.2c-0.3,0-0.6,0.2-0.7,0.5c0,0.2-4.5,16-20,17.6c-0.1,0-3.4,0-4.4,4.7c0,0.1,0,0.2,0,0.2
		c0,0.1-0.1,0.1-0.1,0.2c-0.9,4.7,2.1,6,2.2,6c13.7,7.5,11.8,23.8,11.8,24C238.6,428.5,238.8,428.8,239.1,428.9z M227.4,403.1
		c-0.1,0-2.1-1.2-1.4-4.8c0-0.1,0,0.1,0,0c0-0.1,0.1-0.1,0.1-0.2c0.7-3.6,3-3.7,3.1-3.7c14.8-1.6,20.1-15.3,21-18.1l3,0.1l-5.1,26
		l-5.2,26.4l-2.8-1C240.2,424.9,240.5,410.3,227.4,403.1z"/>
	<path fill="#DD3E2B" d="M170.8,581.8c0.2,0,0.4-0.2,0.4-0.5c0-0.3-0.2-0.5-0.5-0.4c-0.1,0-5.4,0-9.3-3.5c-0.2-0.1-0.4-0.2-0.6,0
		c0,0,0,0-0.1,0.1c-0.2,0.2-0.1,0.5,0.1,0.6C165,581.8,170.5,581.9,170.8,581.8z"/>
	<path fill="#DD3E2B" d="M146.4,587.2c0,0-0.1,0-0.1,0.1c-0.2,0.1-0.2,0.3-0.2,0.5c1.7,4.9-0.3,9.8-0.3,9.9c-0.1,0.2,0,0.5,0.2,0.6
		c0.2,0.1,0.5,0,0.6-0.2c0.1-0.2,2.1-5.4,0.4-10.5C146.9,587.2,146.6,587.1,146.4,587.2z"/>
	<path fill="#DD3E2B" d="M115.7,573.8c-0.2,0.2-0.3,0.5-0.2,0.8l1.8,3.9c0.1,0.2,0.2,0.3,0.4,0.3c0.2,0.1,0.4,0,0.5-0.1l23-15.4
		l22.7-15.2c0.2-0.1,0.3-0.3,0.3-0.5c0-0.2,0-0.4-0.2-0.5l-2.9-3.1c-0.2-0.2-0.5-0.3-0.8-0.1c-0.1,0.1-14.4,8.1-26.6-1.6
		c-0.1-0.1-2.4-2.4-6.4,0.3c-0.1,0-0.1,0.1-0.2,0.2c-0.1,0-0.1,0-0.2,0.1c-4,2.7-2.7,5.7-2.7,5.8
		C128.7,563.6,115.8,573.8,115.7,573.8z M125.5,548.1c0-0.1-0.7-2.3,2.4-4.4c0.1,0-0.1,0,0,0c0.1,0,0.1,0,0.2-0.1
		c3.1-2.1,4.7-0.5,4.8-0.4c11.6,9.3,25,3.4,27.7,2l2,2.2l-22,14.8l-22.4,15l-1.3-2.7C119.1,572.6,129.7,562.5,125.5,548.1z"/>
	<path fill="#DD3E2B" d="M172.5,607.7c7.4-14.4,3.7-23.7,2.9-25.3c2.7-12.6-2.2-21.2-2.4-21.5l-0.3-0.5l-0.5,0.2
		c-5,1.9-9.4,4-12.8,6.3c-5.3,3.5-7,6.5-7.4,7.2l-5.1,3.4c-0.9,0.1-4.3,0.6-9.5,4.1c-3.5,2.3-7.1,5.5-10.7,9.5l-0.4,0.4l0.3,0.4
		c0.3,0.4,6.3,8.1,19,10.4c1.2,1.3,8.4,8.3,24.5,6.9c-1.5,1.9-4.2,5.6-3.3,7.4c0.2,0.4,0.5,0.7,1,0.8c0.3,0.1,0.6,0.1,1,0.1
		c0.2,0,4.5,0.1,3.2-8.2c0,0,0,0,0,0c0,0,0,0,0.1,0c4.3,2.6,6.5,2.3,7.7,1.5c0.8-0.5,1-1.2,1-1.3c0.4-1,0.4-1.7-0.1-2.3
		C179.3,606,174.9,607,172.5,607.7z M174.9,597.7c0.6-4.1,0.5-8.7-1.2-12.2c0.4,0,0.5,0,0.6,0l0.5,0l0.1-0.5c0-0.1,0.1-0.2,0.1-0.3
		C175.6,587.1,176.3,591.6,174.9,597.7z M160,568.2C160,568.2,160,568.2,160,568.2l0.7,1.9c0.1,0.2,0.4,0.4,0.6,0.3
		c0.2-0.1,0.4-0.4,0.3-0.6l-0.7-1.9c0-0.1-0.1-0.1-0.1-0.2c1.8-1.2,3.9-2.3,6.1-3.4l1.5,1.2c0.2,0.2,0.5,0.1,0.6-0.1
		c0.2-0.2,0.1-0.5-0.1-0.6l-1.1-0.9c1.4-0.6,2.9-1.2,4.4-1.8c1,2,4.3,9.7,2,20.3c-0.1,0.6-0.3,1.2-0.4,1.8c-0.3,0-0.7,0-1.1,0
		c-3.7-0.2-12.9-1.6-19.3-9.6C153.8,573.7,155.5,571.2,160,568.2z M146,601.2c-10.7-1.9-16.6-7.9-18-9.6c1.1-1.2,2.2-2.3,3.3-3.3
		l0.4,1.3c0.1,0.2,0.3,0.4,0.6,0.3c0.2-0.1,0.4-0.3,0.3-0.6l-0.5-1.8c1.8-1.7,3.7-3.2,5.5-4.4c0,0.1,0.1,0.2,0.1,0.2l1.4,1.4
		c0.2,0.2,0.5,0.2,0.6,0c0.2-0.2,0.2-0.5,0-0.6l-1.4-1.3c0,0,0,0-0.1,0c4.5-3,7.6-3.7,8.6-3.8c4.9,8.9,2.7,18,1.5,21.5
		c0,0,0,0.1,0,0.1c-0.1,0.4-0.3,0.7-0.4,0.9C147.2,601.4,146.6,601.4,146,601.2z M147.9,602.8c0.1,0,0.2,0,0.3,0l0.5,0.1l0.2-0.4
		c0,0,0.1-0.2,0.2-0.5c2.7,3,6.8,4.7,10.8,5.8C153.7,606.8,149.8,604.4,147.9,602.8z M167.9,616.7c-0.1-0.1-0.2-0.2-0.3-0.3
		c-0.5-1.1,1.4-4.1,3.1-6.4C170.7,612.1,170.2,615.4,167.9,616.7z M169.9,616.5c-0.2,0.2-0.4,0.2-0.6,0.3c1.1-1,1.7-2.5,2.1-4
		C171.2,615.2,170.5,616.1,169.9,616.5z M169.8,599.7c-0.2-0.2-0.5-0.2-0.6,0c-0.2,0.2-0.2,0.5,0,0.6c1.2,1.3,1.8,2.6,2.1,3.7
		c-1-2.1-2.7-3.5-2.8-3.6c-0.2-0.1-0.4-0.1-0.5,0c0,0-0.1,0.1-0.1,0.1c-0.2,0.2-0.1,0.5,0.1,0.6c0,0,3.2,2.7,3.2,5.9c0,0,0,0,0,0
		c0,0,0,0.1,0,0.2c0,0.1,0,0.3-0.1,0.6c0,0,0,0.1,0,0.1c0,0-0.1,0-0.1,0c0,0,0,0,0,0c0,0,0,0,0,0c0,0,0,0,0,0c-0.4,0-1.2,0-2.1-0.1
		c-1.3-0.7-3.2-2.5-5.6-6.4c-0.1-0.2-0.4-0.3-0.6-0.1c0,0,0,0,0,0c-0.2,0.1-0.3,0.4-0.1,0.6c0.8,1.3,1.6,2.4,2.3,3.3
		c-0.7-0.6-1.5-1.4-2.1-2.2c-0.1-0.2-0.4-0.2-0.6-0.1l0,0c-0.2,0.2-0.3,0.4-0.1,0.6c1.4,1.9,3.2,3.3,4.6,4.1
		c-5.2-0.6-13.2-2.3-16.8-7.1c1.3-3.9,3.3-13-1.6-22.1l4.4-3c6.5,8,15.7,9.6,19.8,9.9c3.1,5.3,1.5,13.5,0,18.6
		C171.9,602.7,171.2,601.3,169.8,599.7z M179.3,610.2c-0.6,0.4-1.7,0.7-3.7,0c1.4,0.2,2.9,0.2,4.2-0.5
		C179.6,609.9,179.5,610.1,179.3,610.2z M172.9,608.6c2.8-0.8,6.3-1.4,7.1-0.5c0.1,0.1,0.1,0.2,0.2,0.4
		C178,610.2,174.8,609.3,172.9,608.6z"/>
	<path fill="#DD3E2B" d="M172.7,124.8c-0.2,0-5.8,0.1-9.9,3.7c-0.2,0.2-0.2,0.5,0,0.6c0,0,0.1,0.1,0.1,0.1c0.2,0.1,0.4,0.1,0.6,0
		c3.8-3.4,9.2-3.5,9.3-3.5c0.2,0,0.4-0.2,0.5-0.4C173.2,125,173,124.8,172.7,124.8z"/>
	<path fill="#DD3E2B" d="M148,108.4c-0.2,0.1-0.4,0.4-0.2,0.6c0,0.1,2,5,0.3,9.9c-0.1,0.2,0,0.4,0.2,0.5c0,0,0.1,0,0.1,0.1
		c0.2,0.1,0.5-0.1,0.6-0.3c1.8-5.2-0.3-10.3-0.4-10.5C148.5,108.4,148.2,108.3,148,108.4z"/>
	<path fill="#DD3E2B" d="M173.7,96.9C173.7,96.9,173.7,96.9,173.7,96.9c0.8-5-0.4-7-1.6-7.8c-0.8-0.5-1.5-0.5-1.6-0.5
		c-1.1,0-1.7,0.3-2,1c-0.8,1.8,1.8,5.5,3.4,7.4c-16.1-1.4-23.3,5.6-24.5,6.9c-12.7,2.3-18.7,10.1-19,10.5l-0.3,0.4l0.4,0.4
		c3.6,4,7.3,7.1,10.7,9.5c5.3,3.5,8.7,4,9.5,4.1l5.1,3.4c0.4,0.8,2.2,3.7,7.4,7.2c3.5,2.3,7.8,4.4,12.9,6.3l0.5,0.2l0.3-0.5
		c0.2-0.4,5.1-8.9,2.4-21.5c0.8-1.6,4.5-10.9-3-25.3c2.4,0.7,6.8,1.7,8.1,0.2c0.3-0.3,0.4-0.8,0.4-1.3c0-0.3-0.1-0.6-0.3-1
		C182.5,96.5,180.9,92.6,173.7,96.9C173.7,96.9,173.7,96.9,173.7,96.9z M181,96.2c0.2,0.2,0.4,0.3,0.5,0.5c-1.4-0.7-3-0.7-4.4-0.4
		C179.2,95.5,180.4,95.8,181,96.2z M181.9,98c0,0.2-0.1,0.3-0.2,0.4c-0.8,0.9-4.3,0.3-7.1-0.5C176.6,97.1,179.8,96.3,181.9,98z
		 M171.6,89.9c0.6,0.4,1.3,1.3,1.4,3.4c-0.3-1.4-1-2.7-2-3.7C171.2,89.7,171.4,89.8,171.6,89.9z M169.3,90c0.1-0.1,0.1-0.2,0.3-0.3
		c2.4,1.3,2.9,4.7,2.9,6.7C170.7,94.2,168.8,91.2,169.3,90z M161.7,98.7c-4,1-8.2,2.8-10.8,5.8c-0.1-0.3-0.2-0.5-0.2-0.5l-0.2-0.4
		l-0.5,0.1c-0.1,0-0.2,0-0.3,0C151.6,102.2,155.5,99.8,161.7,98.7z M148.5,127.6c-1-0.1-4-0.8-8.5-3.7c0,0,0,0,0.1,0l1.4-1.3
		c0.2-0.2,0.2-0.5,0-0.6c-0.2-0.2-0.5-0.2-0.6,0l-1.4,1.3c-0.1,0.1-0.1,0.1-0.1,0.2c-1.8-1.2-3.6-2.7-5.5-4.4l0.5-1.8
		c0.1-0.2-0.1-0.5-0.3-0.6c-0.2-0.1-0.5,0.1-0.6,0.3l-0.4,1.4c-1.1-1-2.2-2.2-3.4-3.4c1.4-1.6,7.4-7.7,18-9.6
		c0.6-0.1,1.2-0.2,1.8-0.3c0.1,0.3,0.2,0.6,0.4,1.1C151.2,109.5,153.4,118.6,148.5,127.6z M174,144.4c-1.5-0.6-2.9-1.1-4.3-1.8
		l1.1-0.9c0.2-0.2,0.2-0.4,0.1-0.6c-0.2-0.2-0.4-0.2-0.6-0.1l-1.4,1.2c-2.3-1.1-4.3-2.2-6.2-3.4c0.1-0.1,0.1-0.1,0.1-0.2l0.7-1.8
		c0.1-0.2,0-0.5-0.3-0.6c-0.2-0.1-0.5,0-0.6,0.3l-0.7,1.8c0,0,0,0,0,0.1c-4.6-3-6.3-5.6-6.8-6.5c6.4-7.9,15.6-9.4,19.3-9.6
		c0,0,0.1,0,0.1,0c0.4,0,0.8,0,1,0c0.2,0.6,0.3,1.2,0.4,1.8C178.3,134.7,175,142.5,174,144.4z M176.7,121.7c0-0.1,0-0.2-0.1-0.3
		l-0.1-0.5l-0.5,0c0,0-0.2,0-0.5,0c1.7-3.6,1.8-8.1,1.2-12.2C178.1,114.9,177.4,119.4,176.7,121.7z M174,121.1
		c-4.1,0.3-13.3,2-19.8,9.9l-4.4-3c4.9-9.1,2.9-18.2,1.6-22.1c3.7-4.8,11.9-6.5,17.1-7.1c-1.1,0.8-2.1,2-3,3.8
		c-0.1,0.2,0,0.5,0.2,0.6c0.2,0.1,0.5,0,0.6-0.2c0.8-1.6,1.7-2.7,2.6-3.4c-1.5,1.7-2.2,3.8-2.2,4c-0.1,0.2,0,0.4,0.2,0.5
		c0,0,0.1,0.1,0.1,0.1c0.2,0.1,0.5-0.1,0.6-0.3c0-0.1,1.3-4,4.2-5.2c0,0,0,0,0,0c0,0,0.1-0.1,0.2-0.1c0.1-0.1,0.3-0.1,0.6-0.2
		c0,0,0.1,0,0.1,0c0,0,0,0.1,0,0.1c0,0,0,0,0,0c0,0,0,0,0,0c0,0,0,0,0,0c0.2,0.4,0.4,1.1,0.7,2c-0.2,1.5-1.1,3.9-3.8,7.7
		c-0.1,0.2-0.1,0.5,0.1,0.6c0,0,0,0,0,0c0.2,0.1,0.5,0.1,0.6-0.1c0.9-1.2,1.6-2.4,2.2-3.4c-0.3,0.9-0.7,1.9-1.3,2.8
		c-0.1,0.2-0.1,0.5,0.1,0.6l0,0c0.2,0.1,0.5,0.1,0.6-0.1c1.2-2,1.8-4.2,2-5.9C175.5,107.9,177,115.9,174,121.1z"/>
	<path fill="#DD3E2B" d="M142.7,142.9L120,127.8c-0.2-0.1-0.4-0.1-0.5-0.1c-0.2,0-0.3,0.2-0.4,0.3l-1.8,3.9c-0.1,0.3,0,0.6,0.2,0.8
		c0.1,0.1,13,10.2,8.6,25.2c-0.1,0.1-1.3,3.2,2.7,5.8c0.1,0,0.1,0.1,0.2,0.1c0,0.1,0.1,0.1,0.2,0.2c4,2.7,6.3,0.4,6.4,0.3
		c12.2-9.8,26.5-1.8,26.7-1.7c0.3,0.1,0.6,0.1,0.8-0.1l2.9-3.2c0.1-0.1,0.2-0.3,0.2-0.5c0-0.2-0.1-0.3-0.3-0.5L142.7,142.9z
		 M162.4,161.2c-2.6-1.3-16-7.3-27.7,2.1c-0.1,0.1-1.9,1.5-4.9-0.6c-0.1,0,0,0,0,0c0-0.1-0.1-0.1-0.2-0.2c-3.1-2.1-2.3-4.2-2.2-4.3
		c4.2-14.3-6.4-24.4-8.7-26.3l1.3-2.7l22,14.7l22.4,15L162.4,161.2z"/>
	<path fill="#DD3E2B" d="M308.4,287c-0.2-0.9-0.7-1.4-0.8-1.5c-0.7-0.8-1.4-1-2.1-0.8c-1.9,0.7-2.6,5.2-2.9,7.6
		c-10.4-12.4-20.4-12.5-22.2-12.4c-10.6-7.3-20.4-6.1-20.8-6l-0.5,0.1l0,0.5c-0.2,5.4,0.1,10.2,0.9,14.3c1.2,6.2,3.3,9,3.8,9.6
		l1.2,6c-0.3,0.8-1.1,4.2,0.2,10.4c0.8,4.1,2.4,8.7,4.6,13.5l0.2,0.5l0.5-0.1c0.4-0.1,9.9-2.7,16.9-13.5c1.7-0.6,10.9-4.6,15.8-20
		c1.2,2.2,3.6,6,5.6,5.9c0.5,0,0.8-0.2,1.2-0.6c0.2-0.2,0.4-0.5,0.5-0.9c0.1-0.2,1.8-4.1-6.3-6.1c0,0,0,0,0,0c0,0,0,0,0,0
		C308.1,290.7,308.7,288.4,308.4,287z M294.3,286.4c-3.6-2.1-7.8-3.8-11.8-3.6c0.1-0.3,0.2-0.5,0.2-0.5l0.2-0.4l-0.4-0.3
		c-0.1-0.1-0.2-0.1-0.2-0.2C284.7,281.7,289.2,282.8,294.3,286.4z M264.6,297.5c-0.6-0.8-2.3-3.4-3.4-8.7c0,0,0,0,0.1,0l2,0.1
		c0.3,0,0.5-0.2,0.5-0.4c0-0.3-0.2-0.5-0.4-0.5l-2-0.1c-0.1,0-0.2,0-0.2,0.1c-0.4-2.1-0.6-4.5-0.8-7l1.7-0.9
		c0.2-0.1,0.3-0.4,0.2-0.6c-0.1-0.2-0.4-0.3-0.6-0.2l-1.3,0.7c-0.1-1.5-0.1-3.1,0-4.8c2.2-0.1,10.6-0.2,19.5,6
		c0.5,0.3,1,0.7,1.5,1.1c-0.1,0.2-0.3,0.6-0.5,1C279.2,286.7,274.4,294.7,264.6,297.5z M286.4,314.5c-5.8,9.1-13.7,12.3-15.8,13
		c-0.7-1.5-1.3-2.9-1.8-4.3l1.4,0.1c0.3,0,0.5-0.1,0.5-0.4c0-0.2-0.1-0.5-0.4-0.5l-1.9-0.2c-0.9-2.4-1.5-4.6-2-6.7
		c0.1,0,0.2,0,0.2,0l1.8-0.8c0.2-0.1,0.3-0.4,0.2-0.6c-0.1-0.2-0.4-0.3-0.6-0.2l-1.8,0.8c0,0,0,0-0.1,0c-1.1-5.4-0.5-8.4-0.2-9.4
		c10.1-1.1,17.7,4.4,20.4,6.9c0,0,0.1,0.1,0.1,0.1c0.3,0.3,0.6,0.5,0.7,0.7C287.1,313.4,286.8,314,286.4,314.5z M288.6,313.3
		c0.1-0.1,0.1-0.2,0.1-0.3l0.2-0.4l-0.3-0.3c0,0-0.1-0.2-0.4-0.4c3.8-1.3,7-4.5,9.5-7.8C294.5,309.5,290.8,312.2,288.6,313.3z
		 M302.2,294.1C302.2,294.1,302.2,294.1,302.2,294.1C302.2,294.1,302.2,294.1,302.2,294.1c-0.2,0.5-0.5,1.1-0.9,1.9
		c-1.2,1-3.5,2-8.1,2.7c-0.2,0-0.4,0.3-0.4,0.5c0,0,0,0,0,0c0,0.2,0.3,0.4,0.5,0.3c1.5-0.2,2.8-0.5,3.9-0.8
		c-0.9,0.4-1.9,0.8-2.9,1.1c-0.2,0.1-0.4,0.3-0.3,0.5l0,0c0.1,0.3,0.3,0.4,0.5,0.3c2.3-0.6,4.2-1.7,5.6-2.7
		c-2.6,4.6-7.2,11.3-13,12.8c-3.1-2.6-10.8-8-21-7l-1-5.2c9.9-3,14.9-10.8,16.8-14.5c6-0.8,13.1,3.8,17.2,7.1
		c-1.3-0.2-2.9-0.1-4.8,0.5c-0.2,0.1-0.4,0.3-0.3,0.6c0.1,0.2,0.3,0.4,0.6,0.3c1.7-0.6,3.1-0.7,4.3-0.5c-2.3,0.1-4.3,1.1-4.4,1.2
		c-0.2,0.1-0.3,0.3-0.2,0.5c0,0,0,0.1,0,0.1c0.1,0.2,0.4,0.3,0.6,0.2c0,0,3.8-1.9,6.6-0.7c0,0,0,0,0,0c0,0,0.1,0,0.2,0.1
		c0.1,0.1,0.3,0.1,0.5,0.3c0,0,0.1,0,0.1,0.1C302.2,294,302.2,294,302.2,294.1C302.2,294.1,302.2,294.1,302.2,294.1z M309.7,298.3
		c0.1,0.3,0,0.5,0,0.7c-0.5-1.4-1.7-2.6-2.9-3.4C309,296.5,309.6,297.6,309.7,298.3z M309.1,300.2c-0.1,0.1-0.2,0.2-0.4,0.2
		c-1.2,0.1-3.3-2.8-4.7-5.3C305.9,295.8,308.8,297.5,309.1,300.2z M307.5,287.2c0.1,0.7,0,1.8-1.4,3.4c0.7-1.2,1.3-2.6,1.2-4.1
		C307.4,286.8,307.5,287,307.5,287.2z M303.5,292.5c0.3-2.8,1.1-6.4,2.3-6.8c0.1,0,0.3-0.1,0.4,0C307,288.3,305,291,303.5,292.5z"/>
	<path fill="#DD3E2B" d="M277.8,283.6c-0.2-0.1-0.5,0-0.6,0.2c0,0-2.1,5-6.8,7.2c-0.2,0.1-0.3,0.3-0.2,0.5c0,0,0,0.1,0,0.1
		c0.1,0.2,0.4,0.3,0.6,0.2c4.9-2.4,7.1-7.5,7.2-7.7C278.1,284,278,283.7,277.8,283.6z"/>
	<path fill="#DD3E2B" d="M274.1,308.3c-0.3,0-0.5,0.2-0.5,0.4c0,0,0,0.1,0,0.1c0,0.2,0.2,0.4,0.4,0.4c5.1,0.3,9,4.1,9,4.1
		c0.2,0.2,0.5,0.2,0.6,0c0.2-0.2,0.2-0.5,0-0.6C283.5,312.5,279.6,308.6,274.1,308.3z"/>
	<path fill="#DD3E2B" d="M227.3,303.1c-0.1,0.1-3.2,1.3-2.2,6c0,0.1,0,0.2,0.1,0.2c0,0.1,0,0.1,0,0.2c0.9,4.7,4.2,4.7,4.3,4.7
		c15.6,1.7,20,17.5,20.1,17.6c0.1,0.3,0.4,0.5,0.7,0.5l4.3-0.2c0.2,0,0.4-0.1,0.5-0.3c0.1-0.1,0.2-0.3,0.1-0.5l-5.4-27.2l-5.3-26.7
		c0-0.2-0.2-0.4-0.3-0.4c-0.2-0.1-0.4-0.1-0.5-0.1l-4,1.5c-0.3,0.1-0.5,0.4-0.4,0.7C239,279.4,241,295.6,227.3,303.1z M240.4,279.5
		l2.8-1l5.2,26l5.3,26.4l-3,0.1c-0.9-2.8-6.2-16.5-21.1-18.1c-0.1,0-2.4-0.3-3.1-3.9c0-0.1,0,0.1,0,0c0-0.1,0-0.1,0-0.2
		c-0.7-3.6,1.3-4.5,1.5-4.6C240.9,297.1,240.6,282.5,240.4,279.5z"/>
	<path fill="#DD3E2B" d="M224.9,514.1C224.9,514.1,224.9,514.1,224.9,514.1c-0.2,0.3-0.2,0.5,0,0.6c3.4,3.8,3.5,9.2,3.5,9.3
		c0,0.2,0.2,0.4,0.4,0.5c0.3,0,0.5-0.2,0.5-0.5c0-0.2-0.1-5.8-3.7-9.9C225.4,513.9,225.1,513.9,224.9,514.1z"/>
	<path fill="#DD3E2B" d="M245.4,499.8c0.2-0.1,0.3-0.4,0.2-0.6c-0.1-0.2-0.4-0.4-0.6-0.2c-0.1,0-5,2-9.9,0.3c-0.2-0.1-0.4,0-0.5,0.2
		c0,0,0,0.1-0.1,0.1c-0.1,0.2,0.1,0.5,0.3,0.6C240.1,502,245.2,499.9,245.4,499.8z"/>
	<path fill="#DD3E2B" d="M191.6,514.3l3.2,2.9c0.1,0.1,0.3,0.2,0.5,0.2c0.2,0,0.3-0.1,0.5-0.3l15.4-23l15.1-22.7
		c0.1-0.2,0.1-0.4,0.1-0.5c0-0.2-0.2-0.3-0.3-0.4l-3.9-1.8c-0.3-0.1-0.6,0-0.8,0.2c-0.1,0.1-10.2,13-25.2,8.6
		c-0.1-0.1-3.2-1.3-5.8,2.7c0,0.1-0.1,0.1-0.1,0.2c-0.1,0-0.1,0.1-0.2,0.2c-2.7,4-0.4,6.3-0.3,6.4c9.8,12.2,1.8,26.5,1.7,26.7
		C191.3,513.7,191.4,514.1,191.6,514.3z M190.7,485.9c-0.1-0.1-1.5-1.9,0.6-4.9c0-0.1,0,0,0,0c0.1,0,0.1-0.1,0.2-0.2
		c2.1-3.1,4.2-2.3,4.3-2.2c14.3,4.2,24.4-6.4,26.3-8.7l2.7,1.3l-14.7,22.1l-15,22.4l-2.2-2C194.2,511,200.1,497.6,190.7,485.9z"/>
	<path fill="#DD3E2B" d="M250,498.6c-2.3-12.7-10.1-18.7-10.5-19l-0.4-0.3l-0.4,0.4c-4,3.6-7.1,7.3-9.5,10.7c-3.5,5.3-4,8.6-4.1,9.5
		l-3.4,5.1c-0.8,0.4-3.7,2.2-7.2,7.4c-2.3,3.5-4.4,7.8-6.3,12.9l-0.2,0.5l0.5,0.3c0.4,0.2,8.9,5.1,21.5,2.4c1.6,0.8,10.9,4.5,25.3-3
		c-0.7,2.4-1.7,6.8-0.2,8.1c0.3,0.3,0.8,0.4,1.3,0.4c0.3,0,0.6-0.1,1-0.3c0.2-0.1,4.2-1.7-0.2-8.8c0,0,0,0,0,0c0,0,0,0,0.1,0
		c4.9,0.8,6.9-0.4,7.7-1.6c0.5-0.8,0.5-1.5,0.5-1.6c0-1.1-0.3-1.7-1-2c-1.8-0.8-5.5,1.8-7.4,3.4C258.3,507,251.3,499.8,250,498.6z
		 M257.8,528.3c0.8,2.2,0.5,3.4,0.1,4c-0.2,0.2-0.3,0.4-0.5,0.5C258,531.3,258,529.7,257.8,528.3z M264.4,522.2
		c-0.1,0.2-0.1,0.4-0.3,0.6c-0.4,0.6-1.3,1.3-3.4,1.4C262.1,523.9,263.4,523.3,264.4,522.2z M264,520.6c0.1,0.1,0.2,0.1,0.3,0.3
		c-1.3,2.4-4.7,2.9-6.7,2.9C259.8,522,262.9,520,264,520.6z M250,501.9l0.4-0.2l-0.1-0.5c0-0.1,0-0.2,0-0.3c1.5,1.9,3.9,5.8,5,12
		c-1-4-2.8-8.2-5.8-10.8C249.8,502,250,501.9,250,501.9z M230.2,491.3C230.2,491.3,230.2,491.4,230.2,491.3l1.4,1.5
		c0.2,0.2,0.5,0.2,0.6,0c0.2-0.2,0.2-0.5,0-0.6l-1.3-1.4c-0.1-0.1-0.1-0.1-0.2-0.1c1.2-1.8,2.7-3.6,4.4-5.5l1.8,0.5
		c0.2,0.1,0.5-0.1,0.6-0.3c0.1-0.2-0.1-0.5-0.3-0.6l-1.4-0.4c1-1.1,2.2-2.2,3.4-3.4c1.6,1.4,7.7,7.4,9.6,18c0.1,0.6,0.2,1.2,0.3,1.8
		c-0.3,0.1-0.6,0.2-1.1,0.4c-3.5,1.2-12.6,3.4-21.5-1.5C226.6,498.8,227.3,495.8,230.2,491.3z M230,527.2c-10.6,2.3-18.4-1-20.3-2
		c0.6-1.5,1.1-2.9,1.8-4.3l0.9,1.1c0.2,0.2,0.4,0.2,0.6,0.1c0.2-0.2,0.2-0.4,0.1-0.6l-1.2-1.4c1.1-2.3,2.2-4.3,3.4-6.2
		c0,0.1,0.1,0.1,0.2,0.1l1.8,0.7c0.2,0.1,0.5,0,0.6-0.3c0.1-0.2,0-0.5-0.3-0.6l-1.8-0.7c0,0,0,0-0.1,0c3-4.6,5.6-6.3,6.5-6.8
		c7.9,6.4,9.4,15.6,9.6,19.3c0,0,0,0.1,0,0.1c0,0.4,0,0.8,0,1C231.2,526.9,230.6,527.1,230,527.2z M232.3,528c0.1,0,0.2,0,0.3-0.1
		l0.5-0.1l0-0.5c0,0,0-0.2,0-0.5c3.6,1.7,8.1,1.8,12.2,1.2C239.2,529.4,234.7,528.6,232.3,528z M253.5,524.6
		c-1.5-0.2-3.9-1.1-7.7-3.8c-0.2-0.1-0.5-0.1-0.6,0.1c0,0,0,0,0,0c-0.1,0.2-0.1,0.5,0.1,0.6c1.2,0.9,2.4,1.6,3.4,2.2
		c-0.9-0.3-1.9-0.7-2.8-1.3c-0.2-0.1-0.5-0.1-0.6,0.1l0,0c-0.1,0.2-0.1,0.5,0.1,0.6c2,1.2,4.2,1.8,5.9,2c-5.1,1.4-13.1,2.9-18.3-0.1
		c-0.3-4.1-2-13.3-9.9-19.8l3-4.4c9.1,4.9,18.2,2.9,22.1,1.6c4.8,3.7,6.5,11.9,7.1,17.1c-0.8-1.1-2-2.1-3.8-3
		c-0.2-0.1-0.5,0-0.6,0.2c-0.1,0.2,0,0.5,0.2,0.6c1.6,0.8,2.7,1.7,3.4,2.6c-1.7-1.5-3.8-2.2-4-2.2c-0.2-0.1-0.4,0-0.5,0.2
		c0,0-0.1,0.1-0.1,0.1c-0.1,0.2,0.1,0.5,0.3,0.6c0.1,0,4,1.3,5.2,4.2c0,0,0,0,0,0c0,0,0.1,0.1,0.1,0.2c0.1,0.1,0.1,0.3,0.2,0.6
		c0,0,0,0.1,0,0.1c0,0-0.1,0-0.1,0c0,0,0,0,0,0c0,0,0,0,0,0c0,0,0,0,0,0C255,524.1,254.4,524.3,253.5,524.6z M256.1,533.1
		c-0.2,0-0.3-0.1-0.4-0.2c-0.9-0.8-0.3-4.3,0.5-7.1C256.9,527.8,257.7,531,256.1,533.1z"/>
	<path fill="#DD3E2B" d="M22.1,600.8c-0.3,0.1-0.5,0.4-0.5,0.7l0.2,4.3c0,0.2,0.1,0.4,0.3,0.5c0.1,0.1,0.3,0.2,0.5,0.1l27.2-5.4
		l26.7-5.3c0.2,0,0.4-0.2,0.4-0.3c0.1-0.2,0.1-0.4,0.1-0.5l-1.5-4c-0.1-0.3-0.4-0.5-0.7-0.4c-0.2,0-16.4,2-23.9-11.7
		c-0.1-0.1-1.3-3.2-6-2.2c-0.1,0-0.2,0-0.2,0.1c-0.1,0-0.1,0-0.2,0c-4.7,0.9-4.7,4.2-4.7,4.3C38.1,596.3,22.3,600.7,22.1,600.8z
		 M41,580.8c0-0.1,0.3-2.4,3.9-3.1c0.1,0-0.1,0,0,0c0.1,0,0.1,0,0.2,0c3.6-0.7,4.5,1.3,4.6,1.5c7.2,13.1,21.8,12.7,24.8,12.5l1,2.8
		l-26,5.2l-26.4,5.3l-0.1-3C25.8,600.9,39.4,595.7,41,580.8z"/>
	<path fill="#DD3E2B" d="M80,610.8l-0.1-0.5l-0.5,0c-5.4-0.2-10.2,0.1-14.3,0.9c-6.2,1.2-9,3.3-9.6,3.8l-6,1.2
		c-0.8-0.3-4.2-1.1-10.4,0.2c-4.1,0.8-8.7,2.4-13.5,4.6l-0.5,0.2l0.1,0.5c0.1,0.4,2.7,9.9,13.5,16.9c0.6,1.7,4.6,10.9,20,15.8
		c-2.2,1.2-6,3.6-5.9,5.6c0,0.5,0.2,0.8,0.6,1.2c0.2,0.2,0.5,0.4,0.9,0.5c0.2,0.1,4.1,1.8,6.1-6.3c0,0,0,0,0,0c0,0,0,0,0,0
		c2.9,4,5.2,4.6,6.6,4.3c0.9-0.2,1.4-0.7,1.5-0.8c0.8-0.7,1-1.4,0.8-2.1c-0.7-1.9-5.2-2.6-7.6-2.9c12.4-10.4,12.5-20.4,12.4-22.2
		C81.3,621,80.1,611.3,80,610.8z M26.6,621.9c1.5-0.7,2.9-1.3,4.3-1.8l-0.1,1.4c0,0.3,0.1,0.5,0.4,0.5c0.2,0,0.5-0.1,0.5-0.4
		l0.2-1.9c2.4-0.9,4.6-1.5,6.7-2c0,0.1,0,0.2,0,0.2l0.8,1.8c0.1,0.2,0.4,0.3,0.6,0.2c0.2-0.1,0.3-0.4,0.2-0.6l-0.8-1.8
		c0,0,0,0,0-0.1c5.4-1.1,8.4-0.5,9.4-0.2c1.1,10.1-4.4,17.7-6.9,20.4c0,0-0.1,0.1-0.1,0.1c-0.3,0.3-0.5,0.6-0.7,0.7
		c-0.6-0.3-1.1-0.6-1.6-1C30.4,631.9,27.3,624,26.6,621.9z M40.7,639.9c0.1,0.1,0.2,0.1,0.3,0.1l0.4,0.2l0.3-0.3
		c0,0,0.2-0.1,0.4-0.4c1.3,3.8,4.5,7,7.8,9.5C44.6,645.7,41.9,642,40.7,639.9z M55.8,661c-0.3,0.1-0.5,0-0.7,0
		c1.4-0.5,2.6-1.7,3.4-2.9C57.5,660.2,56.4,660.8,55.8,661z M53.8,660.4c-0.1-0.1-0.2-0.2-0.2-0.4c-0.1-1.2,2.8-3.3,5.3-4.7
		C58.2,657.2,56.5,660,53.8,660.4z M66.8,658.8c-0.7,0.1-1.8,0-3.4-1.4c1.2,0.7,2.6,1.3,4.1,1.2C67.3,658.6,67.1,658.7,66.8,658.8z
		 M68.4,657.1c0,0.1,0.1,0.3,0,0.4c-2.6,0.8-5.3-1.3-6.8-2.7C64.4,655.1,67.9,655.9,68.4,657.1z M62.7,650.3
		c0.2-1.3,0.1-2.9-0.5-4.8c-0.1-0.2-0.3-0.4-0.6-0.3c-0.2,0.1-0.4,0.3-0.3,0.6c0.6,1.7,0.7,3.1,0.5,4.3c-0.1-2.3-1.1-4.3-1.2-4.4
		c-0.1-0.2-0.3-0.3-0.5-0.2c0,0-0.1,0-0.1,0c-0.2,0.1-0.3,0.4-0.2,0.6c0,0,1.9,3.8,0.7,6.6c0,0,0,0,0,0c0,0,0,0.1-0.1,0.2
		c-0.1,0.1-0.1,0.3-0.3,0.5c0,0,0,0.1-0.1,0.1c0,0-0.1,0-0.1-0.1c0,0,0,0,0,0c0,0,0,0,0,0c0,0,0,0,0,0c-0.4-0.2-1-0.5-1.9-0.9
		c-1-1.2-2-3.5-2.7-8.1c0-0.2-0.3-0.4-0.5-0.4c0,0,0,0,0,0c-0.2,0-0.4,0.3-0.3,0.5c0.2,1.5,0.5,2.8,0.8,3.9
		c-0.4-0.9-0.8-1.9-1.1-2.9c-0.1-0.2-0.3-0.4-0.5-0.3l0,0c-0.3,0.1-0.4,0.3-0.3,0.5c0.6,2.3,1.7,4.2,2.7,5.6
		c-4.6-2.6-11.3-7.2-12.8-13c2.6-3.1,8-10.8,7-21l5.2-1c3,9.9,10.8,14.9,14.5,16.8C70.6,639.2,66,646.2,62.7,650.3z M67.6,645.5
		c2.1-3.6,3.8-7.8,3.6-11.8c0.3,0.1,0.5,0.2,0.5,0.2l0.4,0.2l0.3-0.4c0.1-0.1,0.1-0.2,0.2-0.2C72.3,636,71.3,640.4,67.6,645.5z
		 M72.8,631.1c-0.3,0.5-0.7,1-1.1,1.5c-0.2-0.1-0.6-0.3-1-0.5c-3.3-1.6-11.3-6.5-14.2-16.3c0.8-0.6,3.4-2.3,8.7-3.4c0,0,0,0,0,0.1
		l-0.1,2c0,0.3,0.2,0.5,0.4,0.5c0.3,0,0.5-0.2,0.5-0.4l0.1-2c0-0.1,0-0.2-0.1-0.2c2.1-0.4,4.5-0.6,7-0.8l0.9,1.7
		c0.1,0.2,0.4,0.3,0.6,0.2c0.2-0.1,0.3-0.4,0.2-0.6l-0.7-1.3c1.5-0.1,3.1-0.1,4.8,0C78.9,613.7,79,622.2,72.8,631.1z"/>
	<path fill="#DD3E2B" d="M45.7,625.4c0-0.3-0.2-0.5-0.4-0.5c0,0-0.1,0-0.1,0c-0.2,0-0.4,0.2-0.4,0.4c-0.3,5.1-4.1,9-4.1,9
		c-0.2,0.2-0.2,0.5,0,0.6c0.2,0.2,0.5,0.2,0.6,0C41.5,634.8,45.4,630.8,45.7,625.4z"/>
	<path fill="#DD3E2B" d="M70.2,628.4c0,0-5-2.1-7.2-6.8c-0.1-0.2-0.3-0.3-0.5-0.2c0,0-0.1,0-0.1,0c-0.2,0.1-0.3,0.4-0.2,0.6
		c2.4,4.9,7.5,7.1,7.7,7.2c0.2,0.1,0.5,0,0.6-0.2C70.6,628.8,70.4,628.5,70.2,628.4z"/>
</g>
</svg>
