<?xml version="1.0" encoding="utf-8"?>
<!-- Generator: Adobe Illustrator 20.1.0, SVG Export Plug-In . SVG Version: 6.00 Build 0)  -->
<svg version="1.1" id="Layer_1" xmlns="http://www.w3.org/2000/svg" xmlns:xlink="http://www.w3.org/1999/xlink" x="0px" y="0px"
	 viewBox="0 0 2134 469" style="enable-background:new 0 0 2134 469;" xml:space="preserve">
<style type="text/css">
	.st0{fill:#FFFFFF;}
</style>
<path class="st0" d="M1944.3,120.6c8.8-0.4,17.8,0,26.6-0.2c30.7,0,61.3,0,92,0c-15.6,11.3-31.8,21.8-47.6,32.9
	c-66.3,45.5-132.7,90.9-199,136.5c0.7,2,2.8,3.1,4.3,4.6c30.8,27.5,61.5,55.2,92.3,82.8c11.7,10.7,23.9,21,35.3,32
	c-35.1,0.4-70.2,0.1-105.3,0.2c-8.3-0.2-16.6,0.5-24.8-0.3c-5.4-3.6-10-8.1-15.1-12c-22.7-18.3-45.3-36.8-68-55.1
	c-1.1-1.2-2.8-0.8-3.9,0.1c-30.7,20.8-61.3,41.6-92,62.4c-31.6,21.6-63.5,42.8-94.9,64.6h-138.5c21.5-15,43.5-29.3,65.2-44.1
	c69.1-46.4,138.1-92.9,207.2-139.3c-2.4-2.6-5.1-4.9-7.7-7.2c-41.6-37.3-83.3-74.5-124.8-112.1c32.1,0.2,64.2,1.3,96.4,1.5
	c11.4,0.7,22.8,0.1,34.1,1c23.3,18.6,46.4,37.6,69.6,56.3c5.1,3.8,9.6,8.5,15,11.8c5.3-2.5,9.8-6.2,14.9-9.1
	c51.3-32.7,102.6-65.4,153.9-98.1C1934.6,126.8,1939.1,123.1,1944.3,120.6z"/>
<path class="st0" d="M0.9,166.4c44,0,88.1,0,132.1-0.1c1.3,0.1,2.9-0.3,4,0.7c44.9,42.1,89.8,84.2,134.6,126.3
	c1,1.3,2.5,0.3,3.3-0.6c44.1-40.2,88.1-80.4,132.2-120.6c1.8-1.6,4.6-1,6.8-1.2c17,0.4,34.1-0.3,51.1,0.2c9.3-0.3,18.6-0.2,27.8,0.2
	c16.8,18.9,32.7,38.5,49.4,57.5c1.1,1.3,2,2.6,2.9,4c-26.1,0.1-52.1,0-78.2,0.1c-1.6-0.2-2.5,1.3-3.6,2.2
	c-64.2,62.5-128.1,125.2-192.3,187.7c-89.4-84.5-178.7-169-268.1-253.5C2.1,168.3,1.5,167.4,0.9,166.4z"/>
<path class="st0" d="M1364,167.3c31.5-0.4,63.1-0.7,94.6-1c0,19.8-0.1,39.6,0.1,59.4c-110,0.2-219.9,0-329.9,0.1
	c-0.1,12.2-0.1,24.4,0,36.5c103,0.1,206,0.1,309,0c0.2,15.3,0,30.6,0.1,45.9c-107.6,0.2-215.2,0-322.8,0.1
	c3.4,12.3,10.4,24.1,21.5,30.9c10.2,6.4,22.6,8.1,34.4,7.9c97.3,0,194.7,0,292,0c0.4,15.9,0.1,31.8,0.2,47.7
	c-0.1,5.5,0.3,11.1-0.3,16.7c-118.6-0.2-237.2,0-355.9-0.1c-17.6,0.8-35.4-4-50.4-13.2c-16.9-10.5-28.3-27.9-34.5-46.4
	c-1.5-4.9-3.7-9.7-3.5-14.9c0.1-55.4-0.1-110.8,0.1-166.2c32.4-0.4,64.8-0.3,97.1-1c57.1-0.3,114.1-1.3,171.1-1.6
	C1312.7,167.5,1338.3,167.7,1364,167.3z"/>
<path class="st0" d="M533.7,173.3c139.4-0.1,278.9,0,418.3,0c10.8,0.1,21.7-0.3,32.6,0.2c-0.3,19.8,0.2,39.6-0.2,59.4
	c-50.4-0.1-100.8,0-151.2-0.1c-5.3,0.1-10.5-0.2-15.8,0.2c0,54.7,0,109.4,0,164.1c0,3.2,0.2,6.4-0.4,9.6
	c-36.5-0.1-73.1,0.3-109.6,0.2c0-57.2,0.1-114.4-0.1-171.6c-38,0-76.1,0-114.1,0c-2.6,0.5-4.3-1.7-5.9-3.4
	c-13.9-15.4-28.2-30.5-42.2-45.8C541.1,181.8,536.9,177.9,533.7,173.3z"/>
</svg>
