<?xml version="1.0" encoding="utf-8"?>
<!-- Generator: Adobe Illustrator 18.1.1, SVG Export Plug-In . SVG Version: 6.00 Build 0)  -->
<svg version="1.1" id="Шар_1" xmlns="http://www.w3.org/2000/svg" xmlns:xlink="http://www.w3.org/1999/xlink" x="0px" y="0px"
	 viewBox="0 0 100 100" enable-background="new 0 0 100 100" xml:space="preserve">
<path fill="#FFFFFF" d="M30.2,60.1c-0.4,0-0.8,0-1.2,0c-0.9,0-1.8-0.1-2.6-0.3c1.1,0.6,2.4,1,3.7,1.5c0.9-0.1,1.8-0.2,2.6-0.5
	C31.8,60.7,31,60.4,30.2,60.1z M70.9,48.4c0-8.3-12-15.1-27-15.3l0,1.2c8.7,0.1,16.5,2.5,21.1,6.1c0,0,0,0,0,0
	c2.9,2.2,4.6,5,4.6,7.9c0,0.3,0.1,0.6,0,0.8c0,0.3-0.1,0.6-0.1,0.9c0,1.6-0.4,3-1.1,4.3c0,0,0,0,0,0c-1.4,2.7-4.1,4.7-7.3,5.4
	c-0.8,0.2-1.7,0.3-2.6,0.3c-0.4,0-0.8,0-1.2-0.1c-4.4-0.5-8-3.2-9.3-7c-0.3-0.9-0.9-1.6-1.7-2.2c0,0,0,0,0,0
	c-0.1-0.1-0.2-0.1-0.3-0.2c-0.7-0.4-1.5-0.6-2.3-0.6l0,0c-0.8,0-1.6,0.2-2.3,0.6c-0.1,0.1-0.2,0.1-0.3,0.2c0,0,0,0,0,0
	c-0.7,0.5-1.3,1.3-1.7,2.2c-1.3,3.7-5,6.5-9.3,6.9c-0.4,0-0.8,0-1.2,0c-0.9,0-1.8-0.1-2.6-0.3c-3.2-0.7-5.9-2.8-7.3-5.4c0,0,0,0,0,0
	c-0.7-1.3-1.1-2.8-1.1-4.3c0-0.3-0.1-0.6,0-0.9c0-0.3,0.1-0.5,0.1-0.8c0-2.9,1.7-5.6,4.6-7.9c0,0,0,0,0.1,0c4.7-3.6,12.4-6,21.1-6
	l0-1.2c-14.9,0.1-27,6.8-27,15.1c0,0.3,0,0.7,0,0.9c0,0.3,0,0.5,0,0.8c0,6.2,5.5,11.3,12.2,11.4c0.4,0,0.7,0,1.1,0
	c0.9-0.1,1.8-0.2,2.6-0.5c2.7-0.8,5-2.5,6.6-4.6c0,0,0,0,0-0.1c0.5-0.7,0.9-1.4,1.2-2.2l0,0c0-0.1,0.1-0.2,0.1-0.3
	c0-0.1,0.1-0.2,0.1-0.2c0.6-1.2,1.7-2,3.1-2l0,0c1.4,0,2.5,0.8,3.1,2c0,0.1,0.1,0.2,0.1,0.2c0,0.1,0.1,0.2,0.1,0.3l0,0
	c0.3,0.8,0.7,1.5,1.2,2.3c0,0,0,0,0,0.1c1.5,2.2,3.8,3.9,6.6,4.7c0.8,0.2,1.7,0.4,2.6,0.5c0.3,0,0.7,0.1,1.1,0.1
	c6.7,0,12.2-5.1,12.2-11.3c0-0.3,0-0.5,0-0.8C70.9,49.1,70.9,48.7,70.9,48.4z M70.9,48.4c0-8.3-12-15.1-27-15.3l0,1.2
	c8.7,0.1,16.5,2.5,21.1,6.1c0,0,0,0,0,0c2.9,2.2,4.6,5,4.6,7.9c0,0.3,0.1,0.6,0,0.8c0,0.3-0.1,0.6-0.1,0.9c0,1.6-0.4,3-1.1,4.3
	c0,0,0,0,0,0c-1.4,2.7-4.1,4.7-7.3,5.4c-0.8,0.2-1.7,0.3-2.6,0.3c-0.4,0-0.8,0-1.2-0.1c-4.4-0.5-8-3.2-9.3-7
	c-0.3-0.9-0.9-1.6-1.7-2.2c0,0,0,0,0,0c-0.1-0.1-0.2-0.1-0.3-0.2c-0.7-0.4-1.5-0.6-2.3-0.6l0,0c-0.8,0-1.6,0.2-2.3,0.6
	c-0.1,0.1-0.2,0.1-0.3,0.2c0,0,0,0,0,0c-0.7,0.5-1.3,1.3-1.7,2.2c-1.3,3.7-5,6.5-9.3,6.9c-0.4,0-0.8,0-1.2,0c-0.9,0-1.8-0.1-2.6-0.3
	c-3.2-0.7-5.9-2.8-7.3-5.4c0,0,0,0,0,0c-0.7-1.3-1.1-2.8-1.1-4.3c0-0.3-0.1-0.6,0-0.9c0-0.3,0.1-0.5,0.1-0.8c0-2.9,1.7-5.6,4.6-7.9
	c0,0,0,0,0.1,0c4.7-3.6,12.4-6,21.1-6l0-1.2c-14.9,0.1-27,6.8-27,15.1c0,0.3,0,0.7,0,0.9c0,0.3,0,0.5,0,0.8
	c0,6.2,5.5,11.3,12.2,11.4c0.4,0,0.7,0,1.1,0c0.9-0.1,1.8-0.2,2.6-0.5c2.7-0.8,5-2.5,6.6-4.6c0,0,0,0,0-0.1c0.5-0.7,0.9-1.4,1.2-2.2
	l0,0c0-0.1,0.1-0.2,0.1-0.3c0-0.1,0.1-0.2,0.1-0.2c0.6-1.2,1.7-2,3.1-2l0,0c1.4,0,2.5,0.8,3.1,2c0,0.1,0.1,0.2,0.1,0.2
	c0,0.1,0.1,0.2,0.1,0.3l0,0c0.3,0.8,0.7,1.5,1.2,2.3c0,0,0,0,0,0.1c1.5,2.2,3.8,3.9,6.6,4.7c0.8,0.2,1.7,0.4,2.6,0.5
	c0.3,0,0.7,0.1,1.1,0.1c6.7,0,12.2-5.1,12.2-11.3c0-0.3,0-0.5,0-0.8C70.9,49.1,70.9,48.7,70.9,48.4z M70.9,48.4
	c0-8.3-12-15.1-27-15.3l0,1.2c8.7,0.1,16.5,2.5,21.1,6.1c0,0,0,0,0,0c2.9,2.2,4.6,5,4.6,7.9c0,0.3,0.1,0.6,0,0.8
	c0,0.3-0.1,0.6-0.1,0.9c0,1.6-0.4,3-1.1,4.3c0,0,0,0,0,0c-1.4,2.7-4.1,4.7-7.3,5.4c-0.8,0.2-1.7,0.3-2.6,0.3c-0.4,0-0.8,0-1.2-0.1
	c-4.4-0.5-8-3.2-9.3-7c-0.3-0.9-0.9-1.6-1.7-2.2c0,0,0,0,0,0c-0.1-0.1-0.2-0.1-0.3-0.2c-0.7-0.4-1.5-0.6-2.3-0.6l0,0
	c-0.8,0-1.6,0.2-2.3,0.6c-0.1,0.1-0.2,0.1-0.3,0.2c0,0,0,0,0,0c-0.7,0.5-1.3,1.3-1.7,2.2c-1.3,3.7-5,6.5-9.3,6.9c-0.4,0-0.8,0-1.2,0
	c-0.9,0-1.8-0.1-2.6-0.3c-3.2-0.7-5.9-2.8-7.3-5.4c0,0,0,0,0,0c-0.7-1.3-1.1-2.8-1.1-4.3c0-0.3-0.1-0.6,0-0.9c0-0.3,0.1-0.5,0.1-0.8
	c0-2.9,1.7-5.6,4.6-7.9c0,0,0,0,0.1,0c4.7-3.6,12.4-6,21.1-6l0-1.2c-14.9,0.1-27,6.8-27,15.1c0,0.3,0,0.7,0,0.9c0,0.3,0,0.5,0,0.8
	c0,6.2,5.5,11.3,12.2,11.4c0.4,0,0.7,0,1.1,0c0.9-0.1,1.8-0.2,2.6-0.5c2.7-0.8,5-2.5,6.6-4.6c0,0,0,0,0-0.1c0.5-0.7,0.9-1.4,1.2-2.2
	l0,0c0-0.1,0.1-0.2,0.1-0.3c0-0.1,0.1-0.2,0.1-0.2c0.6-1.2,1.7-2,3.1-2l0,0c1.4,0,2.5,0.8,3.1,2c0,0.1,0.1,0.2,0.1,0.2
	c0,0.1,0.1,0.2,0.1,0.3l0,0c0.3,0.8,0.7,1.5,1.2,2.3c0,0,0,0,0,0.1c1.5,2.2,3.8,3.9,6.6,4.7c0.8,0.2,1.7,0.4,2.6,0.5
	c0.3,0,0.7,0.1,1.1,0.1c6.7,0,12.2-5.1,12.2-11.3c0-0.3,0-0.5,0-0.8C70.9,49.1,70.9,48.7,70.9,48.4z M75.7,46.5l-2-0.3
	c-1.6-9-14.4-16-29.8-16.1l-0.1,0c-15.5,0-28.2,7-29.9,16l-1.9,0.3c-0.3,0-0.6,0.4-0.5,0.7l1.3,8.6c0,0.2,0.1,0.3,0.3,0.4
	c0.1,0.1,0.2,0.1,0.4,0.1c0,0,0.1,0,0.1,0l1.6-0.3c2.4,5.1,7.6,8.7,13.7,8.7c0.8,0,1.5-0.1,2.3-0.2l0,0c0.9-0.1,1.7-0.3,2.5-0.6
	c0.3-0.1,0.6-0.2,0.9-0.3c0.6-0.2,1.1-0.5,1.6-0.8c0,0,0,0,0.1,0c0.6-0.4,1.2-0.7,1.8-1.2c0.4-0.3,0.7-0.6,1.1-0.9
	c0.5-0.4,1.1-0.8,1.7-1.1c0.9-0.5,1.9-0.8,3.1-0.8c0,0,0,0,0,0c1.1,0,2.1,0.3,3.1,0.8c0.6,0.3,1.1,0.7,1.7,1.1
	c0.4,0.3,0.7,0.6,1.1,0.9c0.6,0.4,1.2,0.8,1.8,1.2c0,0,0,0,0.1,0c0.5,0.3,1.1,0.5,1.6,0.8c0.3,0.1,0.6,0.2,0.9,0.3
	c0.8,0.3,1.6,0.5,2.5,0.6l0,0c0.8,0.1,1.5,0.2,2.3,0.2c6.1,0,11.3-3.6,13.7-8.7l1.7,0.3c0,0,0.1,0,0.1,0c0.1,0,0.3,0,0.4-0.1
	c0.1-0.1,0.2-0.2,0.3-0.4l1.3-8.6C76.3,46.9,76.1,46.6,75.7,46.5z M14,54.8l-1.1-7.4l0.9-0.1c0,0.2,0,0.5,0,0.7c0,0.2,0,0.4,0,0.6
	c0,0,0,0,0,0c0,0.3,0,0.5,0,0.8c0,1.8,0.3,3.6,0.9,5.2L14,54.8z M72.7,49.6c0,2-0.5,4-1.3,5.7c-2.1,4.5-6.4,7.7-11.6,8.1
	c-0.3,0-0.7,0-1,0c-0.8,0-1.6-0.1-2.3-0.2c-1.4-0.2-2.7-0.7-3.9-1.3c-0.6-0.3-1.1-0.6-1.7-1c-0.5-0.4-1-0.8-1.4-1.2l-0.1-0.1
	c-0.9-0.8-1.9-1.4-3.1-1.8c0,0,0,0-0.1,0c-0.8-0.3-1.6-0.4-2.4-0.4c0,0,0,0,0,0c-0.8,0-1.7,0.1-2.4,0.4c0,0,0,0-0.1,0
	c-1.2,0.4-2.2,1-3.1,1.8l-0.1,0.1c-0.5,0.4-0.9,0.8-1.5,1.2c-0.5,0.4-1.1,0.7-1.7,1c-1.2,0.6-2.5,1-3.9,1.3
	c-0.8,0.1-1.5,0.2-2.3,0.2c-0.4,0-0.7,0-1,0c-5.2-0.4-9.5-3.6-11.6-8.1c-0.8-1.7-1.2-3.7-1.2-5.7c0-0.1,0-0.1,0-0.1
	c0-0.3,0-1.2,0-1.3c0-5.5,4.7-10.5,11.8-13.5c4.8-2,10.7-3.3,17-3.3l0.1,0c6.4,0,12.2,1.3,17,3.3c7.2,3.1,11.8,8,11.8,13.6
	c0,0.2,0,0.4,0,0.6C72.7,49,72.7,49.3,72.7,49.6z M73.8,55L73,54.8c0.6-1.6,0.9-3.4,0.9-5.2c0-0.3,0-0.5,0-0.8c0,0,0,0,0,0
	c0-0.2,0-0.4,0-0.6c0-0.2,0-0.5,0-0.7l1,0.2L73.8,55z M21.7,51c-0.2,0-0.4-0.2-0.4-0.4c0-6.8,8-11.2,15.3-12.3
	c0.2,0,0.5,0.1,0.5,0.4c0,0.2-0.1,0.5-0.4,0.5c-7,1.1-14.6,5.2-14.6,11.5C22.1,50.8,21.9,51,21.7,51z M87.8,67.6h-2c0,0,0,0,0,0V4.2
	c0-0.2-0.2-0.4-0.4-0.4h-4.8c-0.2,0-0.4,0.2-0.4,0.4v63.4c0,0,0,0,0,0h-2c-0.3,0-0.6,0.3-0.6,0.6c0,0.3,0.3,0.6,0.6,0.6h1.1v14.7
	c0,0,0,0.1-0.1,0.1c-0.9,2.2-2.9,3.7-5.1,3.7c-2.9,0-5.3-2.5-5.7-5.7c1-0.4,1.9-0.9,2.6-1.4c1.7-1.2,2.5-2.6,2.3-3.9
	c0,0,0-0.1,0-0.1c-0.1-0.3-0.4-0.5-0.7-0.4c-0.3,0.1-0.5,0.3-0.5,0.6c0,0,0,0.1,0,0.1c0,0,0,0,0,0c0.1,0.8-0.5,1.8-1.8,2.7
	c-0.6,0.4-1.2,0.7-1.9,1.1c-0.4,0.2-0.8,0.3-1.2,0.5c-0.8,0.3-1.6,0.5-2.5,0.6c-0.7,0.1-1.5,0.2-2.2,0.3c-0.3,0-0.5,0-0.8,0
	c-0.2,0-0.3,0-0.5,0c-2.8-0.1-4.9-1-5.2-2.3h0c0,0,0,0,0-0.1c-0.1-0.3-0.4-0.5-0.8-0.4c-0.3,0.1-0.5,0.4-0.4,0.7c0,0,0,0,0,0
	c0,0,0,0,0,0.1c0.4,1.8,2.6,2.9,5.8,3.2l0.8,3.1h0c0,0,0,0,0,0.1c0.2,1.1,0.6,2.1,1.1,3.1c2.2,4.4,6.6,7.4,11.7,7.4
	c6.5,0,11.8-4.8,12.9-11.1l0-4.5v-12h0.7c0.3,0,0.6-0.3,0.6-0.6C88.4,67.9,88.2,67.6,87.8,67.6z M81,67.6V4.7h4v62.9c0,0,0,0,0,0
	L81,67.6C81,67.6,81,67.6,81,67.6z M85.9,85.3C85.9,85.3,85.9,85.3,85.9,85.3c-1,5.7-5.8,10-11.6,10c-4.9,0-9.2-3.1-10.9-7.5
	c-0.3-0.8-0.6-1.5-0.7-2.3L62,82.9c0.1,0,0.3,0,0.4,0c0.8,0,1.7-0.1,2.5-0.3c0.8-0.1,1.6-0.3,2.4-0.6c0.5,3.7,3.4,6.5,6.8,6.5
	c1.5,0,2.8-0.5,3.9-1.4c1.1-0.9,2-2.1,2.5-3.5V68.9h5.4V85.3z M54.9,79.7C54.9,79.7,54.9,79.7,54.9,79.7
	C54.9,79.7,54.9,79.7,54.9,79.7L54.9,79.7z"/>
</svg>
